<?xml version='1.0' encoding='utf-8'?>
<svg xmlns="http://www.w3.org/2000/svg" width="1920" height="1080" viewBox="0 0 1920 1080" data-theme="dark" data-semantic-intent="compare" data-relation-type="taxonomy" data-site-visual-identity="editorial-atlas">
  <style>
        @font-face {
            font-family: 'Inter';
            src: url('assets/fonts/Inter-Regular.ttf') format('truetype');
            font-weight: 400;
            font-style: normal;
            font-display: swap;
        }
        @font-face {
            font-family: 'Inter';
            src: url('assets/fonts/Inter-Bold.ttf') format('truetype');
            font-weight: 600;
            font-style: normal;
            font-display: swap;
        }
        @font-face {
            font-family: 'Inter';
            src: url('assets/fonts/Inter-Bold.ttf') format('truetype');
            font-weight: 800;
            font-style: normal;
            font-display: swap;
        }
        
:root {
    --background: #0f172a;
    --panel: #1e293b;
    --primary-text: #f1f5f9;
    --muted-text: #94a3b8;
    --inverse-text: #0f172a;
    --border: #334155;
    --shadow-color: #000000;
    --icon-pad-bg: #1e293b;
    --art-glow: #7dd3fc;
    --art-glow-opacity: 0.18;
    --art-sheen: #ffffff;
    --art-sheen-opacity: 0.18;
    --art-shadow: #000000;
    --art-shadow-opacity: 0.28;
    --art-muted-line: #64748b;
    --art-panel-tint: #1e293b;
    --semantic-risk: #f87171;
    --semantic-warning: #fb923c;
    --semantic-uncertain: #fbbf24;
    --semantic-evidence: #60a5fa;
    --semantic-claim: #c084fc;
    --semantic-positive: #4ade80;
    --semantic-outcome: #22d3ee;
    --font-family: 'Inter', 'Segoe UI', 'Kalam', Roboto, Helvetica, Arial, sans-serif;
    --radius-xl: 16px;
    --font-family-headline: 'Segoe UI Variable Display', 'Aptos Display', 'Inter', 'Segoe UI', Helvetica, Arial, sans-serif;
    --font-family-body: 'Segoe UI Variable Text', 'Aptos', 'Inter', 'Segoe UI', Helvetica, Arial, sans-serif;
    --font-heading: var(--font-family-headline);
    --font-body: var(--font-family-body);
    --font-size-h1: 64px;
    --font-size-h2: 42px;
    --font-size-h3: 29px;
    --font-size-body: 21px;
    --font-size-caption: 17px;
    --secondary-text: var(--muted-text);
    --panel-border: var(--border);
    --font-weight-normal: 400;
    --font-weight-medium: 500;
    --font-weight-semibold: 600;
    --font-weight-bold: 700;
    --spacing-gutter-pct: 0.07;
    --spacing-top-pct: 0.15;
    --spacing-bottom-pct: 0.07;
    --spacing-title-y-pct: 0.055;
    --accent-1: #67e8f9;
    --accent-2: #38bdf8;
    --accent-3: #60a5fa;
    --accent-4: #818cf8;
    --accent-5: #22d3ee;
    --accent-6: #fbbf24;
}
:root[data-theme="dark"] {
    --background: #0f172a;
    --panel: #1e293b;
    --primary-text: #f1f5f9;
    --muted-text: #94a3b8;
    --inverse-text: #0f172a;
    --border: #334155;
    --shadow-color: #000000;
    --icon-pad-bg: #1e293b;
    --art-glow: #7dd3fc;
    --art-glow-opacity: 0.18;
    --art-sheen: #ffffff;
    --art-sheen-opacity: 0.18;
    --art-shadow: #000000;
    --art-shadow-opacity: 0.28;
    --art-muted-line: #64748b;
    --art-panel-tint: #1e293b;
    --semantic-risk: #f87171;
    --semantic-warning: #fb923c;
    --semantic-uncertain: #fbbf24;
    --semantic-evidence: #60a5fa;
    --semantic-claim: #c084fc;
    --semantic-positive: #4ade80;
    --semantic-outcome: #22d3ee;
    --accent-1: #67e8f9;
    --accent-2: #38bdf8;
    --accent-3: #60a5fa;
    --accent-4: #818cf8;
    --accent-5: #22d3ee;
    --accent-6: #fbbf24;
}
:root[data-theme="light"] {
    --background: #f8fafc;
    --panel: #ffffff;
    --primary-text: #0f172a;
    --muted-text: #64748b;
    --inverse-text: #ffffff;
    --border: #e2e8f0;
    --shadow-color: #000000;
    --icon-pad-bg: #1e293b;
    --art-glow: #0891b2;
    --art-glow-opacity: 0.10;
    --art-sheen: #ffffff;
    --art-sheen-opacity: 0.34;
    --art-shadow: #0f172a;
    --art-shadow-opacity: 0.14;
    --art-muted-line: #94a3b8;
    --art-panel-tint: #f1f5f9;
    --semantic-risk: #b91c1c;
    --semantic-warning: #c2410c;
    --semantic-uncertain: #a16207;
    --semantic-evidence: #1d4ed8;
    --semantic-claim: #6d28d9;
    --semantic-positive: #15803d;
    --semantic-outcome: #0e7490;
    --accent-1: #0e7490;
    --accent-2: #0369a1;
    --accent-3: #1d4ed8;
    --accent-4: #4338ca;
    --accent-5: #0f766e;
    --accent-6: #b45309;
}</style>
  <rect x="0" y="0" width="1.92E+3" height="1.08E+3" fill="#0f172a" stroke="none" id="programmatic_background"/>
  <line id="HEADER_DECOR" x1="960.0" x2="1080.0" y1="135.0" y2="135.0" stroke="var(--accent-1)" stroke-width="6" stroke-linecap="round"/>
  <defs>
    <pattern id="svg6b4fd516-napkin-hatch" patternUnits="userSpaceOnUse" width="12" height="12">
      <path d="M -3 12 L 12 -3 M 0 15 L 15 0" fill="none" stroke="var(--primary-text)" stroke-width="1" stroke-opacity="0.05"/>
    </pattern>
    <filter id="svg6b4fd516-shadow" x="-30%" y="-30%" width="160%" height="160%">
      <feDropShadow dx="0" dy="2" stdDeviation="3" flood-color="#000000" flood-opacity="0.08"/>
      <feDropShadow dx="0" dy="6" stdDeviation="10" flood-color="#000000" flood-opacity="0.12"/>
    </filter>
    <marker id="svg6b4fd516-arrowhead" markerWidth="10" markerHeight="10" refX="9" refY="5" orient="auto">
      <path d="M 0 0 L 10 5 L 0 10 Z" fill="var(--accent-1)"/>
    </marker>
    <filter id="svg6b4fd516-text-glow" x="-20%" y="-20%" width="140%" height="140%">
      <feDropShadow dx="0" dy="0" stdDeviation="2" flood-color="#000000" flood-opacity="0.4"/>
    </filter>
    <radialGradient id="svg6b4fd516-universal-edge-vignette" cx="50%" cy="50%" r="72%">
      <stop offset="0%" stop-color="var(--background)" stop-opacity="0"/>
      <stop offset="72%" stop-color="var(--background)" stop-opacity="0.12"/>
      <stop offset="100%" stop-color="var(--primary-text)" stop-opacity="0.08"/>
    </radialGradient>
    <linearGradient id="svg6b4fd516-universal-surface-sheen" x1="0%" y1="0%" x2="100%" y2="100%">
      <stop offset="0%" stop-color="var(--art-sheen)" stop-opacity="var(--art-sheen-opacity)"/>
      <stop offset="46%" stop-color="var(--art-sheen)" stop-opacity="0.035"/>
      <stop offset="100%" stop-color="var(--art-panel-tint)" stop-opacity="0.14"/>
    </linearGradient>
    <radialGradient id="svg6b4fd516-universal-icon-aura" cx="50%" cy="42%" r="64%">
      <stop offset="0%" stop-color="var(--art-glow)" stop-opacity="var(--art-glow-opacity)"/>
      <stop offset="100%" stop-color="var(--background)" stop-opacity="0"/>
    </radialGradient>
    <linearGradient id="svg6b4fd516-myth-card-sheen" x1="0%" y1="0%" x2="100%" y2="100%">
      <stop offset="0%" stop-color="var(--inverse-text)" stop-opacity="0.18"/>
      <stop offset="56%" stop-color="var(--inverse-text)" stop-opacity="0.03"/>
      <stop offset="100%" stop-color="var(--background)" stop-opacity="0.12"/>
    </linearGradient>
  </defs>
  <rect width="100%" height="100%" fill="var(--background)" id="CANVAS_BG"/>
  <rect width="100%" height="100%" fill="url(#svg6b4fd516-napkin-hatch)"/>
  <rect id="UNIVERSAL_EDGE_VIGNETTE" width="100%" height="100%" fill="url(#svg6b4fd516-universal-edge-vignette)" opacity="0.62"/>
  <text id="TITLE" x="960.0" y="59" text-anchor="middle" font-weight="800" font-size="56" fill="#f1f5f9" style="font-size: 69px; font-family: 'Segoe UI Variable Display', 'Aptos Display', 'Inter', 'Segoe UI', Helvetica, Arial, sans-serif; font-weight: 800; font-kerning: normal; font-feature-settings: &quot;kern&quot; 1, &quot;liga&quot; 1; letter-spacing:-1.2px;" data-final-font-size="69">
    <tspan x="960.0" dy="70.47px">Cinematic Lighting Techniques</tspan>
  </text>
  <rect id="TITLE_FRAME" x="134" y="59" width="1652" height="103" fill="none"/>
  <g transform="translate(0, 190) scale(1.0)">
    <path d="M 920 -8 C 950 80 950 720 920 808" stroke="var(--primary-text)" stroke-width="2" stroke-opacity="0.10" fill="none"/>
    <path d="M 1000 -8 C 970 80 970 720 1000 808" stroke="var(--primary-text)" stroke-width="2" stroke-opacity="0.10" fill="none"/>
    <text x="480.0" y="0" text-anchor="middle" font-weight="900" font-size="52" fill="var(--accent-1)">MYTHS</text>
    <text x="1440.0" y="0" text-anchor="middle" font-weight="900" font-size="52" fill="var(--accent-2)">REALITY</text>
    <!-- Row 1 - cards at y=130 -->
    <g transform="translate(480.0, 130.0)">
      <rect id="ITEM_1_ACCENT_BG" x="-400" y="-110" width="800" height="245" rx="24" fill="var(--accent-6)" fill-opacity="0.15" stroke="none"/>
      <rect id="ITEM_1_BG" x="-400" y="-110" width="800" height="245" rx="18" fill="var(--panel)" stroke="var(--accent-1)" filter="url(#svg6b4fd516-shadow)" stroke-width="3"/>
      <rect x="-388" y="-98" width="776" height="221" rx="16" fill="url(#svg6b4fd516-myth-card-sheen)" opacity="0.92"/>
      <circle id="ITEM_1_PAD" cx="-330" cy="-40" r="46" fill="var(--icon-pad-bg)" stroke="var(--accent-6)" stroke-width="2" stroke-opacity="0.72" opacity="1" fill-opacity="0.9" data-badge-layer="pad"/>
      <circle id="ITEM_1_PAD_INNER" cx="-330" cy="-40" r="35.88" fill="var(--accent-6)" fill-opacity="0.12" stroke="none" data-badge-layer="tint"/>
      <circle cx="-330" cy="-40" r="34" fill="none" stroke="var(--accent-1)" stroke-width="3" stroke-dasharray="6 4" display="none" data-suppressed-decoration="redundant-badge-ring"/>
      <g id="ITEM_1_ICON" transform="translate(-358, -68)" data-icon-size="56" stroke-linecap="round" stroke-linejoin="round" data-badge-treatment="clean">
        <g transform="translate(-10.292100840336136,-10.59361344537815) scale(3.2161344537815126)" vector-effect="non-scaling-stroke" stroke-width="2.38" stroke-linecap="round" stroke-linejoin="round" stroke-opacity="1.0">
          <path d="m19 11-8-8-8.6 8.6a2 2 0 0 0 0 2.8l5.2 5.2c.8.8 2 .8 2.8 0L19 11Z" vector-effect="non-scaling-stroke" fill="none" stroke="#f1f5f9"/>
          <path d="m5 2 5 5" vector-effect="non-scaling-stroke" fill="none" stroke="#f1f5f9"/>
          <path d="M2 13h15" vector-effect="non-scaling-stroke" fill="none" stroke="#f1f5f9"/>
          <path d="M22 20a2 2 0 1 1-4 0c0-1.6 1.7-2.4 2-4 .3 1.6 2 2.4 2 4Z" vector-effect="non-scaling-stroke" fill="none" stroke="#f1f5f9"/>
        </g>
      </g>
      <text id="ITEM_1_HEAD" x="52.0" y="-85.0" text-anchor="middle" font-weight="bold" font-size="28" fill="var(--accent-6)" data-bg-id="ITEM_1_BG" fill-opacity="1.0" stroke="none" style="font-size: 31px; font-family: 'Segoe UI Variable Display', 'Aptos Display', 'Inter', 'Segoe UI', Helvetica, Arial, sans-serif; font-weight: 700; font-kerning: normal; font-feature-settings: &quot;kern&quot; 1, &quot;liga&quot; 1; letter-spacing:-0.4px;" data-final-font-size="31">
        <tspan x="52.0" dy="38.02px">Color Coding</tspan>
      </text>
      <rect id="ITEM_1_HEAD_FRAME" x="-220" y="-85" width="544" height="50" fill="none"/>
      <text id="ITEM_1_BODY" x="52.0" y="-14.0" text-anchor="middle" font-size="22" fill="var(--primary-text)" opacity="0.88" data-bg-id="ITEM_1_BG" data-max-lines="5" style="font-size: 23px; font-family: 'Segoe UI Variable Text', 'Aptos', 'Inter', 'Segoe UI', Helvetica, Arial, sans-serif; font-weight: 400; font-kerning: normal; font-feature-settings: &quot;kern&quot; 1, &quot;liga&quot; 1;" data-final-font-size="23">
        <tspan x="52.0" dy="42.37px">White suggests purity while red implies danger</tspan>
      </text>
      <rect id="ITEM_1_BODY_FRAME" x="-220" y="-14" width="544" height="124" fill="none"/>
    </g>
    <g transform="translate(1440.0, 130.0)">
      <rect id="ITEM_2_ACCENT_BG" x="-400" y="-110" width="800" height="245" rx="24" fill="var(--accent-2)" fill-opacity="0.15" stroke="none"/>
      <rect id="ITEM_2_BG" x="-400" y="-110" width="800" height="245" rx="18" fill="var(--panel)" stroke="var(--accent-2)" filter="url(#svg6b4fd516-shadow)" stroke-width="3"/>
      <rect x="-388" y="-98" width="776" height="221" rx="16" fill="url(#svg6b4fd516-myth-card-sheen)" opacity="0.92"/>
      <circle id="ITEM_2_PAD" cx="330" cy="-40" r="46" fill="var(--icon-pad-bg)" stroke="var(--accent-2)" stroke-width="2" stroke-opacity="0.72" opacity="1" fill-opacity="0.9" data-badge-layer="pad"/>
      <circle id="ITEM_2_PAD_INNER" cx="330" cy="-40" r="35.88" fill="var(--accent-2)" fill-opacity="0.12" stroke="none" data-badge-layer="tint"/>
      <circle cx="330" cy="-40" r="34" fill="none" stroke="var(--accent-2)" stroke-width="3" stroke-dasharray="6 4" display="none" data-suppressed-decoration="redundant-badge-ring"/>
      <g id="ITEM_2_ICON" transform="translate(302, -68)" data-icon-size="56" stroke-linecap="round" stroke-linejoin="round" data-badge-treatment="clean">
        <g transform="translate(-13.005714285714289,-24.538571428571434) scale(2.562857142857143)">
          <path d="M5.5 11C5.22386 11 5 11.2239 5 11.5V13H9V11.5C9 11.2239 8.77614 11 8.5 11H5.5Z" fill="#D3D3D3"/>
          <path d="M21.5 11C21.2239 11 21 11.2239 21 11.5V13H27V11.5C27 11.2239 26.7761 11 26.5 11H21.5Z" fill="#D3D3D3"/>
          <path d="M2 14C2 12.8954 2.89543 12 4 12H28C29.1046 12 30 12.8954 30 14V16.5L28 22L30 27.5V28C30 29.1046 29.1046 30 28 30H4C2.89543 30 2 29.1046 2 28V27.5L3.5 22L2 16.5V14Z" fill="#E6E6E6"/>
          <path d="M2 16.5C2 16.2239 2.22386 16 2.5 16H29.5C29.7761 16 30 16.2239 30 16.5V27.5C30 27.7761 29.7761 28 29.5 28H2.5C2.22386 28 2 27.7761 2 27.5V16.5Z" fill="#533566"/>
          <path d="M22 22C22 25.3137 19.3137 28 16 28C12.6863 28 10 25.3137 10 22C10 18.6863 12.6863 16 16 16C19.3137 16 22 18.6863 22 22Z" fill="#321B41"/>
          <path d="M16 27C18.7614 27 21 24.7614 21 22C21 19.2386 18.7614 17 16 17C13.2386 17 11 19.2386 11 22C11 24.7614 13.2386 27 16 27ZM16 29C12.134 29 9 25.866 9 22C9 18.134 12.134 15 16 15C19.866 15 23 18.134 23 22C23 25.866 19.866 29 16 29Z" fill="#9B9B9B"/>
          <path d="M18.5 22C18.5 23.3807 17.3807 24.5 16 24.5C14.6193 24.5 13.5 23.3807 13.5 22C13.5 20.6193 14.6193 19.5 16 19.5C17.3807 19.5 18.5 20.6193 18.5 22Z" fill="#433B6B"/>
          <path d="M19.0825 19.875C19.4967 20.5924 19.4448 21.3979 18.9665 21.674C18.4882 21.9501 17.7647 21.5924 17.3505 20.875C16.9363 20.1575 16.9882 19.3521 17.4665 19.0759C17.9448 18.7998 18.6683 19.1575 19.0825 19.875Z" fill="white"/>
        </g>
      </g>
      <text id="ITEM_2_HEAD" x="-52.0" y="-85.0" text-anchor="middle" font-weight="bold" font-size="28" fill="var(--accent-2)" data-bg-id="ITEM_2_BG" fill-opacity="1.0" stroke="none" style="font-size: 31px; font-family: 'Segoe UI Variable Display', 'Aptos Display', 'Inter', 'Segoe UI', Helvetica, Arial, sans-serif; font-weight: 700; font-kerning: normal; font-feature-settings: &quot;kern&quot; 1, &quot;liga&quot; 1; letter-spacing:-0.4px;" data-final-font-size="31">
        <tspan x="-52.0" dy="38.02px">Layered Exposure</tspan>
      </text>
      <rect id="ITEM_2_HEAD_FRAME" x="-324" y="-85" width="544" height="50" fill="none"/>
      <text id="ITEM_2_BODY" x="-52.0" y="-14.0" text-anchor="middle" font-size="22" fill="var(--primary-text)" opacity="0.88" data-bg-id="ITEM_2_BG" data-max-lines="5" style="font-size: 23px; font-family: 'Segoe UI Variable Text', 'Aptos', 'Inter', 'Segoe UI', Helvetica, Arial, sans-serif; font-weight: 400; font-kerning: normal; font-feature-settings: &quot;kern&quot; 1, &quot;liga&quot; 1;" data-final-font-size="23">
        <tspan x="-52.0" dy="42.37px">Combines multiple exposures to create brilliance</tspan>
      </text>
      <rect id="ITEM_2_BODY_FRAME" x="-324" y="-14" width="544" height="124" fill="none"/>
    </g>
    <!-- Row 2 - cards at y=400 -->
    <g transform="translate(480.0, 400.0)">
      <rect id="ITEM_3_ACCENT_BG" x="-400" y="-110" width="800" height="245" rx="24" fill="var(--accent-3)" fill-opacity="0.15"/>
      <rect id="ITEM_3_BG" x="-400" y="-110" width="800" height="245" rx="18" fill="var(--panel)" stroke="var(--accent-3)" filter="url(#svg6b4fd516-shadow)" stroke-width="3"/>
      <rect x="-388" y="-98" width="776" height="221" rx="16" fill="url(#svg6b4fd516-myth-card-sheen)" opacity="0.92"/>
      <circle id="ITEM_3_PAD" cx="-330" cy="-40" r="46" fill="var(--icon-pad-bg)" stroke="var(--accent-3)" stroke-width="2" stroke-opacity="0.72" opacity="1" data-badge-layer="pad"/>
      <circle id="ITEM_3_PAD_INNER" cx="-330" cy="-40" r="35.88" fill="var(--accent-3)" fill-opacity="0.12" stroke="none" data-badge-layer="tint"/>
      <circle cx="-330" cy="-40" r="34" fill="none" stroke="var(--accent-3)" stroke-width="3" stroke-dasharray="6 4" display="none" data-suppressed-decoration="redundant-badge-ring"/>
      <g id="ITEM_3_ICON" transform="translate(-358, -68)" data-icon-size="56" stroke-linecap="round" stroke-linejoin="round" data-badge-treatment="clean">
        <g transform="translate(-10.920677966101698,-10.312542372881357) scale(3.243389830508475)" vector-effect="non-scaling-stroke" stroke-width="2.38" stroke-linecap="round" stroke-linejoin="round" stroke-opacity="1.0">
          <path d="m5.2 6.2 1.4 1.4" vector-effect="non-scaling-stroke" fill="none" stroke="#f1f5f9"/>
          <path d="M2 13h2" vector-effect="non-scaling-stroke" fill="none" stroke="#f1f5f9"/>
          <path d="M20 13h2" vector-effect="non-scaling-stroke" fill="none" stroke="#f1f5f9"/>
          <path d="m17.4 7.6 1.4-1.4" vector-effect="non-scaling-stroke" fill="none" stroke="#f1f5f9"/>
          <path d="M22 17H2" vector-effect="non-scaling-stroke" fill="none" stroke="#f1f5f9"/>
          <path d="M22 21H2" vector-effect="non-scaling-stroke" fill="none" stroke="#f1f5f9"/>
          <path d="M16 13a4 4 0 0 0-8 0" vector-effect="non-scaling-stroke" fill="none" stroke="#f1f5f9"/>
          <path d="M12 5V2.5" vector-effect="non-scaling-stroke" fill="none" stroke="#f1f5f9"/>
        </g>
      </g>
      <text id="ITEM_3_HEAD" x="52.0" y="-85.0" text-anchor="middle" font-weight="bold" font-size="28" fill="var(--accent-3)" data-bg-id="ITEM_3_BG" style="font-size: 31px; font-family: 'Segoe UI Variable Display', 'Aptos Display', 'Inter', 'Segoe UI', Helvetica, Arial, sans-serif; font-weight: 700; font-kerning: normal; font-feature-settings: &quot;kern&quot; 1, &quot;liga&quot; 1; letter-spacing:-0.4px;" data-final-font-size="31">
        <tspan x="52.0" dy="38.02px">Haze and Smoke</tspan>
      </text>
      <rect id="ITEM_3_HEAD_FRAME" x="-220" y="-85" width="544" height="50" fill="none"/>
      <text id="ITEM_3_BODY" x="52.0" y="-14.0" text-anchor="middle" font-size="22" fill="var(--primary-text)" opacity="0.88" data-bg-id="ITEM_3_BG" data-max-lines="5" style="font-size: 23px; font-family: 'Segoe UI Variable Text', 'Aptos', 'Inter', 'Segoe UI', Helvetica, Arial, sans-serif; font-weight: 400; font-kerning: normal; font-feature-settings: &quot;kern&quot; 1, &quot;liga&quot; 1;" data-final-font-size="23">
        <tspan x="52.0" dy="42.37px">Softens edges to suggest motion and velocity</tspan>
      </text>
      <rect id="ITEM_3_BODY_FRAME" x="-220" y="-14" width="544" height="124" fill="none"/>
    </g>
    <g transform="translate(1440.0, 400.0)">
      <rect id="ITEM_4_ACCENT_BG" x="-400" y="-110" width="800" height="245" rx="24" fill="var(--accent-4)" fill-opacity="0.15"/>
      <rect id="ITEM_4_BG" x="-400" y="-110" width="800" height="245" rx="18" fill="var(--panel)" stroke="var(--accent-4)" filter="url(#svg6b4fd516-shadow)" stroke-width="3"/>
      <rect x="-388" y="-98" width="776" height="221" rx="16" fill="url(#svg6b4fd516-myth-card-sheen)" opacity="0.92"/>
      <circle id="ITEM_4_PAD" cx="330" cy="-40" r="46" fill="var(--icon-pad-bg)" stroke="var(--accent-4)" stroke-width="2" stroke-opacity="0.72" opacity="1" data-badge-layer="pad"/>
      <circle id="ITEM_4_PAD_INNER" cx="330" cy="-40" r="35.88" fill="var(--accent-4)" fill-opacity="0.12" stroke="none" data-badge-layer="tint"/>
      <circle cx="330" cy="-40" r="34" fill="none" stroke="var(--accent-4)" stroke-width="3" stroke-dasharray="6 4" display="none" data-suppressed-decoration="redundant-badge-ring"/>
      <g id="ITEM_4_ICON" transform="translate(302, -68)" data-icon-size="56" stroke-linecap="round" stroke-linejoin="round" data-badge-treatment="clean">
        <g transform="translate(-13.005714285714289,-15.24821428571429) scale(2.562857142857143)">
          <path d="M8.97695 9.81822C7.68369 9.81822 7.53001 10.5467 7.61483 10.9109V25.3158L24.7324 27.2146L30.0002 22.5V15.0422L23.1876 8.26566L22.8596 8.02197L15.5002 9L12.4142 8.02197C12.2033 8.15625 11.951 8.32512 11.8094 8.46545C10.993 9.27463 10.3546 9.81822 8.97695 9.81822Z" fill="#8C5543"/>
          <path d="M13.6198 9.31063C13.035 9.08884 12.4462 8.80135 11.8037 8.47407C12.4581 7.81966 14.0595 6.21636 15.2299 5.03847C16.6928 3.5661 18.656 3.69821 19.9679 5.03847C20.2326 5.30884 20.5296 5.60931 20.8363 5.91774C18.5156 7.0625 16.3906 7.6875 13.6198 9.31063Z" fill="#CDC4D6"/>
          <path d="M13.1558 9.12228C14.1001 9.52955 15.0007 9.7862 16.0606 9.7862C17.6085 9.7862 18.8166 9.19163 19.4207 8.87073C20.0247 8.54982 21.0818 8.2006 21.9973 8.2006C22.7003 8.2006 23.0885 8.25855 23.2104 8.29102C22.8107 7.89374 22.362 7.44613 21.9279 7.00997C21.5508 6.63436 21.1458 6.22946 20.7593 5.84035C19.4543 4.68908 17.6172 4.64256 16.23 6.03871C15.2344 7.04072 13.9269 8.35058 13.1558 9.12228Z" fill="#F4F4F4"/>
          <path d="M5.96834 11.2402C5.07024 12.3299 2.95313 14.8594 2.00684 15.9879V22.5L16 27.8125L22.9724 25.3105L15.8325 18.1406C14.7667 17.0629 13.3627 16.2097 11.7162 16.2097C9.99483 16.2097 8.99195 14.7428 8.99195 13.0065C8.99195 10.9666 12.3886 10.1728 13.1604 9.12524C12.4433 8.81133 12.1057 8.64478 11.8209 8.46558C10.6252 9.68774 9.79822 9.78931 9.29321 9.78931C8.96166 9.78931 7.59646 9.61208 5.96834 11.2402Z" fill="#7D4533"/>
          <path d="M11.0125 23.0202C7.06082 21.6581 4.12549 21.9275 2 22.4664V29.9955H30V22.4609C26.8267 23.8679 23.4212 25.0261 20.0084 25.0261C16.5956 25.0261 14.9641 24.3824 11.0125 23.0202Z" fill="#00D26A"/>
        </g>
      </g>
      <text id="ITEM_4_HEAD" x="-52.0" y="-85.0" text-anchor="middle" font-weight="bold" font-size="28" fill="var(--accent-4)" data-bg-id="ITEM_4_BG" style="font-size: 31px; font-family: 'Segoe UI Variable Display', 'Aptos Display', 'Inter', 'Segoe UI', Helvetica, Arial, sans-serif; font-weight: 700; font-kerning: normal; font-feature-settings: &quot;kern&quot; 1, &quot;liga&quot; 1; letter-spacing:-0.4px;" data-final-font-size="31">
        <tspan x="-52.0" dy="38.02px">Shadow Contrast</tspan>
      </text>
      <rect id="ITEM_4_HEAD_FRAME" x="-324" y="-85" width="544" height="50" fill="none"/>
      <text id="ITEM_4_BODY" x="-52.0" y="-14.0" text-anchor="middle" font-size="22" fill="var(--primary-text)" opacity="0.88" data-bg-id="ITEM_4_BG" data-max-lines="5" style="font-size: 23px; font-family: 'Segoe UI Variable Text', 'Aptos', 'Inter', 'Segoe UI', Helvetica, Arial, sans-serif; font-weight: 400; font-kerning: normal; font-feature-settings: &quot;kern&quot; 1, &quot;liga&quot; 1;" data-final-font-size="23">
        <tspan x="-52.0" dy="42.37px">Creates overwhelming scale against dark landscapes</tspan>
      </text>
      <rect id="ITEM_4_BODY_FRAME" x="-324" y="-14" width="544" height="124" fill="none"/>
    </g>
    <!-- Row 3 - cards at y=670 -->
    <g transform="translate(480.0, 670.0)">
      <rect id="ITEM_5_ACCENT_BG" x="-400" y="-110" width="800" height="245" rx="24" fill="var(--accent-5)" fill-opacity="0.15"/>
      <rect id="ITEM_5_BG" x="-400" y="-110" width="800" height="245" rx="18" fill="var(--panel)" stroke="var(--accent-5)" filter="url(#svg6b4fd516-shadow)" stroke-width="3"/>
      <rect x="-388" y="-98" width="776" height="221" rx="16" fill="url(#svg6b4fd516-myth-card-sheen)" opacity="0.92"/>
      <circle id="ITEM_5_PAD" cx="-330" cy="-40" r="46" fill="var(--icon-pad-bg)" stroke="var(--accent-5)" stroke-width="2" stroke-opacity="0.72" opacity="1" data-badge-layer="pad"/>
      <circle id="ITEM_5_PAD_INNER" cx="-330" cy="-40" r="35.88" fill="var(--accent-5)" fill-opacity="0.12" stroke="none" data-badge-layer="tint"/>
      <circle cx="-330" cy="-40" r="34" fill="none" stroke="var(--accent-5)" stroke-width="3" stroke-dasharray="6 4" display="none" data-suppressed-decoration="redundant-badge-ring"/>
      <g id="ITEM_5_ICON" transform="translate(-358, -68)" data-icon-size="56" stroke-linecap="round" stroke-linejoin="round" data-badge-treatment="clean">
        <g transform="translate(-13.966785714285718,-13.005714285714289) scale(2.562857142857143)">
          <path d="M25.87 17.9C25.17 16.82 25.17 15.49 25.87 14.42C26.36 13.67 26.65 12.77 26.65 11.8C26.65 9.70005 25.02 7.87005 22.92 7.26005C21.97 6.98005 21.27 6.23005 20.94 5.30005C20.3 3.50005 18.47 1.99005 16.35 2.00005C14.32 2.01005 12.64 3.51005 11.92 5.26005C11.56 6.13005 10.82 6.84005 9.9 7.02005C7.63 7.48005 6 9.58005 6 11.74C6 12.71 6.29 13.6 6.78 14.36C7.48 15.44 7.48 16.77 6.78 17.84C6.29 18.59 6 19.49 6 20.46C6 22.62 7.5 24.7201 9.67 25.1901C10.55 25.3801 11.3 26.04 11.62 26.88C12.31 28.7 14.06 30 16.13 30C18.19 30 19.95 28.7 20.64 26.88C20.97 26.01 21.73 25.35 22.64 25.15C24.96 24.65 26.65 22.67 26.65 20.51C26.64 19.55 26.36 18.65 25.87 17.9Z" fill="#F9C23C"/>
          <path d="M21.8603 10.05C20.6379 7.24441 18.6122 5.41003 16.3201 5.41003C12.5866 5.41003 9.56006 10.2767 9.56006 16.28C9.56006 18.1786 9.86278 19.9636 10.3948 21.5168L18.4667 18.6608L21.8603 10.05Z" fill="#26EAFC"/>
          <path d="M16.32 27.15C20.05 27.15 23.08 22.28 23.08 16.28C23.08 13.96 22.63 11.81 21.86 10.05L10.4 21.51C11.55 24.87 13.77 27.15 16.32 27.15Z" fill="#B4F6FC"/>
        </g>
      </g>
      <text id="ITEM_5_HEAD" x="52.0" y="-85.0" text-anchor="middle" font-weight="bold" font-size="28" fill="var(--accent-5)" data-bg-id="ITEM_5_BG" style="font-size: 31px; font-family: 'Segoe UI Variable Display', 'Aptos Display', 'Inter', 'Segoe UI', Helvetica, Arial, sans-serif; font-weight: 700; font-kerning: normal; font-feature-settings: &quot;kern&quot; 1, &quot;liga&quot; 1; letter-spacing:-0.4px;" data-final-font-size="31">
        <tspan x="52.0" dy="38.02px">Reflective Surfaces</tspan>
      </text>
      <rect id="ITEM_5_HEAD_FRAME" x="-220" y="-85" width="544" height="50" fill="none"/>
      <text id="ITEM_5_BODY" x="52.0" y="-14.0" text-anchor="middle" font-size="22" fill="var(--primary-text)" opacity="0.88" data-bg-id="ITEM_5_BG" data-max-lines="5" style="font-size: 23px; font-family: 'Segoe UI Variable Text', 'Aptos', 'Inter', 'Segoe UI', Helvetica, Arial, sans-serif; font-weight: 400; font-kerning: normal; font-feature-settings: &quot;kern&quot; 1, &quot;liga&quot; 1;" data-final-font-size="23">
        <tspan x="52.0" dy="42.37px">Uses moving reflections to suggest energy</tspan>
      </text>
      <rect id="ITEM_5_BODY_FRAME" x="-220" y="-14" width="544" height="124" fill="none"/>
    </g>
  </g>
  <text id="SOURCE_NOTE" x="134.0" y="1058.0" fill="var(--muted-text)" opacity="1" style="font-family: var(--font-family); font-size: 20px;">Source: Catalog AFI|Catalog</text>
</svg>
