<?xml version='1.0' encoding='utf-8'?>
<svg xmlns="http://www.w3.org/2000/svg" width="1920" height="1080" viewBox="0 0 1920 1080" data-theme="dark" data-semantic-intent="risk_caution" data-relation-type="taxonomy" data-site-visual-identity="editorial-atlas">
  <style>
        @font-face {
            font-family: 'Inter';
            src: url('assets/fonts/Inter-Regular.ttf') format('truetype');
            font-weight: 400;
            font-style: normal;
            font-display: swap;
        }
        @font-face {
            font-family: 'Inter';
            src: url('assets/fonts/Inter-Bold.ttf') format('truetype');
            font-weight: 600;
            font-style: normal;
            font-display: swap;
        }
        @font-face {
            font-family: 'Inter';
            src: url('assets/fonts/Inter-Bold.ttf') format('truetype');
            font-weight: 800;
            font-style: normal;
            font-display: swap;
        }
        
:root {
    --background: #0f172a;
    --panel: #1e293b;
    --primary-text: #f1f5f9;
    --muted-text: #94a3b8;
    --inverse-text: #0f172a;
    --border: #334155;
    --shadow-color: #000000;
    --icon-pad-bg: #1e293b;
    --art-glow: #7dd3fc;
    --art-glow-opacity: 0.18;
    --art-sheen: #ffffff;
    --art-sheen-opacity: 0.18;
    --art-shadow: #000000;
    --art-shadow-opacity: 0.28;
    --art-muted-line: #64748b;
    --art-panel-tint: #1e293b;
    --semantic-risk: #f87171;
    --semantic-warning: #fb923c;
    --semantic-uncertain: #fbbf24;
    --semantic-evidence: #60a5fa;
    --semantic-claim: #c084fc;
    --semantic-positive: #4ade80;
    --semantic-outcome: #22d3ee;
    --font-family: 'Inter', 'Segoe UI', 'Kalam', Roboto, Helvetica, Arial, sans-serif;
    --radius-xl: 16px;
    --font-family-headline: 'Segoe UI Variable Display', 'Aptos Display', 'Inter', 'Segoe UI', Helvetica, Arial, sans-serif;
    --font-family-body: 'Segoe UI Variable Text', 'Aptos', 'Inter', 'Segoe UI', Helvetica, Arial, sans-serif;
    --font-heading: var(--font-family-headline);
    --font-body: var(--font-family-body);
    --font-size-h1: 64px;
    --font-size-h2: 42px;
    --font-size-h3: 29px;
    --font-size-body: 21px;
    --font-size-caption: 17px;
    --secondary-text: var(--muted-text);
    --panel-border: var(--border);
    --font-weight-normal: 400;
    --font-weight-medium: 500;
    --font-weight-semibold: 600;
    --font-weight-bold: 700;
    --spacing-gutter-pct: 0.07;
    --spacing-top-pct: 0.15;
    --spacing-bottom-pct: 0.07;
    --spacing-title-y-pct: 0.055;
    --accent-1: #67e8f9;
    --accent-2: #38bdf8;
    --accent-3: #60a5fa;
    --accent-4: #818cf8;
    --accent-5: #22d3ee;
    --accent-6: #fbbf24;
}
:root[data-theme="dark"] {
    --background: #0f172a;
    --panel: #1e293b;
    --primary-text: #f1f5f9;
    --muted-text: #94a3b8;
    --inverse-text: #0f172a;
    --border: #334155;
    --shadow-color: #000000;
    --icon-pad-bg: #1e293b;
    --art-glow: #7dd3fc;
    --art-glow-opacity: 0.18;
    --art-sheen: #ffffff;
    --art-sheen-opacity: 0.18;
    --art-shadow: #000000;
    --art-shadow-opacity: 0.28;
    --art-muted-line: #64748b;
    --art-panel-tint: #1e293b;
    --semantic-risk: #f87171;
    --semantic-warning: #fb923c;
    --semantic-uncertain: #fbbf24;
    --semantic-evidence: #60a5fa;
    --semantic-claim: #c084fc;
    --semantic-positive: #4ade80;
    --semantic-outcome: #22d3ee;
    --accent-1: #67e8f9;
    --accent-2: #38bdf8;
    --accent-3: #60a5fa;
    --accent-4: #818cf8;
    --accent-5: #22d3ee;
    --accent-6: #fbbf24;
}
:root[data-theme="light"] {
    --background: #f8fafc;
    --panel: #ffffff;
    --primary-text: #0f172a;
    --muted-text: #64748b;
    --inverse-text: #ffffff;
    --border: #e2e8f0;
    --shadow-color: #000000;
    --icon-pad-bg: #1e293b;
    --art-glow: #0891b2;
    --art-glow-opacity: 0.10;
    --art-sheen: #ffffff;
    --art-sheen-opacity: 0.34;
    --art-shadow: #0f172a;
    --art-shadow-opacity: 0.14;
    --art-muted-line: #94a3b8;
    --art-panel-tint: #f1f5f9;
    --semantic-risk: #b91c1c;
    --semantic-warning: #c2410c;
    --semantic-uncertain: #a16207;
    --semantic-evidence: #1d4ed8;
    --semantic-claim: #6d28d9;
    --semantic-positive: #15803d;
    --semantic-outcome: #0e7490;
    --accent-1: #0e7490;
    --accent-2: #0369a1;
    --accent-3: #1d4ed8;
    --accent-4: #4338ca;
    --accent-5: #0f766e;
    --accent-6: #b45309;
}</style>
  <rect x="0" y="0" width="1.92E+3" height="1.08E+3" fill="#252a34" stroke="none" id="programmatic_background"/>
  <line id="HEADER_DECOR" x1="960.0" x2="1080.0" y1="135.0" y2="135.0" stroke="var(--accent-1)" stroke-width="6" stroke-linecap="round"/>
  <defs>
    <pattern id="svgb742226c-napkin-hatch" patternUnits="userSpaceOnUse" width="12" height="12">
      <path d="M -3 12 L 12 -3 M 0 15 L 15 0" fill="none" stroke="var(--primary-text)" stroke-width="1" stroke-opacity="0.04"/>
    </pattern>
    <filter id="svgb742226c-soft-shadow" x="-30%" y="-30%" width="160%" height="160%">
      <feDropShadow dx="0" dy="4" stdDeviation="8" flood-color="#000000" flood-opacity="0.18"/>
    </filter>
    <radialGradient id="svgb742226c-universal-edge-vignette" cx="50%" cy="50%" r="72%">
      <stop offset="0%" stop-color="var(--background)" stop-opacity="0"/>
      <stop offset="72%" stop-color="var(--background)" stop-opacity="0.12"/>
      <stop offset="100%" stop-color="var(--primary-text)" stop-opacity="0.08"/>
    </radialGradient>
    <linearGradient id="svgb742226c-universal-surface-sheen" x1="0%" y1="0%" x2="100%" y2="100%">
      <stop offset="0%" stop-color="var(--art-sheen)" stop-opacity="var(--art-sheen-opacity)"/>
      <stop offset="46%" stop-color="var(--art-sheen)" stop-opacity="0.035"/>
      <stop offset="100%" stop-color="var(--art-panel-tint)" stop-opacity="0.14"/>
    </linearGradient>
    <radialGradient id="svgb742226c-universal-icon-aura" cx="50%" cy="42%" r="64%">
      <stop offset="0%" stop-color="var(--art-glow)" stop-opacity="var(--art-glow-opacity)"/>
      <stop offset="100%" stop-color="var(--background)" stop-opacity="0"/>
    </radialGradient>
    <linearGradient id="svgb742226c-tug-rope-sheen" x1="0%" y1="0%" x2="100%" y2="0%">
      <stop offset="0%" stop-color="var(--background)" stop-opacity="0"/>
      <stop offset="50%" stop-color="var(--inverse-text)" stop-opacity="0.16"/>
      <stop offset="100%" stop-color="var(--background)" stop-opacity="0"/>
    </linearGradient>
    <filter id="svgb742226c-text-glow" x="-20%" y="-20%" width="140%" height="140%">
      <feDropShadow dx="0" dy="0" stdDeviation="2" flood-color="#000000" flood-opacity="0.4"/>
    </filter>
    <filter id="svgb742226c-shadow" x="-30%" y="-30%" width="160%" height="160%">
      <feDropShadow dx="0" dy="2" stdDeviation="3" flood-color="#000000" flood-opacity="0.08"/>
      <feDropShadow dx="0" dy="6" stdDeviation="10" flood-color="#000000" flood-opacity="0.12"/>
    </filter>
    <marker id="svgb742226c-arrowhead" markerWidth="10" markerHeight="7" refX="9" refY="3.5" orient="auto" markerUnits="strokeWidth">
      <polygon points="0 0, 10 3.5, 0 7" fill="var(--muted-text)" opacity="0.6"/>
    </marker>
  </defs>
  <rect id="CANVAS_BG" width="100%" height="100%" fill="var(--background)"/>
  <rect width="100%" height="100%" fill="url(#svgb742226c-napkin-hatch)"/>
  <rect id="UNIVERSAL_EDGE_VIGNETTE" width="100%" height="100%" fill="url(#svgb742226c-universal-edge-vignette)" opacity="0.62"/>
  <text id="TITLE" x="960.0" y="59" text-anchor="middle" font-size="56" font-weight="800" fill="#f1f5f9" style="font-size: 69px; font-family: 'Segoe UI Variable Display', 'Aptos Display', 'Inter', 'Segoe UI', Helvetica, Arial, sans-serif; font-weight: 800; font-kerning: normal; font-feature-settings: &quot;kern&quot; 1, &quot;liga&quot; 1; letter-spacing:-1.2px;" data-final-font-size="69">
    <tspan x="960.0" dy="70.47px">Themes of Alien Reflection</tspan>
  </text>
  <rect id="TITLE_FRAME" x="134" y="59" width="1652" height="103" fill="none"/>
  <ellipse cx="960" cy="332" rx="214" ry="60" fill="var(--panel)" fill-opacity="0.50" opacity="0.34"/>
  <path d="M 182 320 Q 616 302 934 332" fill="none" stroke="var(--primary-text)" stroke-width="16" stroke-linecap="round" opacity="0.10"/>
  <path d="M 1738 320 Q 1304 302 986 332" fill="none" stroke="var(--primary-text)" stroke-width="16" stroke-linecap="round" opacity="0.10"/>
  <path d="M 220 320 Q 618 306 936 332" fill="none" stroke="var(--muted-text)" stroke-width="8" stroke-linecap="round" opacity="0.88"/>
  <path d="M 1700 320 Q 1302 306 984 332" fill="none" stroke="var(--muted-text)" stroke-width="8" stroke-linecap="round" opacity="0.88"/>
  <circle cx="960" cy="332" r="24" fill="var(--panel)" fill-opacity="0.94" stroke="var(--primary-text)" stroke-width="3"/>
  <path d="M 960 308 L 982 332 L 960 356 L 938 332 Z" fill="var(--primary-text)"/>
  <path d="M 960 356 L 960 666" fill="none" stroke="var(--primary-text)" stroke-width="12" stroke-linecap="round" opacity="0.10"/>
  <path d="M 960 356 L 960 666" fill="none" stroke="var(--muted-text)" stroke-width="6" stroke-linecap="round" opacity="0.78"/>
  <ellipse cx="960" cy="690" rx="106" ry="36" fill="var(--panel)" fill-opacity="0.46" opacity="0.3"/>
  <path d="M 542 690 Q 746 678 928 690" fill="none" stroke="var(--primary-text)" stroke-width="14" stroke-linecap="round" opacity="0.10"/>
  <path d="M 1378 690 Q 1174 678 992 690" fill="none" stroke="var(--primary-text)" stroke-width="14" stroke-linecap="round" opacity="0.10"/>
  <path d="M 564 690 Q 752 680 928 690" fill="none" stroke="var(--muted-text)" stroke-width="7" stroke-linecap="round" opacity="0.86"/>
  <path d="M 1356 690 Q 1168 680 992 690" fill="none" stroke="var(--muted-text)" stroke-width="7" stroke-linecap="round" opacity="0.86"/>
  <circle cx="960" cy="690" r="18" fill="var(--panel)" fill-opacity="0.94" stroke="var(--primary-text)" stroke-width="3"/>
  <path d="M 818 336 L 530 360" fill="none" stroke="var(--muted-text)" stroke-width="3" stroke-linecap="round" opacity="0.72"/>
  <circle cx="530" cy="360" r="6" fill="var(--accent-1)"/>
  <g transform="translate(410, 350)" filter="url(#svgb742226c-soft-shadow)">
    <path d="M 62 0 L 96 -30 L 146 -30 Q 156 -30 162 -18 L 174 0 Z" fill="var(--panel)" fill-opacity="0.95" stroke="var(--accent-1)" stroke-width="3"/>
    <rect id="ITEM_1_BG" x="-228" y="0" width="456" height="348" rx="24" fill="var(--panel)" fill-opacity="0.96" stroke="var(--accent-1)" stroke-width="3"/>
    <rect x="-184" y="14" width="344" height="8" rx="4" fill="var(--accent-1)" fill-opacity="0.42"/>
    <path d="M 76 28 L 184 28 L 160 322 L 84 322 Z" fill="var(--accent-1)" fill-opacity="0.07"/>
    <circle cx="0" cy="80" r="61" fill="url(#svgb742226c-universal-icon-aura)" opacity="0.82"/>
    <circle id="ITEM_1_PAD" cx="0" cy="80" r="44" fill="var(--icon-pad-bg)" stroke="var(--accent-1)" opacity="1" fill-opacity="0.9" stroke-width="2" stroke-opacity="0.72" data-badge-layer="pad"/>
    <circle id="ITEM_1_PAD_INNER" cx="0" cy="80" r="34.32" fill="var(--accent-1)" fill-opacity="0.12" stroke="none" data-badge-layer="tint"/>
    <circle cx="0" cy="80" r="34" fill="none" stroke="var(--accent-1)" stroke-width="2.5" stroke-dasharray="5 4" opacity="0.82" display="none" data-suppressed-decoration="redundant-badge-ring"/>
    <g id="ITEM_1_ICON" transform="translate(-33, 46)" data-icon-size="66" stroke-linecap="round" stroke-linejoin="round" data-badge-treatment="clean">
      <g transform="translate(-6.222857142857143,-6.222857142857143) scale(2.4514285714285715)">
        <path d="M5 20.88C5 20.96 5.01 21 5.03 21H7.97C7.99 21 8 20.96 8 20.88V17L7.5 15.5L8 14V11L7.5 9.5L8 8V5L6.5 4.5L5 5V8L5.5 9.5L5 11V14L5.5 15.5L5 17V20.88ZM12 20.88C12 20.96 12.01 21 12.03 21H14.97C14.99 21 15 20.96 15 20.88V17L14.5 15.5L15 14V11L14.5 9.5L15 8V5L13.5 4.5L12 5V8L12.5 9.5L12 11V14V17V20.88ZM17.866 30H30V13.13C30 12.5 29.4887 12 28.8672 12H19.1328C18.5012 12 18 12.51 18 13.13V17L17.866 17.2167V30Z" fill="#D3D3D3"/>
        <path d="M2.20988 20.91L9.45534 17.28C9.70519 17.16 9.995 17.34 9.995 17.61V20.4C9.995 20.68 10.2848 20.86 10.5347 20.73L18 17V30H15.9671L13.4949 28.4635L11.0227 30H8.93989L6.43853 28.4635L3.93717 30H2V21.23C2 21.1 2.07996 20.97 2.20988 20.91Z" fill="#9B9B9B"/>
        <path d="M20 14.5C20 14.2239 20.2239 14 20.5 14H21.5C21.7761 14 22 14.2239 22 14.5V15.5C22 15.7761 21.7761 16 21.5 16H20.5C20.2239 16 20 15.7761 20 15.5V14.5Z" fill="#83CBFF"/>
        <path d="M20 17.5C20 17.2239 20.2239 17 20.5 17H21.5C21.7761 17 22 17.2239 22 17.5V18.5C22 18.7761 21.7761 19 21.5 19H20.5C20.2239 19 20 18.7761 20 18.5V17.5Z" fill="#83CBFF"/>
        <path d="M20 20.5C20 20.2239 20.2239 20 20.5 20H21.5C21.7761 20 22 20.2239 22 20.5V21.5C22 21.7761 21.7761 22 21.5 22H20.5C20.2239 22 20 21.7761 20 21.5V20.5Z" fill="#83CBFF"/>
        <path d="M23 14.5C23 14.2239 23.2239 14 23.5 14H24.5C24.7761 14 25 14.2239 25 14.5V15.5C25 15.7761 24.7761 16 24.5 16H23.5C23.2239 16 23 15.7761 23 15.5V14.5Z" fill="#83CBFF"/>
        <path d="M23 17.5C23 17.2239 23.2239 17 23.5 17H24.5C24.7761 17 25 17.2239 25 17.5V18.5C25 18.7761 24.7761 19 24.5 19H23.5C23.2239 19 23 18.7761 23 18.5V17.5Z" fill="#83CBFF"/>
        <path d="M23 20.5C23 20.2239 23.2239 20 23.5 20H24.5C24.7761 20 25 20.2239 25 20.5V21.5C25 21.7761 24.7761 22 24.5 22H23.5C23.2239 22 23 21.7761 23 21.5V20.5Z" fill="#83CBFF"/>
        <path d="M26 14.5C26 14.2239 26.2239 14 26.5 14H27.5C27.7761 14 28 14.2239 28 14.5V15.5C28 15.7761 27.7761 16 27.5 16H26.5C26.2239 16 26 15.7761 26 15.5V14.5Z" fill="#83CBFF"/>
        <path d="M26 17.5C26 17.2239 26.2239 17 26.5 17H27.5C27.7761 17 28 17.2239 28 17.5V18.5C28 18.7761 27.7761 19 27.5 19H26.5C26.2239 19 26 18.7761 26 18.5V17.5Z" fill="#83CBFF"/>
        <path d="M26 20.5C26 20.2239 26.2239 20 26.5 20H27.5C27.7761 20 28 20.2239 28 20.5V21.5C28 21.7761 27.7761 22 27.5 22H26.5C26.2239 22 26 21.7761 26 21.5V20.5Z" fill="#83CBFF"/>
        <path d="M21 30H27V26.3628C27 26.1623 26.8294 26 26.6187 26H21.3813C21.1706 26 21 26.1623 21 26.3628V30ZM9 30H4V27.38C4 27.17 4.17033 27 4.38075 27H8.61925C8.82967 27 9 27.17 9 27.38V30ZM16 30H11V27.38C11 27.17 11.1703 27 11.3808 27H15.6192C15.8297 27 16 27.17 16 27.38V30Z" fill="#1C1C1C"/>
        <path d="M8 2.51C8 2.23 7.77001 2 7.49001 2H5.51001C5.23001 2 5 2.23 5 2.51V5H8V2.51ZM8 14H5V17H8V14ZM5 8H8V11H5V8ZM15 2.51C15 2.23 14.77 2 14.49 2H12.51C12.23 2 12 2.23 12 2.51V5H15V2.51ZM15 8H12V11H15V8ZM12 14H15V17H12V14Z" fill="#F8312F"/>
      </g>
    </g>
    <text id="ITEM_1_HEAD" x="0.0" y="138.0" text-anchor="middle" font-size="40" font-weight="800" fill="var(--accent-1)" data-bg-id="ITEM_1_BG" data-max-lines="3" data-min-font-size="14" fill-opacity="1.0" stroke="none" style="font-size: 31px; font-family: 'Segoe UI Variable Display', 'Aptos Display', 'Inter', 'Segoe UI', Helvetica, Arial, sans-serif; font-weight: 700; font-kerning: normal; font-feature-settings: &quot;kern&quot; 1, &quot;liga&quot; 1; letter-spacing:-0.4px;" data-final-font-size="31">
      <tspan x="0.0" dy="47.28px">Human Warning</tspan>
    </text>
    <rect id="ITEM_1_HEAD_FRAME" x="-194" y="138" width="388" height="68" fill="none"/>
    <text id="ITEM_1_BODY" x="0.0" y="202.0" text-anchor="middle" font-size="24" fill="var(--primary-text)" data-bg-id="ITEM_1_BG" data-max-lines="5" style="font-size: 23px; font-family: 'Segoe UI Variable Text', 'Aptos', 'Inter', 'Segoe UI', Helvetica, Arial, sans-serif; font-weight: 400; font-kerning: normal; font-feature-settings: &quot;kern&quot; 1, &quot;liga&quot; 1;" data-final-font-size="23">
      <tspan x="0.0" dy="35.64px">Visitors highlight human environmental</tspan>
      <tspan x="0.0" dy="26.45px">and technological risks</tspan>
    </text>
    <rect id="ITEM_1_BODY_FRAME" x="-214" y="202" width="428" height="122" fill="none"/>
  </g>
  <path d="M 960 356 L 960 342" fill="none" stroke="var(--muted-text)" stroke-width="3" stroke-linecap="round" opacity="0.72"/>
  <circle cx="960" cy="342" r="6" fill="var(--accent-2)"/>
  <g transform="translate(960, 332)" filter="url(#svgb742226c-soft-shadow)">
    <path d="M -46 0 L -16 -30 L 16 -30 L 46 0 Z" fill="var(--panel)" fill-opacity="0.95" stroke="var(--accent-2)" stroke-width="3"/>
    <rect id="ITEM_2_BG" x="-228" y="0" width="456" height="348" rx="24" fill="var(--panel)" fill-opacity="0.96" stroke="var(--accent-2)" stroke-width="3"/>
    <rect x="-160" y="14" width="320" height="8" rx="4" fill="var(--accent-2)" fill-opacity="0.42"/>
    <path d="M -70 28 L 70 28 L 104 320 L -104 320 Z" fill="var(--accent-2)" fill-opacity="0.05"/>
    <circle cx="0" cy="80" r="61" fill="url(#svgb742226c-universal-icon-aura)" opacity="0.82"/>
    <circle id="ITEM_2_PAD" cx="0" cy="80" r="44" fill="var(--icon-pad-bg)" stroke="var(--accent-2)" opacity="1" fill-opacity="0.9" stroke-width="2" stroke-opacity="0.72" data-badge-layer="pad"/>
    <circle id="ITEM_2_PAD_INNER" cx="0" cy="80" r="34.32" fill="var(--accent-2)" fill-opacity="0.12" stroke="none" data-badge-layer="tint"/>
    <circle cx="0" cy="80" r="34" fill="none" stroke="var(--accent-2)" stroke-width="2.5" stroke-dasharray="5 4" opacity="0.82" display="none" data-suppressed-decoration="redundant-badge-ring"/>
    <g id="ITEM_2_ICON" transform="translate(-33, 46)" data-icon-size="66" stroke-linecap="round" stroke-linejoin="round" data-badge-treatment="clean">
      <g transform="translate(-4.228474576271187,-4.228474576271187) scale(3.102372881355932)" vector-effect="non-scaling-stroke" stroke-width="2.50" stroke-linecap="round" stroke-linejoin="round" stroke-opacity="1.0">
        <rect width="14" height="8" x="5" y="2" rx="2" vector-effect="non-scaling-stroke" fill="none" stroke="#f1f5f9"/>
        <rect width="20" height="8" x="2" y="14" rx="2" vector-effect="non-scaling-stroke" fill="none" stroke="#f1f5f9"/>
        <path d="M6 18h2" vector-effect="non-scaling-stroke" fill="none" stroke="#f1f5f9"/>
        <path d="M12 18h6" vector-effect="non-scaling-stroke" fill="none" stroke="#f1f5f9"/>
      </g>
    </g>
    <text id="ITEM_2_HEAD" x="0.0" y="138.0" text-anchor="middle" font-size="40" font-weight="800" fill="var(--accent-2)" data-bg-id="ITEM_2_BG" data-max-lines="3" data-min-font-size="14" fill-opacity="1.0" stroke="none" style="font-size: 31px; font-family: 'Segoe UI Variable Display', 'Aptos Display', 'Inter', 'Segoe UI', Helvetica, Arial, sans-serif; font-weight: 700; font-kerning: normal; font-feature-settings: &quot;kern&quot; 1, &quot;liga&quot; 1; letter-spacing:-0.4px;" data-final-font-size="31">
      <tspan x="0.0" dy="47.28px">Assumption Challenge</tspan>
    </text>
    <rect id="ITEM_2_HEAD_FRAME" x="-194" y="138" width="388" height="68" fill="none"/>
    <text id="ITEM_2_BODY" x="0.0" y="202.0" text-anchor="middle" font-size="24" fill="var(--primary-text)" data-bg-id="ITEM_2_BG" data-max-lines="5" style="font-size: 23px; font-family: 'Segoe UI Variable Text', 'Aptos', 'Inter', 'Segoe UI', Helvetica, Arial, sans-serif; font-weight: 400; font-kerning: normal; font-feature-settings: &quot;kern&quot; 1, &quot;liga&quot; 1;" data-final-font-size="23">
      <tspan x="0.0" dy="35.64px">Stories question if intelligence must</tspan>
      <tspan x="0.0" dy="26.45px">mirror human traits</tspan>
    </text>
    <rect id="ITEM_2_BODY_FRAME" x="-214" y="202" width="428" height="122" fill="none"/>
  </g>
  <path d="M 1102 336 L 1390 360" fill="none" stroke="var(--muted-text)" stroke-width="3" stroke-linecap="round" opacity="0.72"/>
  <circle cx="1390" cy="360" r="6" fill="var(--accent-3)"/>
  <g transform="translate(1510, 350)" filter="url(#svgb742226c-soft-shadow)">
    <path d="M -62 0 L -96 -30 L -146 -30 Q -156 -30 -162 -18 L -174 0 Z" fill="var(--panel)" fill-opacity="0.95" stroke="var(--accent-3)" stroke-width="3"/>
    <rect id="ITEM_3_BG" x="-228" y="0" width="456" height="348" rx="24" fill="var(--panel)" fill-opacity="0.96" stroke="var(--accent-3)" stroke-width="3"/>
    <rect x="-160" y="14" width="344" height="8" rx="4" fill="var(--accent-3)" fill-opacity="0.42"/>
    <path d="M -76 28 L -184 28 L -160 322 L -84 322 Z" fill="var(--accent-3)" fill-opacity="0.07"/>
    <circle cx="0" cy="80" r="61" fill="url(#svgb742226c-universal-icon-aura)" opacity="0.82"/>
    <circle id="ITEM_3_PAD" cx="0" cy="80" r="44" fill="var(--icon-pad-bg)" stroke="var(--accent-3)" opacity="1" fill-opacity="0.9" stroke-width="2" stroke-opacity="0.72" data-badge-layer="pad"/>
    <circle id="ITEM_3_PAD_INNER" cx="0" cy="80" r="34.32" fill="var(--accent-3)" fill-opacity="0.12" stroke="none" data-badge-layer="tint"/>
    <circle cx="0" cy="80" r="34" fill="none" stroke="var(--accent-3)" stroke-width="2.5" stroke-dasharray="5 4" opacity="0.82" display="none" data-suppressed-decoration="redundant-badge-ring"/>
    <g id="ITEM_3_ICON" transform="translate(-33, 46)" data-icon-size="66" stroke-linecap="round" stroke-linejoin="round" data-badge-treatment="clean">
      <g transform="translate(-7.142142857142858,-6.222857142857143) scale(2.4514285714285715)">
        <path d="M25.87 17.9C25.17 16.82 25.17 15.49 25.87 14.42C26.36 13.67 26.65 12.77 26.65 11.8C26.65 9.70005 25.02 7.87005 22.92 7.26005C21.97 6.98005 21.27 6.23005 20.94 5.30005C20.3 3.50005 18.47 1.99005 16.35 2.00005C14.32 2.01005 12.64 3.51005 11.92 5.26005C11.56 6.13005 10.82 6.84005 9.9 7.02005C7.63 7.48005 6 9.58005 6 11.74C6 12.71 6.29 13.6 6.78 14.36C7.48 15.44 7.48 16.77 6.78 17.84C6.29 18.59 6 19.49 6 20.46C6 22.62 7.5 24.7201 9.67 25.1901C10.55 25.3801 11.3 26.04 11.62 26.88C12.31 28.7 14.06 30 16.13 30C18.19 30 19.95 28.7 20.64 26.88C20.97 26.01 21.73 25.35 22.64 25.15C24.96 24.65 26.65 22.67 26.65 20.51C26.64 19.55 26.36 18.65 25.87 17.9Z" fill="#F9C23C"/>
        <path d="M21.8603 10.05C20.6379 7.24441 18.6122 5.41003 16.3201 5.41003C12.5866 5.41003 9.56006 10.2767 9.56006 16.28C9.56006 18.1786 9.86278 19.9636 10.3948 21.5168L18.4667 18.6608L21.8603 10.05Z" fill="#26EAFC"/>
        <path d="M16.32 27.15C20.05 27.15 23.08 22.28 23.08 16.28C23.08 13.96 22.63 11.81 21.86 10.05L10.4 21.51C11.55 24.87 13.77 27.15 16.32 27.15Z" fill="#B4F6FC"/>
      </g>
    </g>
    <text id="ITEM_3_HEAD" x="0.0" y="138.0" text-anchor="middle" font-size="40" font-weight="800" fill="var(--accent-3)" data-bg-id="ITEM_3_BG" data-max-lines="3" data-min-font-size="14" fill-opacity="1.0" stroke="none" style="font-size: 31px; font-family: 'Segoe UI Variable Display', 'Aptos Display', 'Inter', 'Segoe UI', Helvetica, Arial, sans-serif; font-weight: 700; font-kerning: normal; font-feature-settings: &quot;kern&quot; 1, &quot;liga&quot; 1; letter-spacing:-0.4px;" data-final-font-size="31">
      <tspan x="0.0" dy="47.28px">Identity Transformation</tspan>
    </text>
    <rect id="ITEM_3_HEAD_FRAME" x="-194" y="138" width="388" height="68" fill="none"/>
    <text id="ITEM_3_BODY" x="0.0" y="202.0" text-anchor="middle" font-size="24" fill="var(--primary-text)" data-bg-id="ITEM_3_BG" data-max-lines="5" style="font-size: 23px; font-family: 'Segoe UI Variable Text', 'Aptos', 'Inter', 'Segoe UI', Helvetica, Arial, sans-serif; font-weight: 400; font-kerning: normal; font-feature-settings: &quot;kern&quot; 1, &quot;liga&quot; 1;" data-final-font-size="23">
      <tspan x="0.0" dy="35.64px">Encounters force humans to see</tspan>
      <tspan x="0.0" dy="26.45px">the universe differently</tspan>
    </text>
    <rect id="ITEM_3_BODY_FRAME" x="-214" y="202" width="428" height="122" fill="none"/>
  </g>
  <path d="M 930 690 L 810 696" fill="none" stroke="var(--muted-text)" stroke-width="3" stroke-linecap="round" opacity="0.72"/>
  <circle cx="810" cy="696" r="6" fill="var(--accent-4)"/>
  <g transform="translate(690, 700)" filter="url(#svgb742226c-soft-shadow)">
    <path d="M 62 0 L 96 -30 L 146 -30 Q 156 -30 162 -18 L 174 0 Z" fill="var(--panel)" fill-opacity="0.95" stroke="var(--accent-4)" stroke-width="3"/>
    <rect id="ITEM_4_BG" x="-228" y="0" width="456" height="348" rx="24" fill="var(--panel)" fill-opacity="0.96" stroke="var(--accent-4)" stroke-width="3"/>
    <rect x="-184" y="14" width="344" height="8" rx="4" fill="var(--accent-4)" fill-opacity="0.42"/>
    <path d="M 76 28 L 184 28 L 160 322 L 84 322 Z" fill="var(--accent-4)" fill-opacity="0.07"/>
    <circle cx="0" cy="80" r="61" fill="url(#svgb742226c-universal-icon-aura)" opacity="0.82"/>
    <circle id="ITEM_4_PAD" cx="0" cy="80" r="44" fill="var(--icon-pad-bg)" stroke="var(--accent-1)" opacity="1" fill-opacity="0.9" stroke-width="2" stroke-opacity="0.72" data-badge-layer="pad"/>
    <circle id="ITEM_4_PAD_INNER" cx="0" cy="80" r="34.32" fill="var(--accent-1)" fill-opacity="0.12" stroke="none" data-badge-layer="tint"/>
    <circle cx="0" cy="80" r="34" fill="none" stroke="var(--accent-4)" stroke-width="2.5" stroke-dasharray="5 4" opacity="0.82" display="none" data-suppressed-decoration="redundant-badge-ring"/>
    <g id="ITEM_4_ICON" transform="translate(-33, 46)" data-icon-size="66" stroke-linecap="round" stroke-linejoin="round" data-badge-treatment="clean">
      <g transform="translate(-4.228474576271187,-8.882033898305082) scale(3.102372881355932)" vector-effect="non-scaling-stroke" fill="#f1f5f9" fill-opacity="1.0" stroke="none">
        <path fill="#f1f5f9" d="M9 6v5H7V7H5v4H3V9H1v12h2v-2h2v2h2v-2h2v2h2v-2h2v2h2v-2h2v2h2v-2h2v2h2V9h-2v2h-2V7h-2v4h-2V6h-2v5h-2V6zm-6 7h2v4H3zm4 0h2v4H7zm4 0h2v4h-2zm4 0h2v4h-2zm4 0h2v4h-2z" vector-effect="non-scaling-stroke" stroke="none"/>
      </g>
    </g>
    <text id="ITEM_4_HEAD" x="0.0" y="138.0" text-anchor="middle" font-size="40" font-weight="800" fill="var(--accent-1)" data-bg-id="ITEM_4_BG" data-max-lines="3" data-min-font-size="14" fill-opacity="1.0" stroke="none" style="font-size: 31px; font-family: 'Segoe UI Variable Display', 'Aptos Display', 'Inter', 'Segoe UI', Helvetica, Arial, sans-serif; font-weight: 700; font-kerning: normal; font-feature-settings: &quot;kern&quot; 1, &quot;liga&quot; 1; letter-spacing:-0.4px;" data-final-font-size="31">
      <tspan x="0.0" dy="47.28px">Social Boundaries</tspan>
    </text>
    <rect id="ITEM_4_HEAD_FRAME" x="-194" y="138" width="388" height="68" fill="none"/>
    <text id="ITEM_4_BODY" x="0.0" y="202.0" text-anchor="middle" font-size="24" fill="var(--primary-text)" data-bg-id="ITEM_4_BG" data-max-lines="5" style="font-size: 23px; font-family: 'Segoe UI Variable Text', 'Aptos', 'Inter', 'Segoe UI', Helvetica, Arial, sans-serif; font-weight: 400; font-kerning: normal; font-feature-settings: &quot;kern&quot; 1, &quot;liga&quot; 1;" data-final-font-size="23">
      <tspan x="0.0" dy="35.64px">Aliens serve as mirrors for human</tspan>
      <tspan x="0.0" dy="26.45px">cultural limits</tspan>
    </text>
    <rect id="ITEM_4_BODY_FRAME" x="-214" y="202" width="428" height="122" fill="none"/>
  </g>
  <path d="M 990 690 L 1110 696" fill="none" stroke="var(--muted-text)" stroke-width="3" stroke-linecap="round" opacity="0.72"/>
  <circle cx="1110" cy="696" r="6" fill="var(--accent-5)"/>
  <g transform="translate(1230, 700)" filter="url(#svgb742226c-soft-shadow)">
    <path d="M -62 0 L -96 -30 L -146 -30 Q -156 -30 -162 -18 L -174 0 Z" fill="var(--panel)" fill-opacity="0.95" stroke="var(--accent-5)" stroke-width="3"/>
    <rect id="ITEM_5_BG" x="-228" y="0" width="456" height="348" rx="24" fill="var(--panel)" fill-opacity="0.96" stroke="var(--accent-5)" stroke-width="3"/>
    <rect x="-160" y="14" width="344" height="8" rx="4" fill="var(--accent-5)" fill-opacity="0.42"/>
    <path d="M -76 28 L -184 28 L -160 322 L -84 322 Z" fill="var(--accent-5)" fill-opacity="0.07"/>
    <circle cx="0" cy="80" r="61" fill="url(#svgb742226c-universal-icon-aura)" opacity="0.82"/>
    <circle id="ITEM_5_PAD" cx="0" cy="80" r="44" fill="var(--icon-pad-bg)" stroke="var(--accent-2)" opacity="1" fill-opacity="0.9" stroke-width="2" stroke-opacity="0.72" data-badge-layer="pad"/>
    <circle id="ITEM_5_PAD_INNER" cx="0" cy="80" r="34.32" fill="var(--accent-2)" fill-opacity="0.12" stroke="none" data-badge-layer="tint"/>
    <circle cx="0" cy="80" r="34" fill="none" stroke="var(--accent-5)" stroke-width="2.5" stroke-dasharray="5 4" opacity="0.82" display="none" data-suppressed-decoration="redundant-badge-ring"/>
    <g id="ITEM_5_ICON" transform="translate(-33, 46)" data-icon-size="66" stroke-linecap="round" stroke-linejoin="round" data-badge-treatment="clean">
      <g transform="translate(-6.179469026548673,-7.698053097345133) scale(2.429734513274336)">
        <path d="M5 27.99C5 28.75 5.61 29.36 6.37 29.36C7.13 29.36 7.74 28.75 7.74 27.99V26.62H5V27.99ZM24.15 27.99C24.15 28.75 24.76 29.36 25.52 29.36C26.27 29.36 26.89 28.75 26.89 27.99V26.62H24.15V27.99Z" fill="#212121"/>
        <path d="M27 5C27 5.55228 26.5523 6 26 6C25.7251 6 25.4761 5.88908 25.2954 5.70956L7.9667 9.12058L7.77356 8.1394L25.0336 4.74189C25.1474 4.3147 25.537 4 26 4C26.5523 4 27 4.44772 27 5Z" fill="#9B9B9B"/>
        <path d="M6.84005 11.85C7.96671 11.85 8.88005 10.9367 8.88005 9.81002C8.88005 8.68336 7.96671 7.77002 6.84005 7.77002C5.71338 7.77002 4.80005 8.68336 4.80005 9.81002C4.80005 10.9367 5.71338 11.85 6.84005 11.85Z" fill="#D3D3D3"/>
        <path d="M27.38 9.81006H4.63C3.18 9.81006 2 10.9901 2 12.4401V24.6901C2 26.1401 3.18 27.3201 4.63 27.3201H27.38C28.83 27.3201 30.01 26.1401 30.01 24.6901V12.4301C30 10.9801 28.83 9.81006 27.38 9.81006Z" fill="#9B9B9B"/>
        <path d="M26.32 12.76H18.45C17.79 12.76 17.25 13.3 17.25 13.96V18.79C17.25 19.45 17.79 19.99 18.45 19.99H26.32C26.98 19.99 27.52 19.45 27.52 18.79V13.96C27.52 13.3 26.98 12.76 26.32 12.76Z" fill="#83CBFF"/>
        <path d="M19.88 15.83C19.44 15.83 19.09 16.19 19.09 16.62V19.98H20.68V16.62C20.67 16.19 20.32 15.83 19.88 15.83Z" fill="#F8312F"/>
        <path d="M14.83 14.12C15.2 14.12 15.51 13.82 15.51 13.44C15.51 13.07 15.21 12.76 14.83 12.76H5.18C4.81 12.76 4.5 13.06 4.5 13.44C4.5 13.81 4.8 14.12 5.18 14.12H14.83ZM15.51 15.96C15.51 16.34 15.2 16.64 14.83 16.64H5.18C4.8 16.64 4.5 16.33 4.5 15.96C4.5 15.58 4.81 15.28 5.18 15.28H14.83C15.21 15.27 15.51 15.58 15.51 15.96ZM14.83 19.15C15.2 19.15 15.51 18.85 15.51 18.47C15.51 18.1 15.21 17.79 14.83 17.79H5.18C4.81 17.79 4.5 18.09 4.5 18.47C4.5 18.84 4.8 19.15 5.18 19.15H14.83ZM15.51 20.9901C15.51 21.3701 15.2 21.6701 14.83 21.6701H5.18C4.8 21.6701 4.5 21.3601 4.5 20.9901C4.5 20.6101 4.81 20.3101 5.18 20.3101H14.83C15.21 20.3 15.51 20.6101 15.51 20.9901ZM15.51 23.5001C15.51 23.8801 15.2 24.1801 14.83 24.1801H5.18C4.8 24.1801 4.5 23.8701 4.5 23.5001C4.5 23.1201 4.81 22.8201 5.18 22.8201H14.83C15.21 22.8201 15.51 23.1301 15.51 23.5001Z" fill="#212121"/>
        <path d="M21.04 22.9199C21.04 23.6103 20.4804 24.1699 19.79 24.1699C19.0997 24.1699 18.54 23.6103 18.54 22.9199C18.54 22.2296 19.0997 21.6699 19.79 21.6699C20.4804 21.6699 21.04 22.2296 21.04 22.9199ZM26.6201 22.9199C26.6201 23.6103 26.0605 24.1699 25.3701 24.1699C24.6798 24.1699 24.1201 23.6103 24.1201 22.9199C24.1201 22.2296 24.6798 21.6699 25.3701 21.6699C26.0605 21.6699 26.6201 22.2296 26.6201 22.9199Z" fill="#F4F4F4"/>
      </g>
    </g>
    <text id="ITEM_5_HEAD" x="0.0" y="138.0" text-anchor="middle" font-size="40" font-weight="800" fill="var(--accent-2)" data-bg-id="ITEM_5_BG" data-max-lines="3" data-min-font-size="14" fill-opacity="1.0" stroke="none" style="font-size: 31px; font-family: 'Segoe UI Variable Display', 'Aptos Display', 'Inter', 'Segoe UI', Helvetica, Arial, sans-serif; font-weight: 700; font-kerning: normal; font-feature-settings: &quot;kern&quot; 1, &quot;liga&quot; 1; letter-spacing:-0.4px;" data-final-font-size="31">
      <tspan x="0.0" dy="47.28px">Communication Barrier</tspan>
    </text>
    <rect id="ITEM_5_HEAD_FRAME" x="-194" y="138" width="388" height="68" fill="none"/>
    <text id="ITEM_5_BODY" x="0.0" y="202.0" text-anchor="middle" font-size="24" fill="var(--primary-text)" data-bg-id="ITEM_5_BG" data-max-lines="5" style="font-size: 23px; font-family: 'Segoe UI Variable Text', 'Aptos', 'Inter', 'Segoe UI', Helvetica, Arial, sans-serif; font-weight: 400; font-kerning: normal; font-feature-settings: &quot;kern&quot; 1, &quot;liga&quot; 1;" data-final-font-size="23">
      <tspan x="0.0" dy="35.64px">The difficulty of building shared meaning</tspan>
      <tspan x="0.0" dy="26.45px">across species</tspan>
    </text>
    <rect id="ITEM_5_BODY_FRAME" x="-214" y="202" width="428" height="122" fill="none"/>
  </g>
  <text id="SOURCE_NOTE" x="134.0" y="1058.0" fill="var(--muted-text)" opacity="1" style="font-family: var(--font-family); font-size: 20px;">Source: Academic Alien encounters | Science Fiction: A Very Short</text>
</svg>
