<?xml version='1.0' encoding='utf-8'?>
<svg xmlns="http://www.w3.org/2000/svg" width="1920" height="1080" viewBox="0 0 1920 1080" data-theme="light" data-semantic-intent="sequence" data-relation-type="sequence" data-site-visual-identity="editorial-atlas">
  <style>
        @font-face {
            font-family: 'Inter';
            src: url('assets/fonts/Inter-Regular.ttf') format('truetype');
            font-weight: 400;
            font-style: normal;
            font-display: swap;
        }
        @font-face {
            font-family: 'Inter';
            src: url('assets/fonts/Inter-Bold.ttf') format('truetype');
            font-weight: 600;
            font-style: normal;
            font-display: swap;
        }
        @font-face {
            font-family: 'Inter';
            src: url('assets/fonts/Inter-Bold.ttf') format('truetype');
            font-weight: 800;
            font-style: normal;
            font-display: swap;
        }
        
:root {
    --background: #f8fafc;
    --panel: #ffffff;
    --primary-text: #0f172a;
    --muted-text: #64748b;
    --inverse-text: #ffffff;
    --border: #e2e8f0;
    --shadow-color: #000000;
    --icon-pad-bg: #1e293b;
    --art-glow: #0891b2;
    --art-glow-opacity: 0.10;
    --art-sheen: #ffffff;
    --art-sheen-opacity: 0.34;
    --art-shadow: #0f172a;
    --art-shadow-opacity: 0.14;
    --art-muted-line: #94a3b8;
    --art-panel-tint: #f1f5f9;
    --semantic-risk: #b91c1c;
    --semantic-warning: #c2410c;
    --semantic-uncertain: #a16207;
    --semantic-evidence: #1d4ed8;
    --semantic-claim: #6d28d9;
    --semantic-positive: #15803d;
    --semantic-outcome: #0e7490;
    --font-family: 'Inter', 'Segoe UI', 'Kalam', Roboto, Helvetica, Arial, sans-serif;
    --radius-xl: 16px;
    --font-family-headline: 'Segoe UI Variable Display', 'Aptos Display', 'Inter', 'Segoe UI', Helvetica, Arial, sans-serif;
    --font-family-body: 'Segoe UI Variable Text', 'Aptos', 'Inter', 'Segoe UI', Helvetica, Arial, sans-serif;
    --font-heading: var(--font-family-headline);
    --font-body: var(--font-family-body);
    --font-size-h1: 64px;
    --font-size-h2: 42px;
    --font-size-h3: 29px;
    --font-size-body: 21px;
    --font-size-caption: 17px;
    --secondary-text: var(--muted-text);
    --panel-border: var(--border);
    --font-weight-normal: 400;
    --font-weight-medium: 500;
    --font-weight-semibold: 600;
    --font-weight-bold: 700;
    --spacing-gutter-pct: 0.07;
    --spacing-top-pct: 0.15;
    --spacing-bottom-pct: 0.07;
    --spacing-title-y-pct: 0.055;
    --accent-1: #0e7490;
    --accent-2: #0369a1;
    --accent-3: #1d4ed8;
    --accent-4: #4338ca;
    --accent-5: #0f766e;
    --accent-6: #b45309;
}
:root[data-theme="dark"] {
    --background: #0f172a;
    --panel: #1e293b;
    --primary-text: #f1f5f9;
    --muted-text: #94a3b8;
    --inverse-text: #0f172a;
    --border: #334155;
    --shadow-color: #000000;
    --icon-pad-bg: #1e293b;
    --art-glow: #7dd3fc;
    --art-glow-opacity: 0.18;
    --art-sheen: #ffffff;
    --art-sheen-opacity: 0.18;
    --art-shadow: #000000;
    --art-shadow-opacity: 0.28;
    --art-muted-line: #64748b;
    --art-panel-tint: #1e293b;
    --semantic-risk: #f87171;
    --semantic-warning: #fb923c;
    --semantic-uncertain: #fbbf24;
    --semantic-evidence: #60a5fa;
    --semantic-claim: #c084fc;
    --semantic-positive: #4ade80;
    --semantic-outcome: #22d3ee;
    --accent-1: #67e8f9;
    --accent-2: #38bdf8;
    --accent-3: #60a5fa;
    --accent-4: #818cf8;
    --accent-5: #22d3ee;
    --accent-6: #fbbf24;
}
:root[data-theme="light"] {
    --background: #f8fafc;
    --panel: #ffffff;
    --primary-text: #0f172a;
    --muted-text: #64748b;
    --inverse-text: #ffffff;
    --border: #e2e8f0;
    --shadow-color: #000000;
    --icon-pad-bg: #1e293b;
    --art-glow: #0891b2;
    --art-glow-opacity: 0.10;
    --art-sheen: #ffffff;
    --art-sheen-opacity: 0.34;
    --art-shadow: #0f172a;
    --art-shadow-opacity: 0.14;
    --art-muted-line: #94a3b8;
    --art-panel-tint: #f1f5f9;
    --semantic-risk: #b91c1c;
    --semantic-warning: #c2410c;
    --semantic-uncertain: #a16207;
    --semantic-evidence: #1d4ed8;
    --semantic-claim: #6d28d9;
    --semantic-positive: #15803d;
    --semantic-outcome: #0e7490;
    --accent-1: #0e7490;
    --accent-2: #0369a1;
    --accent-3: #1d4ed8;
    --accent-4: #4338ca;
    --accent-5: #0f766e;
    --accent-6: #b45309;
}</style>
  <rect x="0" y="0" width="1.92E+3" height="1.08E+3" fill="#f8fafc" stroke="none" id="programmatic_background"/>
  <line id="HEADER_DECOR" x1="960.0" x2="1080.0" y1="135.0" y2="135.0" stroke="var(--accent-1)" stroke-width="6" stroke-linecap="round"/>
  <defs>
    <pattern id="svgb18da345-napkin-hatch" patternUnits="userSpaceOnUse" width="12" height="12">
      <path d="M -3 12 L 12 -3 M 0 15 L 15 0" fill="none" stroke="var(--primary-text)" stroke-width="1" stroke-opacity="0.05"/>
    </pattern>
    <radialGradient id="svgb18da345-universal-edge-vignette" cx="50%" cy="50%" r="72%">
      <stop offset="0%" stop-color="var(--background)" stop-opacity="0"/>
      <stop offset="72%" stop-color="var(--background)" stop-opacity="0.12"/>
      <stop offset="100%" stop-color="var(--primary-text)" stop-opacity="0.08"/>
    </radialGradient>
    <linearGradient id="svgb18da345-universal-surface-sheen" x1="0%" y1="0%" x2="100%" y2="100%">
      <stop offset="0%" stop-color="var(--art-sheen)" stop-opacity="var(--art-sheen-opacity)"/>
      <stop offset="46%" stop-color="var(--art-sheen)" stop-opacity="0.035"/>
      <stop offset="100%" stop-color="var(--art-panel-tint)" stop-opacity="0.14"/>
    </linearGradient>
    <radialGradient id="svgb18da345-universal-icon-aura" cx="50%" cy="42%" r="64%">
      <stop offset="0%" stop-color="var(--art-glow)" stop-opacity="var(--art-glow-opacity)"/>
      <stop offset="100%" stop-color="var(--background)" stop-opacity="0"/>
    </radialGradient>
    <filter id="svgb18da345-text-glow" x="-20%" y="-20%" width="140%" height="140%">
      <feDropShadow dx="0" dy="0" stdDeviation="2" flood-color="#000000" flood-opacity="0.4"/>
    </filter>
    <filter id="svgb18da345-shadow" x="-30%" y="-30%" width="160%" height="160%">
      <feDropShadow dx="0" dy="2" stdDeviation="3" flood-color="#000000" flood-opacity="0.08"/>
      <feDropShadow dx="0" dy="6" stdDeviation="10" flood-color="#000000" flood-opacity="0.12"/>
    </filter>
    <marker id="svgb18da345-arrowhead" markerWidth="10" markerHeight="7" refX="9" refY="3.5" orient="auto" markerUnits="strokeWidth">
      <polygon points="0 0, 10 3.5, 0 7" fill="var(--muted-text)" opacity="0.6"/>
    </marker>
    <marker id="svgb18da345-PHX_SEQUENCE_DIRECTION_ARROW" markerWidth="18" markerHeight="18" refX="16" refY="9" orient="auto" markerUnits="userSpaceOnUse">
      <path d="M 0 0 L 18 9 L 0 18 Z" fill="var(--muted-text)" opacity="0.9"/>
    </marker>
  </defs>
  <rect width="100%" height="100%" fill="var(--background)" id="CANVAS_BG"/>
  <rect width="100%" height="100%" fill="url(#svgb18da345-napkin-hatch)"/>
  <rect id="UNIVERSAL_EDGE_VIGNETTE" width="100%" height="100%" fill="url(#svgb18da345-universal-edge-vignette)" opacity="0.62"/>
  <text id="TITLE" x="960.0" y="59" text-anchor="middle" font-size="63" font-weight="700" fill="#0f172a" style="font-size: 69px; font-family: 'Segoe UI Variable Display', 'Aptos Display', 'Inter', 'Segoe UI', Helvetica, Arial, sans-serif; font-weight: 800; font-kerning: normal; font-feature-settings: &quot;kern&quot; 1, &quot;liga&quot; 1; letter-spacing:-1.2px;" data-final-font-size="69">
    <tspan x="960.0" dy="70.47px">Xenomorph Biological Life Cycle</tspan>
  </text>
  <rect id="TITLE_FRAME" x="134" y="59" width="1652" height="103" fill="none"/>
  <g id="DIAGRAM_SCALER" transform="translate(50.6, 32.5) scale(0.95)">
    <line x1="120" y1="675" x2="1800" y2="675" stroke="var(--panel)" stroke-width="3" stroke-linecap="round" marker-end="url(#svgb18da345-PHX_SEQUENCE_DIRECTION_ARROW)" data-direction-cue="forward"/>
    <g transform="translate(345.0, 675.0)">
      <line x1="0" y1="0" x2="0" y2="-180" stroke="var(--accent-1)" stroke-width="2"/>
      <circle id="ITEM_1_NODE" cx="0" cy="-180" r="50" fill="var(--background)" stroke="var(--accent-1)" stroke-width="2" stroke-opacity="0.58" data-badge-layer="outline"/>
      <g transform="translate(0.0, 45.0)">
        <rect x="-150" y="-15" width="300" height="165" rx="12" fill="var(--panel)" id="ITEM_1_BG" stroke="var(--accent-1)" stroke-width="2"/>
        <text id="ITEM_1_HEAD" text-anchor="middle" font-weight="bold" font-size="27" fill="var(--accent-1)" x="0.0" y="0.0" data-bg-id="ITEM_1_BG" fill-opacity="1.0" style="font-size: 31px; font-family: 'Segoe UI Variable Display', 'Aptos Display', 'Inter', 'Segoe UI', Helvetica, Arial, sans-serif; font-weight: 700; font-kerning: normal; font-feature-settings: &quot;kern&quot; 1, &quot;liga&quot; 1; letter-spacing:-0.4px;" data-final-font-size="31">
          <tspan x="0.0" dy="34.02px">Egg Stage</tspan>
        </text>
        <rect id="ITEM_1_HEAD_FRAME" x="-135" y="0" width="270" height="51" fill="none"/>
        <text id="ITEM_1_BODY" text-anchor="middle" font-size="19.5" fill="var(--primary-text)" x="0.0" y="60.0" data-bg-id="ITEM_1_BG" style="font-size: 23px; font-family: 'Segoe UI Variable Text', 'Aptos', 'Inter', 'Segoe UI', Helvetica, Arial, sans-serif; font-weight: 400; font-kerning: normal; font-feature-settings: &quot;kern&quot; 1, &quot;liga&quot; 1;" data-final-font-size="23">
          <tspan x="0.0" dy="31.82px">Initial dormant phase</tspan>
          <tspan x="0.0" dy="26.45px">of the reproductive cycle</tspan>
        </text>
        <rect id="ITEM_1_BODY_FRAME" x="-152" y="60" width="304" height="120" fill="none" data-side-overflow-fix="38.0|38.0"/>
      </g>
      <circle id="ITEM_1_PAD" cx="0" cy="-180" r="50" fill="var(--icon-pad-bg)" stroke="var(--accent-1)" opacity="1" fill-opacity="0.9" stroke-width="2" stroke-opacity="0.72" data-badge-layer="pad"/>
      <circle id="ITEM_1_PAD_INNER" cx="0" cy="-180" r="39.00" fill="var(--accent-1)" fill-opacity="0.12" stroke="none" data-badge-layer="tint"/>
      <circle cx="0" cy="-180" r="40" fill="none" stroke="var(--accent-1)" stroke-width="3" stroke-dasharray="6 4" display="none" data-suppressed-decoration="redundant-badge-ring"/>
      <g id="ITEM_1_ICON" transform="translate(-30.0, -210.0)" data-icon-size="60" stroke-linecap="round" stroke-linejoin="round" data-badge-treatment="clean">
        <g transform="translate(-15.616071428571427,-14.571428571428571) scale(2.7857142857142856)">
          <path d="M16.3312 2C13.7612 2 11.3512 3.28 9.91117 5.4L9.78117 5.59C6.91117 9.82 5.61117 14.92 6.10117 20L6.18117 20.8C6.68117 26.01 11.0612 29.98 16.2912 29.98C21.5412 29.98 25.9212 25.99 26.4012 20.76L26.4912 19.83C26.9712 14.71 25.6312 9.58 22.7112 5.35C21.2612 3.26 18.8812 2 16.3312 2Z" fill="#F3AD61"/>
        </g>
      </g>
    </g>
    <g transform="translate(750.0, 675.0)">
      <line x1="0" y1="0" x2="0" y2="-300" stroke="var(--accent-2)" stroke-width="2"/>
      <circle id="ITEM_2_NODE" cx="0" cy="-300" r="50" fill="var(--background)" stroke="var(--accent-2)" stroke-width="2" stroke-opacity="0.58" data-badge-layer="outline"/>
      <g transform="translate(0.0, 45.0)">
        <rect x="-150" y="-15" width="300" height="165" rx="12" fill="var(--panel)" id="ITEM_2_BG" stroke="var(--accent-2)" stroke-width="2"/>
        <text id="ITEM_2_HEAD" text-anchor="middle" font-weight="bold" font-size="27" fill="var(--accent-2)" x="0.0" y="0.0" data-bg-id="ITEM_2_BG" fill-opacity="1.0" style="font-size: 26px; font-family: 'Segoe UI Variable Display', 'Aptos Display', 'Inter', 'Segoe UI', Helvetica, Arial, sans-serif; font-weight: 700; font-kerning: normal; font-feature-settings: &quot;kern&quot; 1, &quot;liga&quot; 1; letter-spacing:-0.4px;" data-final-font-size="26">
          <tspan x="0.0" dy="31.35px">Facehugger Attachment</tspan>
        </text>
        <rect id="ITEM_2_HEAD_FRAME" x="-135" y="0" width="270" height="51" fill="none"/>
        <text id="ITEM_2_BODY" text-anchor="middle" font-size="19.5" fill="var(--primary-text)" x="-0.5" y="60.0" data-bg-id="ITEM_2_BG" style="font-size: 23px; font-family: 'Segoe UI Variable Text', 'Aptos', 'Inter', 'Segoe UI', Helvetica, Arial, sans-serif; font-weight: 400; font-kerning: normal; font-feature-settings: &quot;kern&quot; 1, &quot;liga&quot; 1;" data-final-font-size="23">
          <tspan x="-0.5" dy="31.82px">Parasitic organism attaches</tspan>
          <tspan x="-0.5" dy="26.45px">to a human host</tspan>
        </text>
        <rect id="ITEM_2_BODY_FRAME" x="-153" y="60" width="305" height="120" fill="none" data-side-overflow-fix="37.0|38.0"/>
      </g>
      <circle id="ITEM_2_PAD" cx="0" cy="-300" r="50" fill="var(--icon-pad-bg)" stroke="var(--accent-2)" opacity="1" fill-opacity="0.9" stroke-width="2" stroke-opacity="0.72" data-badge-layer="pad"/>
      <circle id="ITEM_2_PAD_INNER" cx="0" cy="-300" r="39.00" fill="var(--accent-2)" fill-opacity="0.12" stroke="none" data-badge-layer="tint"/>
      <circle cx="0" cy="-300" r="40" fill="none" stroke="var(--accent-2)" stroke-width="3" stroke-dasharray="6 4" display="none" data-suppressed-decoration="redundant-badge-ring"/>
      <g id="ITEM_2_ICON" transform="translate(-30.0, -330.0)" data-icon-size="60" stroke-linecap="round" stroke-linejoin="round" data-badge-treatment="clean">
        <g transform="translate(-13.789473684210527,-13.789473684210527) scale(2.736842105263158)" vector-effect="non-scaling-stroke" fill="#f1f5f9" fill-opacity="1.0" stroke="none">
          <path fill="#f1f5f9" d="m28.1 18.9l-15-15c-2.5-2.6-6.6-2.6-9.2-.1s-2.6 6.7 0 9.2l.1.1L6.8 16l1.4-1.4l-2.9-2.9c-1.7-1.7-1.7-4.6 0-6.3s4.6-1.8 6.3-.1l.1.1l14.9 14.9c1.8 1.7 1.8 4.6.1 6.3c-1.7 1.8-4.6 1.8-6.3.1l-.1-.1l-7.4-7.4c-1-1-.9-2.6 0-3.5c1-.9 2.5-.9 3.5 0l4.1 4.1l1.4-1.4l-4.2-4.2c-1.8-1.7-4.6-1.6-6.3.2c-1.6 1.7-1.6 4.4 0 6.2l7.5 7.5c2.5 2.6 6.6 2.6 9.2.1s2.6-6.7 0-9.3c0 .1 0 0 0 0" vector-effect="non-scaling-stroke" stroke="none"/>
        </g>
      </g>
    </g>
    <g transform="translate(1155.0, 675.0)">
      <line x1="0" y1="0" x2="0" y2="-240" stroke="var(--accent-3)" stroke-width="2"/>
      <circle id="ITEM_3_NODE" cx="0" cy="-240" r="50" fill="var(--background)" stroke="var(--accent-3)" stroke-width="2" stroke-opacity="0.58" data-badge-layer="outline"/>
      <g transform="translate(0.0, 45.0)">
        <rect x="-150" y="-15" width="300" height="165" rx="12" fill="var(--panel)" id="ITEM_3_BG" stroke="var(--accent-3)" stroke-width="2"/>
        <text id="ITEM_3_HEAD" text-anchor="middle" font-weight="bold" font-size="27" fill="var(--accent-3)" x="0.0" y="0.0" data-bg-id="ITEM_3_BG" fill-opacity="1.0" style="font-size: 25px; font-family: 'Segoe UI Variable Display', 'Aptos Display', 'Inter', 'Segoe UI', Helvetica, Arial, sans-serif; font-weight: 700; font-kerning: normal; font-feature-settings: &quot;kern&quot; 1, &quot;liga&quot; 1; letter-spacing:-0.4px;" data-final-font-size="25">
          <tspan x="0.0" dy="31.12px">Chestburster Emergence</tspan>
        </text>
        <rect id="ITEM_3_HEAD_FRAME" x="-135" y="0" width="270" height="51" fill="none"/>
        <text id="ITEM_3_BODY" text-anchor="middle" font-size="19.5" fill="var(--primary-text)" x="-0.5" y="60.0" data-bg-id="ITEM_3_BG" style="font-size: 23px; font-family: 'Segoe UI Variable Text', 'Aptos', 'Inter', 'Segoe UI', Helvetica, Arial, sans-serif; font-weight: 400; font-kerning: normal; font-feature-settings: &quot;kern&quot; 1, &quot;liga&quot; 1;" data-final-font-size="23">
          <tspan x="-0.5" dy="31.82px">Larval form breaks out</tspan>
          <tspan x="-0.5" dy="26.45px">of the host</tspan>
        </text>
        <rect id="ITEM_3_BODY_FRAME" x="-153" y="60" width="305" height="120" fill="none" data-side-overflow-fix="37.0|38.0"/>
      </g>
      <circle id="ITEM_3_PAD" cx="0" cy="-240" r="50" fill="var(--icon-pad-bg)" stroke="var(--accent-3)" opacity="1" fill-opacity="0.9" stroke-width="2" stroke-opacity="0.72" data-badge-layer="pad"/>
      <circle id="ITEM_3_PAD_INNER" cx="0" cy="-240" r="39.00" fill="var(--accent-3)" fill-opacity="0.12" stroke="none" data-badge-layer="tint"/>
      <circle cx="0" cy="-240" r="40" fill="none" stroke="var(--accent-3)" stroke-width="3" stroke-dasharray="6 4" display="none" data-suppressed-decoration="redundant-badge-ring"/>
      <g id="ITEM_3_ICON" transform="translate(-30.0, -270.0)" data-icon-size="60" stroke-linecap="round" stroke-linejoin="round" data-badge-treatment="clean">
        <g transform="translate(-12.25,-11.600000000000001) scale(0.1625)" vector-effect="non-scaling-stroke" fill="#f1f5f9" fill-opacity="1.0" stroke="none">
          <path fill="#f1f5f9" d="M248.5 135.7c19.6 32.3 23.9 68.6 17.7 102.5c15.1 2.7 27.5 13.6 39.9 27.6c2.7 3.1 5.5 6.4 8.3 9.8c10.6-11.3 17.7-28.2 20.2-47.2c2.8-21.8-.7-45.4-10-63.1c-.3-.4-.7-.9-1-1.3a22.65 43.28 6.281 0 1-26.1 32.2a22.65 43.28 6.281 0 1-17.5-45.9a22.65 43.28 6.281 0 1 2.2-11.6c-8-1.9-17.3-2.9-28.1-3zm-20.5 1.5c-5.2.6-10 1.5-14.3 2.6a37.86 20.25 64.9 0 1 2.1 3.9a37.86 20.25 64.9 0 1-.9 43.9a37.86 20.25 64.9 0 1-34.4-23.9a37.86 20.25 64.9 0 1-2.1-4.7c-6.3 6.5-10.9 14.1-14.7 22.7c21.7 14.6 33.3 33.9 38.5 53.9c2.3 8.5 3.5 17.1 4.2 25.6c1.2-1.5 2.5-2.9 3.8-4.3c10.3-11.1 21.8-17.6 37.8-19.2c7-33.8 2.3-69.4-20-100.5M157.2 199c-1.6 4.9-3.1 10-4.7 15.1a25.71 14.31 34.53 0 1 12.6 26.1a25.71 14.31 34.53 0 1-22.4 1.1c-1.5 3.5-3.2 6.9-5.1 10.3c15.2 6.9 24.5 18.6 29.1 31.8c2.3 6.6 3.8 13.5 4.7 20.4c6.8-7.8 12.5-14.8 17.6-21.1c0-14.8-.7-29.4-4.2-42.5c-4.1-15.8-11.7-29.6-27.6-41.2m326 22.1c-13.4 17.1-18.8 39.2-21.3 59.5c.1.1.3.1.5.2c5.8 2.4 11.5 5 16.8 8c2.4-20.5 7.1-42.5 18.2-56.7zm-130.7 8.6c0 .4-.1.7-.1 1.1c-3 22.6-11.7 44.4-26.7 59.1c8 10.3 16.6 21.7 26.4 33.6c1.2 1.5 4.3 3.6 8.7 5.8c18.2-16.4 27.5-33.5 28.2-51.9q-4.2-1.95-7.8-4.5a14.31 25.71 27.97 0 1-19.3 8a14.31 25.71 27.97 0 1-.6-29.4a14.31 25.71 27.97 0 1 .5-.9l-1.8-3.3c-2.8-5.6-5.3-11.5-7.5-17.6M242 256c-7.9 1.5-12.8 5.5-19.9 13.2c-1.4 1.5-2.9 3.2-4.4 5a20.74 15.03 67.92 0 0 .2.4a20.74 15.03 67.92 0 0 22.5 6.5A20.74 15.03 67.92 0 0 242 256m30.9 4.7a15.58 20.74 40.18 0 0-6.6 25a15.58 20.74 40.18 0 0 23.9 1.6a15.58 20.74 40.18 0 0 5-5.1c-1.3-1.5-2.6-3.1-3.9-4.5c-6.7-7.7-12.8-13.3-18.4-17m-145.3 5.8c-.2.2-.4.5-.6.7a25.71 14.31 62.03 0 1-2.5 25.3a25.71 14.31 62.03 0 1-19.4-8.2c-1.2.4-2.5.8-3.8 1.2c6.2 11.2 8.8 23.2 9.3 34.1c.2 6-.1 11.8-.8 17.1c6.4-.9 12.6-2.1 18.2-3.5c14-3.5 25-9.1 26.8-11c.1-.1.1-.2.2-.2c-1-12.2-2.2-23.7-5.3-32.7c-3.8-10.8-9.1-18.7-22.1-22.8m279 16.2c-2.1 19.3-11.6 37.2-27 53.3c.5.1.9.2 1.4.3c11.9 2.8 25.9 4.7 40 5.4c10.3-17 15.5-35.7 13-52c-1.3-.3-2.7-.7-4-1.1a10.65 21.91 5.821 0 1-10.8 10.5a10.65 21.91 5.821 0 1-8.3-15.4c-1.5-.4-2.9-.7-4.3-1M81.97 288c-4.53.2-9.08.2-13.55.2a25.89 16.75 75.16 0 1-11.93 20.9a25.89 16.75 75.16 0 1-20.99-18.5c-3.11.9-5.69 2.1-7.62 3.6c-4.52 3.6-7.62 9-6.95 22.8c.38 7.8 5.04 12.5 15.86 16.6c10.81 4.2 26.75 6 43.35 5.7c3.69-.1 7.41-.3 11.12-.5c1.02-5.7 1.65-12 1.38-18.5c-.46-11-3.12-22.1-10.67-32.3m370.63 7.8c.6 15.6-3.8 31.4-11.1 46c13.9-.5 26.7-2.3 35.7-5.2c5.6-1.9 9.7-4.2 11.7-6.1c2.1-1.9 2.3-2.7 2.2-4.5c-.3-4.9-3.2-9.6-9.3-14.7c-6-5-15-9.8-24.9-13.8c-1.4-.6-2.9-1.1-4.3-1.7m-259.6 9c-6 7.2-12.8 15.1-21 23.9a20.77 16.07 52.56 0 0 4 4.4a20.77 16.07 52.56 0 0 24.7.2a20.77 16.07 52.56 0 0-6-27.1a20.77 16.07 52.56 0 0-1.7-1.4m125.5 6.9a14.85 20.66 27.26 0 0-3.2 26.7a14.85 20.66 27.26 0 0 22.4-2.5c-.3-.3-.6-.7-.9-1c-6.7-8.2-12.6-15.8-18.3-23.2m-171.7 34.5c-4.8 1.7-10.1 3.1-15.8 4.5c-3.1.8-6.4 1.5-9.8 2.1a20.74 13.19 72.3 0 0 2.8 6.9a20.74 13.19 72.3 0 0 19.9 8.2a20.74 13.19 72.3 0 0 2.9-21.7m-103.96 8.2a13.25 20.94 0 0 0 0 .2a13.25 20.94 0 0 0 13.25 20.9a13.25 20.94 0 0 0 13.12-18.2c-9.16-.2-18.08-1.1-26.37-2.9m435.16.3c-8.3 2.4-17.7 3.8-27.7 4.6a20.48 14.24 70.89 0 0 3.2 5.7a20.48 14.24 70.89 0 0 21.1 3.9a20.48 14.24 70.89 0 0 3.4-14.2m-96.6.4a20.76 15.54 83.84 0 0 1.2 7.4a20.76 15.54 83.84 0 0 20.4 12.7a20.76 15.54 83.84 0 0 9.4-15.9c-10.7-.8-21.3-2.2-31-4.2" vector-effect="non-scaling-stroke" stroke="none"/>
        </g>
      </g>
    </g>
    <g transform="translate(1560.0, 675.0)">
      <line x1="0" y1="0" x2="0" y2="-180" stroke="var(--accent-4)" stroke-width="2"/>
      <circle id="ITEM_4_NODE" cx="0" cy="-180" r="50" fill="var(--background)" stroke="var(--semantic-outcome)" stroke-width="2" stroke-opacity="0.58" data-badge-layer="outline"/>
      <g transform="translate(0.0, 45.0)">
        <rect x="-150" y="-15" width="300" height="165" rx="12" fill="var(--panel)" id="ITEM_4_BG" stroke="var(--accent-4)" stroke-width="2"/>
        <text id="ITEM_4_HEAD" text-anchor="middle" font-weight="bold" font-size="27" fill="var(--semantic-outcome)" x="0.0" y="0.0" data-bg-id="ITEM_4_BG" fill-opacity="1.0" style="font-size: 31px; font-family: 'Segoe UI Variable Display', 'Aptos Display', 'Inter', 'Segoe UI', Helvetica, Arial, sans-serif; font-weight: 700; font-kerning: normal; font-feature-settings: &quot;kern&quot; 1, &quot;liga&quot; 1; letter-spacing:-0.4px;" data-final-font-size="31">
          <tspan x="0.0" dy="34.02px">Adult Xenomorph</tspan>
        </text>
        <rect id="ITEM_4_HEAD_FRAME" x="-135" y="0" width="270" height="51" fill="none"/>
        <text id="ITEM_4_BODY" text-anchor="middle" font-size="19.5" fill="var(--primary-text)" x="0.0" y="60.0" data-bg-id="ITEM_4_BG" style="font-size: 23px; font-family: 'Segoe UI Variable Text', 'Aptos', 'Inter', 'Segoe UI', Helvetica, Arial, sans-serif; font-weight: 400; font-kerning: normal; font-feature-settings: &quot;kern&quot; 1, &quot;liga&quot; 1;" data-final-font-size="23">
          <tspan x="0.0" dy="31.82px">Final predatory form</tspan>
          <tspan x="0.0" dy="26.45px">reaches full maturity</tspan>
        </text>
        <rect id="ITEM_4_BODY_FRAME" x="-152" y="60" width="304" height="120" fill="none" data-side-overflow-fix="38.0|38.0"/>
      </g>
      <circle id="ITEM_4_PAD" cx="0" cy="-180" r="50" fill="var(--icon-pad-bg)" stroke="var(--semantic-outcome)" opacity="1" fill-opacity="0.9" stroke-width="2" stroke-opacity="0.72" data-badge-layer="pad"/>
      <circle id="ITEM_4_PAD_INNER" cx="0" cy="-180" r="39.00" fill="var(--semantic-outcome)" fill-opacity="0.12" stroke="none" data-badge-layer="tint"/>
      <circle cx="0" cy="-180" r="40" fill="none" stroke="var(--accent-4)" stroke-width="3" stroke-dasharray="6 4" display="none" data-suppressed-decoration="redundant-badge-ring"/>
      <g id="ITEM_4_ICON" transform="translate(-30.0, -210.0)" data-icon-size="60" stroke-linecap="round" stroke-linejoin="round" data-badge-treatment="clean">
        <g transform="translate(-16.799999999999997,-16.8) scale(1.95)" vector-effect="non-scaling-stroke" fill="#f1f5f9" fill-opacity="1.0" stroke="none">
          <path d="M23 14a2 2 0 1 1-4 0a2 2 0 0 1 4 0m4 2a2 2 0 1 0 0-4a2 2 0 0 0 0 4" vector-effect="non-scaling-stroke" fill="#f1f5f9" stroke="none"/>
          <path fill-rule="evenodd" d="M16.615 17.348c0 2.035 1.385 2.487 1.847 2.487s.615 1.356.615 2.26c0 .776 1.921.887 3.923.902V24.5h-6.5c-2.892 0-4.268 2.146-4.882 3.923a11.7 11.7 0 0 0-.541 2.447a12 12 0 0 0-.077 1.1V32a1 1 0 0 0 2 0v-.05l.008-.18c.007-.16.023-.391.056-.671a9.7 9.7 0 0 1 .444-2.022c.51-1.474 1.384-2.577 2.992-2.577H23v1.209c-.834.047-1.65.156-2.365.33c-.5.121-.98.282-1.392.495c-.401.206-.82.502-1.091.936a1 1 0 0 0 1.696 1.06s.015-.023.066-.065s.13-.095.244-.153a4.4 4.4 0 0 1 .95-.33a11.3 11.3 0 0 1 1.892-.27v1.997c-.834.047-1.65.156-2.365.33c-.5.121-.98.282-1.392.495c-.401.206-.82.502-1.091.936a1 1 0 0 0 1.696 1.06s.015-.023.066-.065s.13-.095.244-.153a4.4 4.4 0 0 1 .95-.33a11.3 11.3 0 0 1 1.892-.27V36h-4c-1.108 0-1.939.527-2.513 1.24c-.549.68-.876 1.538-1.08 2.32C15 41.122 15 42.723 15 42.996V43a1 1 0 1 0 2 0c0-.241.002-1.63.343-2.935c.17-.656.406-1.204.701-1.57c.27-.335.564-.495.956-.495h10c.392 0 .686.16.956.495c.295.366.53.914.701 1.57c.34 1.305.343 2.694.343 2.935a1 1 0 1 0 2 0v-.004c0-.273 0-1.874-.407-3.436c-.204-.782-.531-1.64-1.08-2.32C30.939 36.527 30.108 36 29 36h-4v-2.287c.692.044 1.344.136 1.892.27c.403.097.722.212.95.33q.168.087.244.152c.05.042.066.065.066.065a1 1 0 0 0 1.696-1.06c-.271-.434-.69-.73-1.09-.936a6.4 6.4 0 0 0-1.393-.495a13.4 13.4 0 0 0-2.365-.33v-1.996c.692.044 1.344.136 1.892.27c.403.097.722.212.95.33q.168.087.244.152c.05.042.066.065.066.065a1 1 0 0 0 1.696-1.06c-.271-.434-.69-.73-1.09-.936a6.4 6.4 0 0 0-1.393-.495a13.4 13.4 0 0 0-2.365-.33V26.5h6.5c1.608 0 2.482 1.104 2.992 2.577a9.7 9.7 0 0 1 .444 2.022a10 10 0 0 1 .064.893v.009A1 1 0 0 0 37 32h-1c1 0 1-.002 1-.002v-.028l-.001-.051v-.015l-.009-.233c-.01-.196-.029-.472-.067-.801a11.7 11.7 0 0 0-.54-2.447c-.615-1.776-1.99-3.923-4.883-3.923H25v-1.503c2.002-.015 3.923-.126 3.923-.901c0-.905.577-2.261.616-2.261c.038 0 1.846-.453 1.846-2.487c0-.805.252-1.186.558-1.646C32.41 15 33 14.112 33 11.243c0-9.657-18-9.657-18 0c0 2.87.59 3.757 1.057 4.46c.306.46.558.84.558 1.645m2.08.498l-.01-.021c-.023-.054-.07-.198-.07-.477c0-1.484-.657-2.43-.968-2.877q-.078-.112-.12-.181c-.174-.292-.527-.931-.527-3.047c0-1.701.756-2.933 1.976-3.806C20.256 6.522 22.074 6 24 6s3.745.522 5.024 1.437C30.244 8.31 31 9.542 31 11.243c0 2.116-.353 2.755-.526 3.047q-.043.07-.121.18c-.31.447-.968 1.394-.968 2.878c0 .2-.042.293-.06.327a.4.4 0 0 1-.103.12a.7.7 0 0 1-.16.096l-.006.003a2 2 0 0 0-1.042.644a2 2 0 0 0-.301.461a5 5 0 0 0-.13.286a10 10 0 0 0-.517 1.619c-.795.093-1.882.096-3.066.096c-1.146 0-2.201-.003-2.99-.087a8 8 0 0 0-.111-.703a4 4 0 0 0-.403-1.128c-.171-.306-.722-1.13-1.802-1.236" clip-rule="evenodd" vector-effect="non-scaling-stroke" fill="#f1f5f9" stroke="none"/>
        </g>
      </g>
    </g>
    <line id="PHX_SEQUENCE_MIDROUTE_ARROW_1" x1="932.0" y1="675.0" x2="988.0" y2="675.0" stroke="var(--muted-text)" opacity="0.92" stroke-width="5" stroke-linecap="round" marker-end="url(#svgb18da345-PHX_SEQUENCE_DIRECTION_ARROW)" data-direction-cue="forward"/>
  </g>
  <text id="SOURCE_NOTE" x="134.0" y="1058.0" fill="var(--muted-text)" opacity="1" style="font-family: var(--font-family); font-size: 20px;">Source: How H.R. Giger Invented Sci-Fi's Most Terrifying Monster</text>
</svg>
