<?xml version='1.0' encoding='utf-8'?>
<svg xmlns="http://www.w3.org/2000/svg" width="1920" height="1080" viewBox="0 0 1920 1080" data-theme="light" data-semantic-intent="sequence" data-relation-type="sequence" data-site-visual-identity="editorial-atlas">
  <style>
        @font-face {
            font-family: 'Inter';
            src: url('assets/fonts/Inter-Regular.ttf') format('truetype');
            font-weight: 400;
            font-style: normal;
            font-display: swap;
        }
        @font-face {
            font-family: 'Inter';
            src: url('assets/fonts/Inter-Bold.ttf') format('truetype');
            font-weight: 600;
            font-style: normal;
            font-display: swap;
        }
        @font-face {
            font-family: 'Inter';
            src: url('assets/fonts/Inter-Bold.ttf') format('truetype');
            font-weight: 800;
            font-style: normal;
            font-display: swap;
        }
        
:root {
    --background: #f8fafc;
    --panel: #ffffff;
    --primary-text: #0f172a;
    --muted-text: #64748b;
    --inverse-text: #ffffff;
    --border: #e2e8f0;
    --shadow-color: #000000;
    --icon-pad-bg: #1e293b;
    --art-glow: #0891b2;
    --art-glow-opacity: 0.10;
    --art-sheen: #ffffff;
    --art-sheen-opacity: 0.34;
    --art-shadow: #0f172a;
    --art-shadow-opacity: 0.14;
    --art-muted-line: #94a3b8;
    --art-panel-tint: #f1f5f9;
    --semantic-risk: #b91c1c;
    --semantic-warning: #c2410c;
    --semantic-uncertain: #a16207;
    --semantic-evidence: #1d4ed8;
    --semantic-claim: #6d28d9;
    --semantic-positive: #15803d;
    --semantic-outcome: #0e7490;
    --font-family: 'Inter', 'Segoe UI', 'Kalam', Roboto, Helvetica, Arial, sans-serif;
    --radius-xl: 16px;
    --font-family-headline: 'Segoe UI Variable Display', 'Aptos Display', 'Inter', 'Segoe UI', Helvetica, Arial, sans-serif;
    --font-family-body: 'Segoe UI Variable Text', 'Aptos', 'Inter', 'Segoe UI', Helvetica, Arial, sans-serif;
    --font-heading: var(--font-family-headline);
    --font-body: var(--font-family-body);
    --font-size-h1: 64px;
    --font-size-h2: 42px;
    --font-size-h3: 29px;
    --font-size-body: 21px;
    --font-size-caption: 17px;
    --secondary-text: var(--muted-text);
    --panel-border: var(--border);
    --font-weight-normal: 400;
    --font-weight-medium: 500;
    --font-weight-semibold: 600;
    --font-weight-bold: 700;
    --spacing-gutter-pct: 0.07;
    --spacing-top-pct: 0.15;
    --spacing-bottom-pct: 0.07;
    --spacing-title-y-pct: 0.055;
    --accent-1: #0e7490;
    --accent-2: #0369a1;
    --accent-3: #1d4ed8;
    --accent-4: #4338ca;
    --accent-5: #0f766e;
    --accent-6: #b45309;
}
:root[data-theme="dark"] {
    --background: #0f172a;
    --panel: #1e293b;
    --primary-text: #f1f5f9;
    --muted-text: #94a3b8;
    --inverse-text: #0f172a;
    --border: #334155;
    --shadow-color: #000000;
    --icon-pad-bg: #1e293b;
    --art-glow: #7dd3fc;
    --art-glow-opacity: 0.18;
    --art-sheen: #ffffff;
    --art-sheen-opacity: 0.18;
    --art-shadow: #000000;
    --art-shadow-opacity: 0.28;
    --art-muted-line: #64748b;
    --art-panel-tint: #1e293b;
    --semantic-risk: #f87171;
    --semantic-warning: #fb923c;
    --semantic-uncertain: #fbbf24;
    --semantic-evidence: #60a5fa;
    --semantic-claim: #c084fc;
    --semantic-positive: #4ade80;
    --semantic-outcome: #22d3ee;
    --accent-1: #67e8f9;
    --accent-2: #38bdf8;
    --accent-3: #60a5fa;
    --accent-4: #818cf8;
    --accent-5: #22d3ee;
    --accent-6: #fbbf24;
}
:root[data-theme="light"] {
    --background: #f8fafc;
    --panel: #ffffff;
    --primary-text: #0f172a;
    --muted-text: #64748b;
    --inverse-text: #ffffff;
    --border: #e2e8f0;
    --shadow-color: #000000;
    --icon-pad-bg: #1e293b;
    --art-glow: #0891b2;
    --art-glow-opacity: 0.10;
    --art-sheen: #ffffff;
    --art-sheen-opacity: 0.34;
    --art-shadow: #0f172a;
    --art-shadow-opacity: 0.14;
    --art-muted-line: #94a3b8;
    --art-panel-tint: #f1f5f9;
    --semantic-risk: #b91c1c;
    --semantic-warning: #c2410c;
    --semantic-uncertain: #a16207;
    --semantic-evidence: #1d4ed8;
    --semantic-claim: #6d28d9;
    --semantic-positive: #15803d;
    --semantic-outcome: #0e7490;
    --accent-1: #0e7490;
    --accent-2: #0369a1;
    --accent-3: #1d4ed8;
    --accent-4: #4338ca;
    --accent-5: #0f766e;
    --accent-6: #b45309;
}</style>
  <rect x="0" y="0" width="1.92E+3" height="1.08E+3" fill="#252a34" stroke="none" id="programmatic_background"/>
  <line id="HEADER_DECOR" x1="960.0" x2="1080.0" y1="135.0" y2="135.0" stroke="var(--accent-1)" stroke-width="6" stroke-linecap="round"/>
  <defs>
    <pattern id="svg0f80cc3f-napkin-hatch" patternUnits="userSpaceOnUse" width="12" height="12">
      <path d="M -3 12 L 12 -3 M 0 15 L 15 0" fill="none" stroke="var(--primary-text)" stroke-width="1" stroke-opacity="0.05"/>
    </pattern>
    <radialGradient id="svg0f80cc3f-universal-edge-vignette" cx="50%" cy="50%" r="72%">
      <stop offset="0%" stop-color="var(--background)" stop-opacity="0"/>
      <stop offset="72%" stop-color="var(--background)" stop-opacity="0.12"/>
      <stop offset="100%" stop-color="var(--primary-text)" stop-opacity="0.08"/>
    </radialGradient>
    <linearGradient id="svg0f80cc3f-universal-surface-sheen" x1="0%" y1="0%" x2="100%" y2="100%">
      <stop offset="0%" stop-color="var(--art-sheen)" stop-opacity="var(--art-sheen-opacity)"/>
      <stop offset="46%" stop-color="var(--art-sheen)" stop-opacity="0.035"/>
      <stop offset="100%" stop-color="var(--art-panel-tint)" stop-opacity="0.14"/>
    </linearGradient>
    <radialGradient id="svg0f80cc3f-universal-icon-aura" cx="50%" cy="42%" r="64%">
      <stop offset="0%" stop-color="var(--art-glow)" stop-opacity="var(--art-glow-opacity)"/>
      <stop offset="100%" stop-color="var(--background)" stop-opacity="0"/>
    </radialGradient>
    <filter id="svg0f80cc3f-text-glow" x="-20%" y="-20%" width="140%" height="140%">
      <feDropShadow dx="0" dy="0" stdDeviation="2" flood-color="#000000" flood-opacity="0.4"/>
    </filter>
    <filter id="svg0f80cc3f-shadow" x="-30%" y="-30%" width="160%" height="160%">
      <feDropShadow dx="0" dy="2" stdDeviation="3" flood-color="#000000" flood-opacity="0.08"/>
      <feDropShadow dx="0" dy="6" stdDeviation="10" flood-color="#000000" flood-opacity="0.12"/>
    </filter>
    <marker id="svg0f80cc3f-arrowhead" markerWidth="10" markerHeight="7" refX="9" refY="3.5" orient="auto" markerUnits="strokeWidth">
      <polygon points="0 0, 10 3.5, 0 7" fill="var(--muted-text)" opacity="0.6"/>
    </marker>
    <marker id="svg0f80cc3f-PHX_SEQUENCE_DIRECTION_ARROW" markerWidth="18" markerHeight="18" refX="16" refY="9" orient="auto" markerUnits="userSpaceOnUse">
      <path d="M 0 0 L 18 9 L 0 18 Z" fill="var(--muted-text)" opacity="0.9"/>
    </marker>
  </defs>
  <rect width="100%" height="100%" fill="var(--background)" id="CANVAS_BG"/>
  <rect width="100%" height="100%" fill="url(#svg0f80cc3f-napkin-hatch)"/>
  <rect id="UNIVERSAL_EDGE_VIGNETTE" width="100%" height="100%" fill="url(#svg0f80cc3f-universal-edge-vignette)" opacity="0.62"/>
  <text id="TITLE" x="960.0" y="59" text-anchor="middle" font-size="63" font-weight="700" fill="#0f172a" style="font-size: 69px; font-family: 'Segoe UI Variable Display', 'Aptos Display', 'Inter', 'Segoe UI', Helvetica, Arial, sans-serif; font-weight: 800; font-kerning: normal; font-feature-settings: &quot;kern&quot; 1, &quot;liga&quot; 1; letter-spacing:-1.2px;" data-final-font-size="69">
    <tspan x="960.0" dy="70.47px">Klaatu's Diplomatic Arrival Key Stages</tspan>
  </text>
  <rect id="TITLE_FRAME" x="134" y="59" width="1652" height="103" fill="none"/>
  <g id="DIAGRAM_SCALER" transform="translate(50.6, 32.5) scale(0.95)">
    <line x1="120" y1="675" x2="1800" y2="675" stroke="var(--panel)" stroke-width="3" stroke-linecap="round" marker-end="url(#svg0f80cc3f-PHX_SEQUENCE_DIRECTION_ARROW)" data-direction-cue="forward"/>
    <g transform="translate(345.0, 675.0)">
      <line x1="0" y1="0" x2="0" y2="-180" stroke="var(--accent-1)" stroke-width="2"/>
      <circle id="ITEM_1_NODE" cx="0" cy="-180" r="50" fill="var(--background)" stroke="var(--accent-1)" stroke-width="2" stroke-opacity="0.58" data-badge-layer="outline"/>
      <g transform="translate(0.0, 45.0)">
        <rect x="-150" y="-15" width="300" height="165" rx="12" fill="var(--panel)" id="ITEM_1_BG" stroke="var(--accent-1)" stroke-width="2"/>
        <text id="ITEM_1_HEAD" text-anchor="middle" font-weight="bold" font-size="27" fill="var(--accent-1)" x="0.0" y="0.0" data-bg-id="ITEM_1_BG" fill-opacity="1.0" style="font-size: 30px; font-family: 'Segoe UI Variable Display', 'Aptos Display', 'Inter', 'Segoe UI', Helvetica, Arial, sans-serif; font-weight: 700; font-kerning: normal; font-feature-settings: &quot;kern&quot; 1, &quot;liga&quot; 1; letter-spacing:-0.4px;" data-final-font-size="30">
          <tspan x="0.0" dy="33.75px">Spacecraft Landing</tspan>
        </text>
        <rect id="ITEM_1_HEAD_FRAME" x="-135" y="0" width="270" height="51" fill="none"/>
        <text id="ITEM_1_BODY" text-anchor="middle" font-size="19.5" fill="var(--primary-text)" x="0.0" y="60.0" data-bg-id="ITEM_1_BG" style="font-size: 23px; font-family: 'Segoe UI Variable Text', 'Aptos', 'Inter', 'Segoe UI', Helvetica, Arial, sans-serif; font-weight: 400; font-kerning: normal; font-feature-settings: &quot;kern&quot; 1, &quot;liga&quot; 1;" data-final-font-size="23">
          <tspan x="0.0" dy="31.82px">Unidentified craft arrives</tspan>
          <tspan x="0.0" dy="26.45px">and lands in Washington D.C</tspan>
        </text>
        <rect id="ITEM_1_BODY_FRAME" x="-152" y="60" width="304" height="120" fill="none" data-side-overflow-fix="38.0|38.0"/>
      </g>
      <circle id="ITEM_1_PAD" cx="0" cy="-180" r="50" fill="var(--icon-pad-bg)" stroke="var(--accent-1)" opacity="1" fill-opacity="0.9" stroke-width="2" stroke-opacity="0.72" data-badge-layer="pad"/>
      <circle id="ITEM_1_PAD_INNER" cx="0" cy="-180" r="39.00" fill="var(--accent-1)" fill-opacity="0.12" stroke="none" data-badge-layer="tint"/>
      <circle cx="0" cy="-180" r="40" fill="none" stroke="var(--accent-1)" stroke-width="3" stroke-dasharray="6 4" display="none" data-suppressed-decoration="redundant-badge-ring"/>
      <g id="ITEM_1_ICON" transform="translate(-30.0, -210.0)" data-icon-size="60" stroke-linecap="round" stroke-linejoin="round" data-badge-treatment="clean">
        <g transform="translate(-13.789473684210527,-13.789473684210526) scale(0.17105263157894737)" vector-effect="non-scaling-stroke" fill="#f1f5f9" fill-opacity="1.0" stroke="none">
          <path fill="#f1f5f9" d="m318 123.645l-61.5 35.7l-61.76-35.7l61.76-35.7zm93.68 54.19l-61.76 35.7l61.76 35.7l61.5-35.7zm-294.39 80.64l61.76 35.7l61.5-35.7l-61.5-35.7zm139.52-80.57l-61.76 35.7l61.76 35.7l61.5-35.7zM31 298.365l62 35.69v-71l-62-35.65v71zm373-26l-62 35.69v70.94l62-35.66zm-225.11-139.4l-61.76 35.7l61.76 35.7l61.5-35.7zM109 343.305l62 35.69v-70.94l-62-35.69v71zm225.41-120.45l-61.76 35.7l61.76 35.7l61.5-35.7zM249 353.055l-62-35.7v71l62 35.7zm77-35.67l-61 35.67v70.94l61-35.66zm8.07-184.5l-61.76 35.7l61.76 35.7l61.5-35.7zm-232.6 44.95l-61.77 35.7l61.76 35.7l61.5-35.7zM481 227.565l-61 35.66v70.94l61-35.66zm-286.11 75.93l61.76 35.7l61.5-35.7l-61.5-35.7z" vector-effect="non-scaling-stroke" stroke="none"/>
        </g>
      </g>
    </g>
    <g transform="translate(750.0, 675.0)">
      <line x1="0" y1="0" x2="0" y2="-300" stroke="var(--accent-2)" stroke-width="2"/>
      <circle id="ITEM_2_NODE" cx="0" cy="-300" r="50" fill="var(--background)" stroke="var(--accent-2)" stroke-width="2" stroke-opacity="0.58" data-badge-layer="outline"/>
      <g transform="translate(0.0, 45.0)">
        <rect x="-150" y="-15" width="300" height="165" rx="12" fill="var(--panel)" id="ITEM_2_BG" stroke="var(--accent-2)" stroke-width="2"/>
        <text id="ITEM_2_HEAD" text-anchor="middle" font-weight="bold" font-size="27" fill="var(--accent-2)" x="0.0" y="0.0" data-bg-id="ITEM_2_BG" fill-opacity="1.0" style="font-size: 31px; font-family: 'Segoe UI Variable Display', 'Aptos Display', 'Inter', 'Segoe UI', Helvetica, Arial, sans-serif; font-weight: 700; font-kerning: normal; font-feature-settings: &quot;kern&quot; 1, &quot;liga&quot; 1; letter-spacing:-0.4px;" data-final-font-size="31">
          <tspan x="0.0" dy="34.02px">Message Delivery</tspan>
        </text>
        <rect id="ITEM_2_HEAD_FRAME" x="-135" y="0" width="270" height="51" fill="none"/>
        <text id="ITEM_2_BODY" text-anchor="middle" font-size="19.5" fill="var(--primary-text)" x="-0.5" y="60.0" data-bg-id="ITEM_2_BG" style="font-size: 23px; font-family: 'Segoe UI Variable Text', 'Aptos', 'Inter', 'Segoe UI', Helvetica, Arial, sans-serif; font-weight: 400; font-kerning: normal; font-feature-settings: &quot;kern&quot; 1, &quot;liga&quot; 1;" data-final-font-size="23">
          <tspan x="-0.5" dy="31.82px">Klaatu refuses to speak</tspan>
          <tspan x="-0.5" dy="26.45px">only to one government</tspan>
        </text>
        <rect id="ITEM_2_BODY_FRAME" x="-153" y="60" width="305" height="120" fill="none" data-side-overflow-fix="37.0|38.0"/>
      </g>
      <circle id="ITEM_2_PAD" cx="0" cy="-300" r="50" fill="var(--icon-pad-bg)" stroke="var(--accent-2)" opacity="1" fill-opacity="0.9" stroke-width="2" stroke-opacity="0.72" data-badge-layer="pad"/>
      <circle id="ITEM_2_PAD_INNER" cx="0" cy="-300" r="39.00" fill="var(--accent-2)" fill-opacity="0.12" stroke="none" data-badge-layer="tint"/>
      <circle cx="0" cy="-300" r="40" fill="none" stroke="var(--accent-2)" stroke-width="3" stroke-dasharray="6 4" display="none" data-suppressed-decoration="redundant-badge-ring"/>
      <g id="ITEM_2_ICON" transform="translate(-30.0, -330.0)" data-icon-size="60" stroke-linecap="round" stroke-linejoin="round" data-badge-treatment="clean">
        <g transform="translate(-14.571428571428571,-15.964285714285712) scale(2.7857142857142856)">
          <path d="M22.5247 17.94C26.6502 17.94 29.9947 14.5956 29.9947 10.47C29.9947 6.34443 26.6502 3 22.5247 3C18.3991 3 15.0547 6.34443 15.0547 10.47C15.0547 14.5956 18.3991 17.94 22.5247 17.94Z" fill="#533566"/>
          <path d="M2.64445 29.2101C1.81445 28.3301 1.78446 26.9601 2.56446 26.0401L15.1045 11.3401L21.2145 17.8201L5.80445 29.4801C4.84445 30.2101 3.47445 30.0901 2.64445 29.2101Z" fill="#9B9B9B"/>
          <path d="M18.9958 4.00515L28.9358 14.5552C29.5958 15.2552 29.5658 16.3552 28.8658 17.0051C28.1658 17.6651 27.0758 17.6352 26.4158 16.9352L16.4758 6.38515C15.8158 5.68515 15.8458 4.59517 16.5458 3.93517C17.2458 3.27517 18.3358 3.30515 18.9958 4.00515ZM15.4146 18.5302C15.4146 19.342 14.7565 20.0002 13.9446 20.0002C13.1328 20.0002 12.4746 19.342 12.4746 18.5302C12.4746 17.7183 13.1328 17.0602 13.9446 17.0602C14.7565 17.0602 15.4146 17.7183 15.4146 18.5302Z" fill="#BEBEBE"/>
        </g>
      </g>
    </g>
    <g transform="translate(1155.0, 675.0)">
      <line x1="0" y1="0" x2="0" y2="-240" stroke="var(--accent-3)" stroke-width="2"/>
      <circle id="ITEM_3_NODE" cx="0" cy="-240" r="50" fill="var(--background)" stroke="var(--accent-3)" stroke-width="2" stroke-opacity="0.58" data-badge-layer="outline"/>
      <g transform="translate(0.0, 45.0)">
        <rect x="-150" y="-15" width="300" height="165" rx="12" fill="var(--panel)" id="ITEM_3_BG" stroke="var(--accent-3)" stroke-width="2"/>
        <text id="ITEM_3_HEAD" text-anchor="middle" font-weight="bold" font-size="27" fill="var(--accent-3)" x="0.0" y="0.0" data-bg-id="ITEM_3_BG" fill-opacity="1.0" style="font-size: 31px; font-family: 'Segoe UI Variable Display', 'Aptos Display', 'Inter', 'Segoe UI', Helvetica, Arial, sans-serif; font-weight: 700; font-kerning: normal; font-feature-settings: &quot;kern&quot; 1, &quot;liga&quot; 1; letter-spacing:-0.4px;" data-final-font-size="31">
          <tspan x="0.0" dy="34.02px">Human Interaction</tspan>
        </text>
        <rect id="ITEM_3_HEAD_FRAME" x="-135" y="0" width="270" height="51" fill="none"/>
        <text id="ITEM_3_BODY" text-anchor="middle" font-size="19.5" fill="var(--primary-text)" x="-0.5" y="60.0" data-bg-id="ITEM_3_BG" style="font-size: 23px; font-family: 'Segoe UI Variable Text', 'Aptos', 'Inter', 'Segoe UI', Helvetica, Arial, sans-serif; font-weight: 400; font-kerning: normal; font-feature-settings: &quot;kern&quot; 1, &quot;liga&quot; 1;" data-final-font-size="23">
          <tspan x="-0.5" dy="31.82px">Visitor lives among people</tspan>
          <tspan x="-0.5" dy="26.45px">under the name Carpenter</tspan>
        </text>
        <rect id="ITEM_3_BODY_FRAME" x="-153" y="60" width="305" height="120" fill="none" data-side-overflow-fix="37.0|38.0"/>
      </g>
      <circle id="ITEM_3_PAD" cx="0" cy="-240" r="50" fill="var(--icon-pad-bg)" stroke="var(--accent-3)" opacity="1" fill-opacity="0.9" stroke-width="2" stroke-opacity="0.72" data-badge-layer="pad"/>
      <circle id="ITEM_3_PAD_INNER" cx="0" cy="-240" r="39.00" fill="var(--accent-3)" fill-opacity="0.12" stroke="none" data-badge-layer="tint"/>
      <circle cx="0" cy="-240" r="40" fill="none" stroke="var(--accent-3)" stroke-width="3" stroke-dasharray="6 4" display="none" data-suppressed-decoration="redundant-badge-ring"/>
      <g id="ITEM_3_ICON" transform="translate(-30.0, -270.0)" data-icon-size="60" stroke-linecap="round" stroke-linejoin="round" data-badge-treatment="clean">
        <g transform="translate(-12.305084745762715,-12.305084745762713) scale(0.1652542372881356)" vector-effect="non-scaling-stroke" fill="#f1f5f9" fill-opacity="1.0" stroke="none">
          <path fill="#f1f5f9" d="m208.7 22.36l22.4 77.23q13.35-2.49 27.6-2.49c8.5 0 16.8.68 24.9 2.02l22.2-76.76zm103.1 46.26l-10 34.78c15.2 4.8 29.1 12.3 40.8 22.7l25.5-23.8c-16-14.79-35.1-26.35-56.3-33.68m-108.9.86c-21 7.67-39.9 19.61-55.6 34.72l25.5 23.8c.1-.1.2-.3.4-.4c11.4-10.6 24.9-18.3 39.8-23.4zM97.56 83.35L59.71 139l86.09 30.1c3.7-10 8.6-19.1 14.5-27.1zm318.24 0l-60.3 56.35c6.4 8.2 11.7 17.6 15.7 28.1l82.4-28.8zM268 116v317.5h93.4V218.6c0-35.3-11.5-60.4-29.8-77.3c-16.2-15-38.3-23.6-63.6-25.3m-18.6 0c-25.2 1.7-47.3 10.3-63.6 25.3c-18.2 16.8-29.7 42-29.7 77.3v214.9h93.3zm163 57.3l-35.8 12.5c2.2 10.2 3.4 21.1 3.4 32.8v9.3h38.9v-9.3c0-15.8-2.3-31-6.5-45.3M105 174.7c-3.9 13.9-6.05 28.6-6.05 43.9v9.3h38.55v-9.3c0-11.2 1.1-21.7 3.1-31.4zm-39.3 71.8v56.2h71.8v-56.2zm314.3 0v56.2h66v-56.2zM98.95 321.3v37.5h38.55v-37.5zm281.05 0v37.5h38.9v-37.5zM56.16 377.4v56.1h81.34v-56.1zm323.84 0v56.1h75.8v-56.1zm-233.3 74.7l-39.6 37.5h297.4l-33-37.5z" vector-effect="non-scaling-stroke" stroke="none"/>
        </g>
      </g>
    </g>
    <g transform="translate(1560.0, 675.0)">
      <line x1="0" y1="0" x2="0" y2="-180" stroke="var(--accent-4)" stroke-width="2"/>
      <circle id="ITEM_4_NODE" cx="0" cy="-180" r="50" fill="var(--background)" stroke="var(--accent-1)" stroke-width="2" stroke-opacity="0.58" data-badge-layer="outline"/>
      <g transform="translate(0.0, 45.0)">
        <rect x="-150" y="-15" width="300" height="165" rx="12" fill="var(--panel)" id="ITEM_4_BG" stroke="var(--accent-4)" stroke-width="2"/>
        <text id="ITEM_4_HEAD" text-anchor="middle" font-weight="bold" font-size="27" fill="var(--accent-1)" x="0.0" y="0.0" data-bg-id="ITEM_4_BG" fill-opacity="1.0" style="font-size: 31px; font-family: 'Segoe UI Variable Display', 'Aptos Display', 'Inter', 'Segoe UI', Helvetica, Arial, sans-serif; font-weight: 700; font-kerning: normal; font-feature-settings: &quot;kern&quot; 1, &quot;liga&quot; 1; letter-spacing:-0.4px;" data-final-font-size="31">
          <tspan x="0.0" dy="34.02px">Ethical Warning</tspan>
        </text>
        <rect id="ITEM_4_HEAD_FRAME" x="-135" y="0" width="270" height="51" fill="none"/>
        <text id="ITEM_4_BODY" text-anchor="middle" font-size="19.5" fill="var(--primary-text)" x="0.0" y="60.0" data-bg-id="ITEM_4_BG" style="font-size: 23px; font-family: 'Segoe UI Variable Text', 'Aptos', 'Inter', 'Segoe UI', Helvetica, Arial, sans-serif; font-weight: 400; font-kerning: normal; font-feature-settings: &quot;kern&quot; 1, &quot;liga&quot; 1;" data-final-font-size="23">
          <tspan x="0.0" dy="26.53px">Humanity is warned about</tspan>
          <tspan x="0.0" dy="26.45px">self-destructive</tspan>
          <tspan x="0.0" dy="26.45px">technological progress</tspan>
        </text>
        <rect id="ITEM_4_BODY_FRAME" x="-152" y="60" width="304" height="120" fill="none" data-side-overflow-fix="38.0|38.0"/>
      </g>
      <circle id="ITEM_4_PAD" cx="0" cy="-180" r="50" fill="var(--icon-pad-bg)" stroke="var(--accent-1)" opacity="1" fill-opacity="0.9" stroke-width="2" stroke-opacity="0.72" data-badge-layer="pad"/>
      <circle id="ITEM_4_PAD_INNER" cx="0" cy="-180" r="39.00" fill="var(--accent-1)" fill-opacity="0.12" stroke="none" data-badge-layer="tint"/>
      <circle cx="0" cy="-180" r="40" fill="none" stroke="var(--accent-4)" stroke-width="3" stroke-dasharray="6 4" display="none" data-suppressed-decoration="redundant-badge-ring"/>
      <g id="ITEM_4_ICON" transform="translate(-30.0, -210.0)" data-icon-size="60" stroke-linecap="round" stroke-linejoin="round" data-badge-treatment="clean">
        <g transform="translate(-13.789473684210527,-15.15789473684211) scale(2.1894736842105265)">
          <path d="m16.726,6.632L2.811,30.734c-1.455,2.52.364,5.67,3.274,5.67h27.831c2.91,0,4.728-3.15,3.274-5.67L23.274,6.632c-1.455-2.52-5.092-2.52-6.547,0Z" fill="#ffcd00"/>
          <path d="m20,27.547c-1.044,0-1.89.846-1.89,1.89s.846,1.89,1.89,1.89,1.89-.846,1.89-1.89-.846-1.89-1.89-1.89h0Z" fill="#303d4c"/>
          <path d="m20,25.078c-.884,0-1.6-.716-1.6-1.6v-7.875c0-.884.716-1.6,1.6-1.6s1.6.716,1.6,1.6v7.875c0,.884-.716,1.6-1.6,1.6Z" fill="#303d4c"/>
        </g>
      </g>
    </g>
    <line id="PHX_SEQUENCE_MIDROUTE_ARROW_1" x1="932.0" y1="675.0" x2="988.0" y2="675.0" stroke="var(--muted-text)" opacity="0.92" stroke-width="5" stroke-linecap="round" marker-end="url(#svg0f80cc3f-PHX_SEQUENCE_DIRECTION_ARROW)" data-direction-cue="forward"/>
  </g>
  <text id="SOURCE_NOTE" x="134.0" y="1058.0" fill="var(--muted-text)" opacity="1" style="font-family: var(--font-family); font-size: 20px;">Source: Farewell To The Master by Harry Bates</text>
</svg>
