<?xml version='1.0' encoding='utf-8'?>
<svg xmlns="http://www.w3.org/2000/svg" width="1920" height="1080" viewBox="0 0 1920 1080" data-theme="dark" data-semantic-intent="loop_system" data-relation-type="taxonomy" data-site-visual-identity="editorial-atlas">
  <style>
        @font-face {
            font-family: 'Inter';
            src: url('assets/fonts/Inter-Regular.ttf') format('truetype');
            font-weight: 400;
            font-style: normal;
            font-display: swap;
        }
        @font-face {
            font-family: 'Inter';
            src: url('assets/fonts/Inter-Bold.ttf') format('truetype');
            font-weight: 600;
            font-style: normal;
            font-display: swap;
        }
        @font-face {
            font-family: 'Inter';
            src: url('assets/fonts/Inter-Bold.ttf') format('truetype');
            font-weight: 800;
            font-style: normal;
            font-display: swap;
        }
        
:root {
    --background: #0f172a;
    --panel: #1e293b;
    --primary-text: #f1f5f9;
    --muted-text: #94a3b8;
    --inverse-text: #0f172a;
    --border: #334155;
    --shadow-color: #000000;
    --icon-pad-bg: #1e293b;
    --art-glow: #7dd3fc;
    --art-glow-opacity: 0.18;
    --art-sheen: #ffffff;
    --art-sheen-opacity: 0.18;
    --art-shadow: #000000;
    --art-shadow-opacity: 0.28;
    --art-muted-line: #64748b;
    --art-panel-tint: #1e293b;
    --semantic-risk: #f87171;
    --semantic-warning: #fb923c;
    --semantic-uncertain: #fbbf24;
    --semantic-evidence: #60a5fa;
    --semantic-claim: #c084fc;
    --semantic-positive: #4ade80;
    --semantic-outcome: #22d3ee;
    --font-family: 'Inter', 'Segoe UI', 'Kalam', Roboto, Helvetica, Arial, sans-serif;
    --radius-xl: 16px;
    --font-family-headline: 'Segoe UI Variable Display', 'Aptos Display', 'Inter', 'Segoe UI', Helvetica, Arial, sans-serif;
    --font-family-body: 'Segoe UI Variable Text', 'Aptos', 'Inter', 'Segoe UI', Helvetica, Arial, sans-serif;
    --font-heading: var(--font-family-headline);
    --font-body: var(--font-family-body);
    --font-size-h1: 64px;
    --font-size-h2: 42px;
    --font-size-h3: 29px;
    --font-size-body: 21px;
    --font-size-caption: 17px;
    --secondary-text: var(--muted-text);
    --panel-border: var(--border);
    --font-weight-normal: 400;
    --font-weight-medium: 500;
    --font-weight-semibold: 600;
    --font-weight-bold: 700;
    --spacing-gutter-pct: 0.07;
    --spacing-top-pct: 0.15;
    --spacing-bottom-pct: 0.07;
    --spacing-title-y-pct: 0.055;
    --accent-1: #67e8f9;
    --accent-2: #38bdf8;
    --accent-3: #60a5fa;
    --accent-4: #818cf8;
    --accent-5: #22d3ee;
    --accent-6: #fbbf24;
}
:root[data-theme="dark"] {
    --background: #0f172a;
    --panel: #1e293b;
    --primary-text: #f1f5f9;
    --muted-text: #94a3b8;
    --inverse-text: #0f172a;
    --border: #334155;
    --shadow-color: #000000;
    --icon-pad-bg: #1e293b;
    --art-glow: #7dd3fc;
    --art-glow-opacity: 0.18;
    --art-sheen: #ffffff;
    --art-sheen-opacity: 0.18;
    --art-shadow: #000000;
    --art-shadow-opacity: 0.28;
    --art-muted-line: #64748b;
    --art-panel-tint: #1e293b;
    --semantic-risk: #f87171;
    --semantic-warning: #fb923c;
    --semantic-uncertain: #fbbf24;
    --semantic-evidence: #60a5fa;
    --semantic-claim: #c084fc;
    --semantic-positive: #4ade80;
    --semantic-outcome: #22d3ee;
    --accent-1: #67e8f9;
    --accent-2: #38bdf8;
    --accent-3: #60a5fa;
    --accent-4: #818cf8;
    --accent-5: #22d3ee;
    --accent-6: #fbbf24;
}
:root[data-theme="light"] {
    --background: #f8fafc;
    --panel: #ffffff;
    --primary-text: #0f172a;
    --muted-text: #64748b;
    --inverse-text: #ffffff;
    --border: #e2e8f0;
    --shadow-color: #000000;
    --icon-pad-bg: #1e293b;
    --art-glow: #0891b2;
    --art-glow-opacity: 0.10;
    --art-sheen: #ffffff;
    --art-sheen-opacity: 0.34;
    --art-shadow: #0f172a;
    --art-shadow-opacity: 0.14;
    --art-muted-line: #94a3b8;
    --art-panel-tint: #f1f5f9;
    --semantic-risk: #b91c1c;
    --semantic-warning: #c2410c;
    --semantic-uncertain: #a16207;
    --semantic-evidence: #1d4ed8;
    --semantic-claim: #6d28d9;
    --semantic-positive: #15803d;
    --semantic-outcome: #0e7490;
    --accent-1: #0e7490;
    --accent-2: #0369a1;
    --accent-3: #1d4ed8;
    --accent-4: #4338ca;
    --accent-5: #0f766e;
    --accent-6: #b45309;
}</style>
  <rect x="0" y="0" width="1.92E+3" height="1.08E+3" fill="#252a34" stroke="none" id="programmatic_background"/>
  <line id="HEADER_DECOR" x1="960.0" x2="1080.0" y1="70.0" y2="70.0" stroke="var(--accent-1)" stroke-width="6" stroke-linecap="round"/>
  <defs>
    <pattern id="svg78f27e07-napkin-hatch" patternUnits="userSpaceOnUse" width="12" height="12">
      <path d="M -3 12 L 12 -3 M 0 15 L 15 0" fill="none" stroke="var(--primary-text)" stroke-width="1" stroke-opacity="0.05"/>
    </pattern>
    <radialGradient id="svg78f27e07-universal-edge-vignette" cx="50%" cy="50%" r="72%">
      <stop offset="0%" stop-color="var(--background)" stop-opacity="0"/>
      <stop offset="72%" stop-color="var(--background)" stop-opacity="0.12"/>
      <stop offset="100%" stop-color="var(--primary-text)" stop-opacity="0.08"/>
    </radialGradient>
    <linearGradient id="svg78f27e07-universal-surface-sheen" x1="0%" y1="0%" x2="100%" y2="100%">
      <stop offset="0%" stop-color="var(--art-sheen)" stop-opacity="var(--art-sheen-opacity)"/>
      <stop offset="46%" stop-color="var(--art-sheen)" stop-opacity="0.035"/>
      <stop offset="100%" stop-color="var(--art-panel-tint)" stop-opacity="0.14"/>
    </linearGradient>
    <radialGradient id="svg78f27e07-universal-icon-aura" cx="50%" cy="42%" r="64%">
      <stop offset="0%" stop-color="var(--art-glow)" stop-opacity="var(--art-glow-opacity)"/>
      <stop offset="100%" stop-color="var(--background)" stop-opacity="0"/>
    </radialGradient>
    <radialGradient id="svg78f27e07-satellite-map-art-glow" cx="50%" cy="52%" r="68%">
      <stop offset="0%" stop-color="var(--inverse-text)" stop-opacity="0.14"/>
      <stop offset="100%" stop-color="var(--background)" stop-opacity="0"/>
    </radialGradient>
    <linearGradient id="svg78f27e07-satellite-map-art-sheen" x1="16%" y1="0%" x2="86%" y2="100%">
      <stop offset="0%" stop-color="var(--inverse-text)" stop-opacity="0.22"/>
      <stop offset="52%" stop-color="var(--inverse-text)" stop-opacity="0.035"/>
      <stop offset="100%" stop-color="var(--background)" stop-opacity="0.14"/>
    </linearGradient>
    <filter id="svg78f27e07-text-glow" x="-20%" y="-20%" width="140%" height="140%">
      <feDropShadow dx="0" dy="0" stdDeviation="2" flood-color="#000000" flood-opacity="0.4"/>
    </filter>
    <filter id="svg78f27e07-shadow" x="-30%" y="-30%" width="160%" height="160%">
      <feDropShadow dx="0" dy="2" stdDeviation="3" flood-color="#000000" flood-opacity="0.08"/>
      <feDropShadow dx="0" dy="6" stdDeviation="10" flood-color="#000000" flood-opacity="0.12"/>
    </filter>
    <marker id="svg78f27e07-arrowhead" markerWidth="10" markerHeight="7" refX="9" refY="3.5" orient="auto" markerUnits="strokeWidth">
      <polygon points="0 0, 10 3.5, 0 7" fill="var(--muted-text)" opacity="0.6"/>
    </marker>
  </defs>
  <rect width="100%" height="100%" fill="var(--background)" id="CANVAS_BG"/>
  <rect width="100%" height="100%" fill="url(#svg78f27e07-napkin-hatch)"/>
  <ellipse id="SATELLITE-MAP_ART_GLOW" cx="960" cy="600" rx="650" ry="340" fill="url(#svg78f27e07-satellite-map-art-glow)" opacity="0.84"/>
  <rect id="UNIVERSAL_EDGE_VIGNETTE" width="100%" height="100%" fill="url(#svg78f27e07-universal-edge-vignette)" opacity="0.62"/>
  <text id="TITLE" x="960.0" y="59" font-size="42" font-weight="800" fill="#f1f5f9" style="font-size: 69px; font-family: 'Segoe UI Variable Display', 'Aptos Display', 'Inter', 'Segoe UI', Helvetica, Arial, sans-serif; font-weight: 800; font-kerning: normal; font-feature-settings: &quot;kern&quot; 1, &quot;liga&quot; 1; letter-spacing:-1.2px;" text-anchor="middle" data-final-font-size="69">
    <tspan x="960.0" dy="70.47px">Risks of AI Companionship</tspan>
  </text>
  <rect id="TITLE_FRAME" x="140" y="20" width="1640" height="60" fill="none"/>
  <!-- Pentagon layout - 5 nodes, all with text below -->
  <g id="DIAGRAM_MAIN">
    <!-- Connecting lines -->
    <path d="M 960 180 L 1360 420" stroke="var(--muted-text)" stroke-width="1.5" stroke-dasharray="6 4" opacity="0.5"/>
    <path d="M 960 500 L 960 180" stroke="var(--muted-text)" stroke-width="1.5" stroke-dasharray="6 4" opacity="0.5"/>
    <path d="M 1360 420 L 1200 780" stroke="var(--muted-text)" stroke-width="1.5" stroke-dasharray="6 4" opacity="0.5"/>
    <path d="M 960 500 L 1360 420" stroke="var(--muted-text)" stroke-width="1.5" stroke-dasharray="6 4" opacity="0.5"/>
    <path d="M 1200 780 L 720 780" stroke="var(--muted-text)" stroke-width="1.5" stroke-dasharray="6 4" opacity="0.5"/>
    <path d="M 960 500 L 1200 780" stroke="var(--muted-text)" stroke-width="1.5" stroke-dasharray="6 4" opacity="0.5"/>
    <path d="M 720 780 L 560 420" stroke="var(--muted-text)" stroke-width="1.5" stroke-dasharray="6 4" opacity="0.5"/>
    <path d="M 960 500 L 720 780" stroke="var(--muted-text)" stroke-width="1.5" stroke-dasharray="6 4" opacity="0.5"/>
    <path d="M 560 420 L 960 180" stroke="var(--muted-text)" stroke-width="1.5" stroke-dasharray="6 4" opacity="0.5"/>
    <path d="M 960 500 L 560 420" stroke="var(--muted-text)" stroke-width="1.5" stroke-dasharray="6 4" opacity="0.5"/>
    <!-- ITEM 1: Top center -->
    <g transform="translate(960, 180)">
      <circle id="ITEM_1_NODE" r="45" fill="var(--icon-pad-bg)" stroke="var(--semantic-risk)" stroke-width="2" stroke-opacity="0.58" data-badge-layer="outline"/>
      <circle r="53" fill="none" stroke="var(--accent-1)" stroke-width="3" stroke-dasharray="6 4"/>
      <g id="ITEM_1_ICON" transform="translate(-30, -30)" data-icon-size="60" stroke-linecap="round" stroke-linejoin="round" data-badge-treatment="clean">
        <g transform="translate(-10.114285714285716,-10.114285714285716) scale(2.507142857142857)">
          <path d="M11.8553 19.9196C12.1482 20.2125 12.1482 20.6874 11.8553 20.9803L4.85534 27.9803C4.56245 28.2732 4.08758 28.2732 3.79468 27.9803C3.50179 27.6874 3.50179 27.2125 3.79468 26.9196L10.7947 19.9196C11.0876 19.6267 11.5624 19.6267 11.8553 19.9196Z" fill="#9B9B9B"/>
          <path d="M22.525 13.7501L18.025 9.2501L19.425 7.8501L23.925 12.3501L22.525 13.7501Z" fill="#7167A4"/>
          <path d="M10.325 23.4499C10.125 23.4499 9.92502 23.3499 9.72502 23.2499L8.62502 22.1499C8.32502 21.8499 8.32502 21.3499 8.62502 20.9499L10.625 18.8499C11.225 18.3499 12.725 16.5499 12.725 15.3499C12.725 13.1499 14.725 11.4499 14.825 11.3499L22.025 4.1499L23.225 5.3499L15.925 12.6499C15.825 12.7499 14.425 14.0499 14.425 15.4499C14.425 16.6499 13.625 17.9499 12.925 18.8499C13.825 18.1499 15.125 17.3499 16.425 17.3499C17.825 17.3499 19.225 15.8499 19.225 15.8499L26.525 8.5499L27.725 9.7499L20.325 16.9499C20.325 16.9499 18.525 18.9499 16.325 18.9499C15.125 18.9499 13.425 20.4499 12.825 20.9499L10.925 23.1499C10.725 23.3499 10.525 23.4499 10.325 23.4499Z" fill="#BEBEBE"/>
          <path d="M3.225 29.65L2.225 28.65C1.925 28.35 1.925 27.85 2.225 27.55L3.925 25.85C4.225 25.55 4.725 25.55 5.025 25.85L6.025 26.85C6.325 27.15 6.325 27.65 6.025 27.95L4.325 29.65C4.025 29.95 3.525 29.95 3.225 29.65Z" fill="#7167A4"/>
          <path d="M27.025 9.95L21.825 4.75C21.225 4.15 21.225 3.05 21.825 2.45C22.425 1.85 23.525 1.85 24.125 2.45L29.325 7.65C29.925 8.25 29.925 9.35 29.325 9.95C28.725 10.55 27.625 10.55 27.025 9.95Z" fill="#7167A4"/>
        </g>
      </g>
      <rect id="ITEM_1_TEXT_BG" x="-208" y="36" width="416" height="202" rx="22" fill="var(--panel)" fill-opacity="0.94" stroke="var(--accent-1)" stroke-width="2"/>
      <text id="ITEM_1_HEAD" x="0.0" y="50.0" text-anchor="middle" font-weight="bold" font-size="19" fill="var(--semantic-risk)" style="font-size: 22px; font-family: 'Segoe UI Variable Display', 'Aptos Display', 'Inter', 'Segoe UI', Helvetica, Arial, sans-serif; font-weight: 700; font-kerning: normal; font-feature-settings: &quot;kern&quot; 1, &quot;liga&quot; 1; letter-spacing:-0.4px;" data-bg-id="ITEM_1_TEXT_BG" dominant-baseline="text-before-edge" fill-opacity="1.0" stroke="none" data-final-font-size="22">
        <tspan x="0.0" dy="29.95px">Overreliance Risks</tspan>
      </text>
      <rect id="ITEM_1_HEAD_FRAME" x="-100" y="50" width="200" height="50" fill="none"/>
      <text id="ITEM_1_BODY" x="0.0" y="100.0" text-anchor="middle" font-size="15" fill="var(--primary-text)" style="font-size: 23px; font-family: 'Segoe UI Variable Text', 'Aptos', 'Inter', 'Segoe UI', Helvetica, Arial, sans-serif; font-weight: 400; font-kerning: normal; font-feature-settings: &quot;kern&quot; 1, &quot;liga&quot; 1;" data-bg-id="ITEM_1_TEXT_BG" dominant-baseline="text-before-edge" data-final-font-size="23">
        <tspan x="0.0" dy="31.82px">Users may depend excessively</tspan>
        <tspan x="0.0" dy="26.45px">on artificial support systems</tspan>
      </text>
      <rect id="ITEM_1_BODY_FRAME" x="-190" y="100" width="380" height="120" fill="none"/>
    </g>
    <!-- ITEM 2: Upper right -->
    <g transform="translate(1360, 420)">
      <circle id="ITEM_2_NODE" r="45" fill="var(--icon-pad-bg)" stroke="var(--semantic-risk)" stroke-width="2" stroke-opacity="0.58" data-badge-layer="outline"/>
      <circle r="53" fill="none" stroke="var(--accent-2)" stroke-width="3" stroke-dasharray="6 4"/>
      <g id="ITEM_2_ICON" transform="translate(-30, -30)" data-icon-size="60" stroke-linecap="round" stroke-linejoin="round" data-badge-treatment="clean">
        <g transform="translate(-7.440000000000001,-7.440000000000001) scale(0.14625000000000002)" vector-effect="non-scaling-stroke" fill="var(--primary-text)" fill-opacity="1.0" stroke="none">
          <path fill="var(--primary-text)" d="M257.406 17.188c-25.61 0-46.22 20.72-46.22 46.593c0 25.875 20.61 46.595 46.22 46.595s46.25-20.72 46.25-46.594c0-25.872-20.64-46.593-46.25-46.593zm122.78 37.937l-78.31 58.625c2.665 5.776 4.776 12.026 6.25 18.656l69-51.656l3.062-25.625zm-255.342 1.28l8.875 27.407l64.186 39.376c2.513-5.943 5.514-11.462 8.938-16.47zM398.47 59.47l-3.095 26.28l41.438 52.625a45.75 45.75 0 0 1 16.312-9.47zm-291.94 1l-51.718 80c6.345 1.322 12.192 3.976 17.282 7.655l41.844-64.72l-7.407-22.936zm111.94 55.5c-7.12 10.803-12.285 24.91-13.907 40.686c-2 19.438 1.785 37.464 9.062 50.563c7.277 13.098 17.574 20.998 29.28 22.218c11.708 1.22 23.405-4.372 33.19-15.688c9.783-11.316 17.156-28.218 19.155-47.656c1.74-16.923-.89-32.787-6.406-45.25c-9.327 5.225-20.04 8.22-31.438 8.22c-14.59 0-28.083-4.874-38.937-13.095zm248.75 29.374c-14.947 0-26.876 11.93-26.876 26.875s11.93 26.874 26.875 26.874s26.842-11.93 26.842-26.875c0-14.947-11.897-26.876-26.843-26.876zM45.56 158.22c-14.946 0-26.874 11.896-26.874 26.843s11.928 26.875 26.875 26.875s26.843-11.93 26.843-26.875c0-14.947-11.897-26.844-26.844-26.844zm166.94 71.81c-10.02 7.32-16.327 17.48-16.53 27.532c-.185 9.06 3.95 16.745 11.655 22.625s19.014 9.51 32.03 8.75c26.036-1.52 46.228-20.007 46.595-38.125c.148-7.302-2.523-13.71-7.594-19c-10.786 8.85-23.713 13.758-37.28 12.344c-11.08-1.154-20.883-6.343-28.876-14.125zm69.906 62.5c-9.156 6.97-20.466 11.91-32.72 14.033l47.783 81.125l15.874-13.625l-30.938-81.532zm-81.687 5.564l-9.595 91.78l18.53 13.345l24.532-95.5c-12.492-.33-24.01-3.736-33.468-9.626zm125.124 89.844l-15.72 13.5l65.22 51.03c2.495-9.733 8.156-18.518 16.156-24.78zm-142.47 19.375l-55.905 29.75c4.933 6.162 8.355 13.66 9.53 22c.09.648.156 1.29.22 1.937l64.56-40.406l-18.405-13.28zM419.28 436.75a27.2 27.2 0 0 0-7.686 1.188c-14.29 4.384-22.197 19.273-17.813 33.562c4.385 14.29 19.275 22.197 33.564 17.813s22.196-19.274 17.812-33.563c-3.596-11.72-14.268-19.132-25.875-19zm-327 1.78a28 28 0 0 0-4.124.283c-14.8 2.084-24.928 15.543-22.844 30.343c2.085 14.8 15.544 24.928 30.344 22.844s24.928-15.544 22.844-30.344c-1.824-12.95-12.355-22.316-24.875-23.062c-.447-.027-.892-.058-1.344-.063z" vector-effect="non-scaling-stroke" stroke="none"/>
        </g>
      </g>
      <rect id="ITEM_2_TEXT_BG" x="-208" y="36" width="416" height="202" rx="22" fill="var(--panel)" fill-opacity="0.94" stroke="var(--accent-2)" stroke-width="2"/>
      <text id="ITEM_2_HEAD" x="0.0" y="50.0" text-anchor="middle" font-weight="bold" font-size="19" fill="var(--semantic-risk)" style="font-size: 21px; font-family: 'Segoe UI Variable Display', 'Aptos Display', 'Inter', 'Segoe UI', Helvetica, Arial, sans-serif; font-weight: 700; font-kerning: normal; font-feature-settings: &quot;kern&quot; 1, &quot;liga&quot; 1; letter-spacing:-0.4px;" data-bg-id="ITEM_2_TEXT_BG" dominant-baseline="text-before-edge" fill-opacity="1.0" stroke="none" data-final-font-size="21">
        <tspan x="0.0" dy="17.65px">Manipulation</tspan>
        <tspan x="0.0" dy="24.15px">Threats</tspan>
      </text>
      <rect id="ITEM_2_HEAD_FRAME" x="-100" y="50" width="200" height="50" fill="none"/>
      <text id="ITEM_2_BODY" x="0.0" y="100.0" text-anchor="middle" font-size="15" fill="var(--primary-text)" style="font-size: 23px; font-family: 'Segoe UI Variable Text', 'Aptos', 'Inter', 'Segoe UI', Helvetica, Arial, sans-serif; font-weight: 400; font-kerning: normal; font-feature-settings: &quot;kern&quot; 1, &quot;liga&quot; 1;" data-bg-id="ITEM_2_TEXT_BG" dominant-baseline="text-before-edge" data-final-font-size="23">
        <tspan x="0.0" dy="31.82px">Systems might influence users</tspan>
        <tspan x="0.0" dy="26.45px">through persuasive social design</tspan>
      </text>
      <rect id="ITEM_2_BODY_FRAME" x="-190" y="100" width="380" height="120" fill="none"/>
    </g>
    <!-- ITEM 3: Lower right -->
    <g transform="translate(1200, 780)">
      <circle id="ITEM_3_NODE" r="45" fill="var(--icon-pad-bg)" stroke="var(--semantic-risk)" stroke-width="2" stroke-opacity="0.58" data-badge-layer="outline"/>
      <circle r="53" fill="none" stroke="var(--accent-3)" stroke-width="3" stroke-dasharray="6 4"/>
      <g id="ITEM_3_ICON" transform="translate(-30, -30)" data-icon-size="60" stroke-linecap="round" stroke-linejoin="round" data-badge-treatment="clean">
        <g transform="translate(-11.600000000000001,-11.600000000000001) scale(3.466666666666667)" vector-effect="non-scaling-stroke" stroke-width="2.43" stroke-linecap="round" stroke-linejoin="round" stroke-opacity="1.0">
          <path d="M12 12m-9 0a9 9 0 1 0 18 0a9 9 0 1 0 -18 0" vector-effect="non-scaling-stroke" fill="none" stroke="var(--primary-text)"/>
          <path d="M12 12m-2 0a2 2 0 1 0 4 0a2 2 0 1 0 -4 0" vector-effect="non-scaling-stroke" fill="none" stroke="var(--primary-text)"/>
          <path d="M12 14l0 7" vector-effect="non-scaling-stroke" fill="none" stroke="var(--primary-text)"/>
          <path d="M10 12l-6.75 -2" vector-effect="non-scaling-stroke" fill="none" stroke="var(--primary-text)"/>
          <path d="M14 12l6.75 -2" vector-effect="non-scaling-stroke" fill="none" stroke="var(--primary-text)"/>
        </g>
      </g>
      <rect id="ITEM_3_TEXT_BG" x="-208" y="36" width="416" height="202" rx="22" fill="var(--panel)" fill-opacity="0.94" stroke="var(--accent-3)" stroke-width="2"/>
      <text id="ITEM_3_HEAD" x="0.0" y="50.0" text-anchor="middle" font-weight="bold" font-size="19" fill="var(--semantic-risk)" style="font-size: 29px; font-family: 'Segoe UI Variable Display', 'Aptos Display', 'Inter', 'Segoe UI', Helvetica, Arial, sans-serif; font-weight: 700; font-kerning: normal; font-feature-settings: &quot;kern&quot; 1, &quot;liga&quot; 1; letter-spacing:-0.4px;" data-bg-id="ITEM_3_TEXT_BG" dominant-baseline="text-before-edge" fill-opacity="1.0" stroke="none" data-final-font-size="29">
        <tspan x="0.0" dy="32.98px">Reduced Agency</tspan>
      </text>
      <rect id="ITEM_3_HEAD_FRAME" x="-100" y="50" width="200" height="50" fill="none"/>
      <text id="ITEM_3_BODY" x="0.0" y="100.0" text-anchor="middle" font-size="15" fill="var(--primary-text)" style="font-size: 23px; font-family: 'Segoe UI Variable Text', 'Aptos', 'Inter', 'Segoe UI', Helvetica, Arial, sans-serif; font-weight: 400; font-kerning: normal; font-feature-settings: &quot;kern&quot; 1, &quot;liga&quot; 1;" data-bg-id="ITEM_3_TEXT_BG" dominant-baseline="text-before-edge" data-final-font-size="23">
        <tspan x="0.0" dy="31.82px">Human decision-making may diminish</tspan>
        <tspan x="0.0" dy="26.45px">through automated interaction</tspan>
      </text>
      <rect id="ITEM_3_BODY_FRAME" x="-190" y="100" width="380" height="120" fill="none"/>
    </g>
    <!-- ITEM 4: Lower left -->
    <g transform="translate(720, 780)">
      <circle id="ITEM_4_NODE" r="45" fill="var(--icon-pad-bg)" stroke="var(--semantic-risk)" stroke-width="2" stroke-opacity="0.58" data-badge-layer="outline"/>
      <circle r="53" fill="none" stroke="var(--accent-4)" stroke-width="3" stroke-dasharray="6 4"/>
      <g id="ITEM_4_ICON" transform="translate(-30, -30)" data-icon-size="60" stroke-linecap="round" stroke-linejoin="round" data-badge-treatment="clean">
        <g transform="translate(-5.100000000000001,-5.100000000000001) scale(5.014285714285714)" vector-effect="non-scaling-stroke" stroke-width="2.43" stroke-linecap="round" stroke-linejoin="round" stroke-opacity="1.0">
          <path id="Vector" fill="none" d="M6 11.5a5.5 5.5 0 1 0 0 -11 5.5 5.5 0 0 0 0 11Z" vector-effect="non-scaling-stroke" stroke="var(--primary-text)"/>
          <path id="Vector_2" stroke="var(--primary-text)" d="M6 11.5a5.5 5.5 0 1 0 0 -11 5.5 5.5 0 0 0 0 11Z" vector-effect="non-scaling-stroke" fill="none"/>
          <path id="Vector_3" stroke="var(--primary-text)" d="M13.5 13.5 10 10" vector-effect="non-scaling-stroke" fill="none"/>
        </g>
      </g>
      <rect id="ITEM_4_TEXT_BG" x="-208" y="36" width="416" height="202" rx="22" fill="var(--panel)" fill-opacity="0.94" stroke="var(--accent-4)" stroke-width="2"/>
      <text id="ITEM_4_HEAD" x="0.0" y="50.0" text-anchor="middle" font-weight="bold" font-size="19" fill="var(--semantic-risk)" style="font-size: 21px; font-family: 'Segoe UI Variable Display', 'Aptos Display', 'Inter', 'Segoe UI', Helvetica, Arial, sans-serif; font-weight: 700; font-kerning: normal; font-feature-settings: &quot;kern&quot; 1, &quot;liga&quot; 1; letter-spacing:-0.4px;" data-bg-id="ITEM_4_TEXT_BG" dominant-baseline="text-before-edge" fill-opacity="1.0" stroke="none" data-final-font-size="21">
        <tspan x="0.0" dy="17.65px">Misunderstood</tspan>
        <tspan x="0.0" dy="24.15px">Limits</tspan>
      </text>
      <rect id="ITEM_4_HEAD_FRAME" x="-100" y="50" width="200" height="50" fill="none"/>
      <text id="ITEM_4_BODY" x="0.0" y="100.0" text-anchor="middle" font-size="15" fill="var(--primary-text)" style="font-size: 23px; font-family: 'Segoe UI Variable Text', 'Aptos', 'Inter', 'Segoe UI', Helvetica, Arial, sans-serif; font-weight: 400; font-kerning: normal; font-feature-settings: &quot;kern&quot; 1, &quot;liga&quot; 1;" data-bg-id="ITEM_4_TEXT_BG" dominant-baseline="text-before-edge" data-final-font-size="23">
        <tspan x="0.0" dy="31.82px">Humans may trust systems that lack</tspan>
        <tspan x="0.0" dy="26.45px">genuine awareness</tspan>
      </text>
      <rect id="ITEM_4_BODY_FRAME" x="-190" y="100" width="380" height="120" fill="none"/>
    </g>
    <!-- ITEM 5: Upper left -->
    <g transform="translate(560, 420)">
      <circle id="ITEM_5_NODE" r="45" fill="var(--icon-pad-bg)" stroke="var(--semantic-risk)" stroke-width="2" stroke-opacity="0.58" data-badge-layer="outline"/>
      <circle r="53" fill="none" stroke="var(--accent-5)" stroke-width="3" stroke-dasharray="6 4"/>
      <g id="ITEM_5_ICON" transform="translate(-30, -30)" data-icon-size="60" stroke-linecap="round" stroke-linejoin="round" data-badge-treatment="clean">
        <g transform="translate(-7.147500000000003,-7.440000000000001) scale(0.14625000000000002)" vector-effect="non-scaling-stroke" fill="var(--primary-text)" fill-opacity="1.0" stroke="none">
          <path fill="var(--primary-text)" d="M254.28 17.313c-81.048 0-146.624 65.484-146.624 146.406V236h49.594v-69.094c0-53.658 43.47-97.187 97.03-97.187c53.563 0 97.032 44.744 97.032 97.186V236h49.594v-72.28c0-78.856-65.717-146.407-146.625-146.407zM85.157 254.688c-14.61 22.827-22.844 49.148-22.844 76.78c0 88.358 84.97 161.5 191.97 161.5c106.998 0 191.968-73.142 191.968-161.5c0-27.635-8.26-53.95-22.875-76.78H85.155zM254 278.625c22.34 0 40.875 17.94 40.875 40.28c0 16.756-10.6 31.23-25.125 37.376l32.72 98.126h-96.376l32.125-98.125c-14.526-6.145-24.532-20.62-24.532-37.374c0-22.338 17.972-40.28 40.312-40.28z" vector-effect="non-scaling-stroke" stroke="none"/>
        </g>
      </g>
      <rect id="ITEM_5_TEXT_BG" x="-208" y="36" width="416" height="202" rx="22" fill="var(--panel)" fill-opacity="0.94" stroke="var(--accent-5)" stroke-width="2"/>
      <text id="ITEM_5_HEAD" x="0.0" y="50.0" text-anchor="middle" font-weight="bold" font-size="19" fill="var(--semantic-risk)" style="font-size: 27px; font-family: 'Segoe UI Variable Display', 'Aptos Display', 'Inter', 'Segoe UI', Helvetica, Arial, sans-serif; font-weight: 700; font-kerning: normal; font-feature-settings: &quot;kern&quot; 1, &quot;liga&quot; 1; letter-spacing:-0.4px;" data-bg-id="ITEM_5_TEXT_BG" dominant-baseline="text-before-edge" fill-opacity="1.0" stroke="none" data-final-font-size="27">
        <tspan x="0.0" dy="31.08px">Privacy Erosion</tspan>
      </text>
      <rect id="ITEM_5_HEAD_FRAME" x="-100" y="50" width="200" height="50" fill="none"/>
      <text id="ITEM_5_BODY" x="0.0" y="100.0" text-anchor="middle" font-size="15" fill="var(--primary-text)" style="font-size: 23px; font-family: 'Segoe UI Variable Text', 'Aptos', 'Inter', 'Segoe UI', Helvetica, Arial, sans-serif; font-weight: 400; font-kerning: normal; font-feature-settings: &quot;kern&quot; 1, &quot;liga&quot; 1;" data-bg-id="ITEM_5_TEXT_BG" dominant-baseline="text-before-edge" data-final-font-size="23">
        <tspan x="0.0" dy="31.82px">Personalized interactions may lead</tspan>
        <tspan x="0.0" dy="26.45px">to data vulnerability</tspan>
      </text>
      <rect id="ITEM_5_BODY_FRAME" x="-190" y="100" width="380" height="120" fill="none"/>
    </g>
  </g>
  <text id="SOURCE_NOTE" x="134.0" y="1058.0" fill="var(--muted-text)" opacity="1" style="font-family: var(--font-family); font-size: 20px;">Source: Media Lab Overview ‹ AI and Human Psychology — MIT Media Lab</text>
  <text id="EDITORIAL_NOTE" x="1786.0" y="1058.0" fill="var(--semantic-uncertain)" opacity="1" style="font-family: var(--font-family); font-size: 20px;" text-anchor="end">Interpretations remain disputed; wording reflects source uncertainty.</text>
</svg>
