<?xml version='1.0' encoding='utf-8'?>
<svg xmlns="http://www.w3.org/2000/svg" width="1920" height="1080" viewBox="0 0 1920 1080" data-theme="light" data-semantic-intent="sequence" data-relation-type="sequence" data-site-visual-identity="editorial-atlas">
  <style>
        @font-face {
            font-family: 'Inter';
            src: url('assets/fonts/Inter-Regular.ttf') format('truetype');
            font-weight: 400;
            font-style: normal;
            font-display: swap;
        }
        @font-face {
            font-family: 'Inter';
            src: url('assets/fonts/Inter-Bold.ttf') format('truetype');
            font-weight: 600;
            font-style: normal;
            font-display: swap;
        }
        @font-face {
            font-family: 'Inter';
            src: url('assets/fonts/Inter-Bold.ttf') format('truetype');
            font-weight: 800;
            font-style: normal;
            font-display: swap;
        }
        
:root {
    --background: #f8fafc;
    --panel: #ffffff;
    --primary-text: #0f172a;
    --muted-text: #64748b;
    --inverse-text: #ffffff;
    --border: #e2e8f0;
    --shadow-color: #000000;
    --icon-pad-bg: #1e293b;
    --art-glow: #0891b2;
    --art-glow-opacity: 0.10;
    --art-sheen: #ffffff;
    --art-sheen-opacity: 0.34;
    --art-shadow: #0f172a;
    --art-shadow-opacity: 0.14;
    --art-muted-line: #94a3b8;
    --art-panel-tint: #f1f5f9;
    --semantic-risk: #b91c1c;
    --semantic-warning: #c2410c;
    --semantic-uncertain: #a16207;
    --semantic-evidence: #1d4ed8;
    --semantic-claim: #6d28d9;
    --semantic-positive: #15803d;
    --semantic-outcome: #0e7490;
    --font-family: 'Inter', 'Segoe UI', 'Kalam', Roboto, Helvetica, Arial, sans-serif;
    --radius-xl: 16px;
    --font-family-headline: 'Segoe UI Variable Display', 'Aptos Display', 'Inter', 'Segoe UI', Helvetica, Arial, sans-serif;
    --font-family-body: 'Segoe UI Variable Text', 'Aptos', 'Inter', 'Segoe UI', Helvetica, Arial, sans-serif;
    --font-heading: var(--font-family-headline);
    --font-body: var(--font-family-body);
    --font-size-h1: 64px;
    --font-size-h2: 42px;
    --font-size-h3: 29px;
    --font-size-body: 21px;
    --font-size-caption: 17px;
    --secondary-text: var(--muted-text);
    --panel-border: var(--border);
    --font-weight-normal: 400;
    --font-weight-medium: 500;
    --font-weight-semibold: 600;
    --font-weight-bold: 700;
    --spacing-gutter-pct: 0.07;
    --spacing-top-pct: 0.15;
    --spacing-bottom-pct: 0.07;
    --spacing-title-y-pct: 0.055;
    --accent-1: #0e7490;
    --accent-2: #0369a1;
    --accent-3: #1d4ed8;
    --accent-4: #4338ca;
    --accent-5: #0f766e;
    --accent-6: #b45309;
}
:root[data-theme="dark"] {
    --background: #0f172a;
    --panel: #1e293b;
    --primary-text: #f1f5f9;
    --muted-text: #94a3b8;
    --inverse-text: #0f172a;
    --border: #334155;
    --shadow-color: #000000;
    --icon-pad-bg: #1e293b;
    --art-glow: #7dd3fc;
    --art-glow-opacity: 0.18;
    --art-sheen: #ffffff;
    --art-sheen-opacity: 0.18;
    --art-shadow: #000000;
    --art-shadow-opacity: 0.28;
    --art-muted-line: #64748b;
    --art-panel-tint: #1e293b;
    --semantic-risk: #f87171;
    --semantic-warning: #fb923c;
    --semantic-uncertain: #fbbf24;
    --semantic-evidence: #60a5fa;
    --semantic-claim: #c084fc;
    --semantic-positive: #4ade80;
    --semantic-outcome: #22d3ee;
    --accent-1: #67e8f9;
    --accent-2: #38bdf8;
    --accent-3: #60a5fa;
    --accent-4: #818cf8;
    --accent-5: #22d3ee;
    --accent-6: #fbbf24;
}
:root[data-theme="light"] {
    --background: #f8fafc;
    --panel: #ffffff;
    --primary-text: #0f172a;
    --muted-text: #64748b;
    --inverse-text: #ffffff;
    --border: #e2e8f0;
    --shadow-color: #000000;
    --icon-pad-bg: #1e293b;
    --art-glow: #0891b2;
    --art-glow-opacity: 0.10;
    --art-sheen: #ffffff;
    --art-sheen-opacity: 0.34;
    --art-shadow: #0f172a;
    --art-shadow-opacity: 0.14;
    --art-muted-line: #94a3b8;
    --art-panel-tint: #f1f5f9;
    --semantic-risk: #b91c1c;
    --semantic-warning: #c2410c;
    --semantic-uncertain: #a16207;
    --semantic-evidence: #1d4ed8;
    --semantic-claim: #6d28d9;
    --semantic-positive: #15803d;
    --semantic-outcome: #0e7490;
    --accent-1: #0e7490;
    --accent-2: #0369a1;
    --accent-3: #1d4ed8;
    --accent-4: #4338ca;
    --accent-5: #0f766e;
    --accent-6: #b45309;
}</style>
  <rect x="0" y="0" width="1.92E+3" height="1.08E+3" fill="#252a34" stroke="none" id="programmatic_background"/>
  <line id="HEADER_DECOR" x1="960.0" x2="1080.0" y1="135.0" y2="135.0" stroke="var(--accent-1)" stroke-width="6" stroke-linecap="round"/>
  <defs>
    <pattern id="svgfc4be322-napkin-hatch" patternUnits="userSpaceOnUse" width="12" height="12">
      <path d="M -3 12 L 12 -3 M 0 15 L 15 0" fill="none" stroke="var(--primary-text)" stroke-width="1" stroke-opacity="0.05"/>
    </pattern>
    <radialGradient id="svgfc4be322-universal-edge-vignette" cx="50%" cy="50%" r="72%">
      <stop offset="0%" stop-color="var(--background)" stop-opacity="0"/>
      <stop offset="72%" stop-color="var(--background)" stop-opacity="0.12"/>
      <stop offset="100%" stop-color="var(--primary-text)" stop-opacity="0.08"/>
    </radialGradient>
    <linearGradient id="svgfc4be322-universal-surface-sheen" x1="0%" y1="0%" x2="100%" y2="100%">
      <stop offset="0%" stop-color="var(--art-sheen)" stop-opacity="var(--art-sheen-opacity)"/>
      <stop offset="46%" stop-color="var(--art-sheen)" stop-opacity="0.035"/>
      <stop offset="100%" stop-color="var(--art-panel-tint)" stop-opacity="0.14"/>
    </linearGradient>
    <radialGradient id="svgfc4be322-universal-icon-aura" cx="50%" cy="42%" r="64%">
      <stop offset="0%" stop-color="var(--art-glow)" stop-opacity="var(--art-glow-opacity)"/>
      <stop offset="100%" stop-color="var(--background)" stop-opacity="0"/>
    </radialGradient>
    <filter id="svgfc4be322-text-glow" x="-20%" y="-20%" width="140%" height="140%">
      <feDropShadow dx="0" dy="0" stdDeviation="2" flood-color="#000000" flood-opacity="0.4"/>
    </filter>
    <filter id="svgfc4be322-shadow" x="-30%" y="-30%" width="160%" height="160%">
      <feDropShadow dx="0" dy="2" stdDeviation="3" flood-color="#000000" flood-opacity="0.08"/>
      <feDropShadow dx="0" dy="6" stdDeviation="10" flood-color="#000000" flood-opacity="0.12"/>
    </filter>
    <marker id="svgfc4be322-arrowhead" markerWidth="10" markerHeight="7" refX="9" refY="3.5" orient="auto" markerUnits="strokeWidth">
      <polygon points="0 0, 10 3.5, 0 7" fill="var(--muted-text)" opacity="0.6"/>
    </marker>
    <marker id="svgfc4be322-PHX_SEQUENCE_DIRECTION_ARROW" markerWidth="18" markerHeight="18" refX="16" refY="9" orient="auto" markerUnits="userSpaceOnUse">
      <path d="M 0 0 L 18 9 L 0 18 Z" fill="var(--muted-text)" opacity="0.9"/>
    </marker>
  </defs>
  <rect width="100%" height="100%" fill="var(--background)" id="CANVAS_BG"/>
  <rect width="100%" height="100%" fill="url(#svgfc4be322-napkin-hatch)"/>
  <rect id="UNIVERSAL_EDGE_VIGNETTE" width="100%" height="100%" fill="url(#svgfc4be322-universal-edge-vignette)" opacity="0.62"/>
  <text id="TITLE" x="960.0" y="59" text-anchor="middle" font-size="63" font-weight="700" fill="#0f172a" style="font-size: 69px; font-family: 'Segoe UI Variable Display', 'Aptos Display', 'Inter', 'Segoe UI', Helvetica, Arial, sans-serif; font-weight: 800; font-kerning: normal; font-feature-settings: &quot;kern&quot; 1, &quot;liga&quot; 1; letter-spacing:-1.2px;" data-final-font-size="69">
    <tspan x="960.0" dy="70.47px">Evolution of Third Kind Terminology</tspan>
  </text>
  <rect id="TITLE_FRAME" x="134" y="59" width="1652" height="103" fill="none"/>
  <g id="DIAGRAM_SCALER" transform="translate(50.6, 32.5) scale(0.95)">
    <line x1="120" y1="675" x2="1800" y2="675" stroke="var(--panel)" stroke-width="3" stroke-linecap="round" marker-end="url(#svgfc4be322-PHX_SEQUENCE_DIRECTION_ARROW)" data-direction-cue="forward"/>
    <g transform="translate(345.0, 675.0)">
      <line x1="0" y1="0" x2="0" y2="-180" stroke="var(--accent-1)" stroke-width="2"/>
      <circle id="ITEM_1_NODE" cx="0" cy="-180" r="50" fill="var(--background)" stroke="var(--accent-1)" stroke-width="2" stroke-opacity="0.58" data-badge-layer="outline"/>
      <g transform="translate(0.0, 45.0)">
        <rect x="-150" y="-15" width="300" height="165" rx="12" fill="var(--panel)" id="ITEM_1_BG" stroke="var(--accent-1)" stroke-width="2"/>
        <text id="ITEM_1_HEAD" text-anchor="middle" font-weight="bold" font-size="27" fill="var(--accent-1)" x="0.0" y="0.0" data-bg-id="ITEM_1_BG" fill-opacity="1.0" style="font-size: 22px; font-family: 'Segoe UI Variable Display', 'Aptos Display', 'Inter', 'Segoe UI', Helvetica, Arial, sans-serif; font-weight: 700; font-kerning: normal; font-feature-settings: &quot;kern&quot; 1, &quot;liga&quot; 1; letter-spacing:-0.4px;" data-final-font-size="22">
          <tspan x="0.0" dy="30.45px">Scientific Classification</tspan>
        </text>
        <rect id="ITEM_1_HEAD_FRAME" x="-135" y="0" width="270" height="51" fill="none"/>
        <text id="ITEM_1_BODY" text-anchor="middle" font-size="19.5" fill="var(--primary-text)" x="0.0" y="60.0" data-bg-id="ITEM_1_BG" style="font-size: 23px; font-family: 'Segoe UI Variable Text', 'Aptos', 'Inter', 'Segoe UI', Helvetica, Arial, sans-serif; font-weight: 400; font-kerning: normal; font-feature-settings: &quot;kern&quot; 1, &quot;liga&quot; 1;" data-final-font-size="23">
          <tspan x="0.0" dy="26.53px">Hynek creates technical</tspan>
          <tspan x="0.0" dy="26.45px">categories for UFO</tspan>
          <tspan x="0.0" dy="26.45px">sightings</tspan>
        </text>
        <rect id="ITEM_1_BODY_FRAME" x="-152" y="60" width="304" height="120" fill="none" data-side-overflow-fix="38.0|38.0"/>
      </g>
      <circle id="ITEM_1_PAD" cx="0" cy="-180" r="50" fill="var(--icon-pad-bg)" stroke="var(--accent-1)" opacity="1" fill-opacity="0.9" stroke-width="2" stroke-opacity="0.72" data-badge-layer="pad"/>
      <circle id="ITEM_1_PAD_INNER" cx="0" cy="-180" r="39.00" fill="var(--accent-1)" fill-opacity="0.12" stroke="none" data-badge-layer="tint"/>
      <circle cx="0" cy="-180" r="40" fill="none" stroke="var(--accent-1)" stroke-width="3" stroke-dasharray="6 4" display="none" data-suppressed-decoration="redundant-badge-ring"/>
      <g id="ITEM_1_ICON" transform="translate(-30.0, -210.0)" data-icon-size="60" stroke-linecap="round" stroke-linejoin="round" data-badge-treatment="clean">
        <g transform="translate(-15.902654867256636,-13.831858407079647) scale(2.7610619469026547)">
          <path d="M16.25 29.25C16.25 29.6642 15.9143 30 15.5 30C15.0858 30 14.75 29.6642 14.75 29.25V18.2847L6.35413 29.6945C6.10863 30.0281 5.63916 30.0996 5.30554 29.8541C4.97192 29.6086 4.90047 29.1391 5.14597 28.8055L13.8421 16.9877C13.3669 16.9119 13 16.4964 13 16C13 15.4505 13.4497 15 13.9983 15H14.75V11.75C14.75 11.3358 15.0858 11 15.5 11C15.9143 11 16.25 11.3358 16.25 11.75V15H17.0018C17.5504 15 18 15.4505 18 16C18 16.421 17.7361 16.7839 17.366 16.9306L26.1041 28.8055C26.3496 29.1391 26.2782 29.6086 25.9446 29.8541C25.6109 30.0996 25.1415 30.0281 24.896 29.6945L16.25 17.9449V29.25Z" fill="#7167A4"/>
          <path d="M3.22683 4.27809C2.6088 5.92946 3.30622 7.78583 4.80973 8.60757L5.74923 8.95918L7.99999 8.00013L8.99999 4.00013L8.19939 2.40199L7.26328 2.05165C5.5897 1.68436 3.84485 2.62671 3.22683 4.27809Z" fill="#AEDDFF"/>
          <path d="M22.8343 8.94678L27.5555 10.7137L29 13.0001L28 15.0001L25.7687 15.3837L21.0817 13.6296L20 10.5001L22.8343 8.94678Z" fill="#D3D3D3"/>
          <path d="M8.59557 3.94216L11.9373 3.80078L23.1846 8.01009L20.731 14.566L9.48157 10.3559L7.48633 7.72365L8.59557 3.94216Z" fill="#BEBEBE"/>
          <path d="M11.9459 3.80389L8.19965 2.40186L5.74609 8.95777L9.49233 10.3598L11.9459 3.80389Z" fill="#5235A6"/>
          <path d="M29.39 11.4001L27.5169 10.6991L25.7644 15.3819L27.6375 16.0829C28.1547 16.2765 28.731 16.0141 28.9246 15.4969L29.9761 12.6872C30.1697 12.1699 29.9073 11.5937 29.39 11.4001Z" fill="#5235A6"/>
        </g>
      </g>
    </g>
    <g transform="translate(750.0, 675.0)">
      <line x1="0" y1="0" x2="0" y2="-300" stroke="var(--accent-2)" stroke-width="2"/>
      <circle id="ITEM_2_NODE" cx="0" cy="-300" r="50" fill="var(--background)" stroke="var(--accent-2)" stroke-width="2" stroke-opacity="0.58" data-badge-layer="outline"/>
      <g transform="translate(0.0, 45.0)">
        <rect x="-150" y="-15" width="300" height="165" rx="12" fill="var(--panel)" id="ITEM_2_BG" stroke="var(--accent-2)" stroke-width="2"/>
        <text id="ITEM_2_HEAD" text-anchor="middle" font-weight="bold" font-size="27" fill="var(--accent-2)" x="0.0" y="0.0" data-bg-id="ITEM_2_BG" fill-opacity="1.0" style="font-size: 27px; font-family: 'Segoe UI Variable Display', 'Aptos Display', 'Inter', 'Segoe UI', Helvetica, Arial, sans-serif; font-weight: 700; font-kerning: normal; font-feature-settings: &quot;kern&quot; 1, &quot;liga&quot; 1; letter-spacing:-0.4px;" data-final-font-size="27">
          <tspan x="0.0" dy="31.58px">Cinematic Adaptation</tspan>
        </text>
        <rect id="ITEM_2_HEAD_FRAME" x="-135" y="0" width="270" height="51" fill="none"/>
        <text id="ITEM_2_BODY" text-anchor="middle" font-size="19.5" fill="var(--primary-text)" x="-0.5" y="60.0" data-bg-id="ITEM_2_BG" style="font-size: 23px; font-family: 'Segoe UI Variable Text', 'Aptos', 'Inter', 'Segoe UI', Helvetica, Arial, sans-serif; font-weight: 400; font-kerning: normal; font-feature-settings: &quot;kern&quot; 1, &quot;liga&quot; 1;" data-final-font-size="23">
          <tspan x="-0.5" dy="26.53px">Spielberg translates</tspan>
          <tspan x="-0.5" dy="26.45px">technical terms into</tspan>
          <tspan x="-0.5" dy="26.45px">mainstream film</tspan>
        </text>
        <rect id="ITEM_2_BODY_FRAME" x="-153" y="60" width="305" height="120" fill="none" data-side-overflow-fix="37.0|38.0"/>
      </g>
      <circle id="ITEM_2_PAD" cx="0" cy="-300" r="50" fill="var(--icon-pad-bg)" stroke="var(--accent-2)" opacity="1" fill-opacity="0.9" stroke-width="2" stroke-opacity="0.72" data-badge-layer="pad"/>
      <circle id="ITEM_2_PAD_INNER" cx="0" cy="-300" r="39.00" fill="var(--accent-2)" fill-opacity="0.12" stroke="none" data-badge-layer="tint"/>
      <circle cx="0" cy="-300" r="40" fill="none" stroke="var(--accent-2)" stroke-width="3" stroke-dasharray="6 4" display="none" data-suppressed-decoration="redundant-badge-ring"/>
      <g id="ITEM_2_ICON" transform="translate(-30.0, -330.0)" data-icon-size="60" stroke-linecap="round" stroke-linejoin="round" data-badge-treatment="clean">
        <g transform="translate(-17.666666666666664,-16.22222222222222) scale(0.3611111111111111)" vector-effect="non-scaling-stroke" stroke-width="2.43" stroke-linecap="round" stroke-linejoin="round" stroke-opacity="1.0">
          <circle cx="128" cy="128" r="96" fill="none" stroke="#f1f5f9" vector-effect="non-scaling-stroke"/>
          <line x1="128" y1="224" x2="232" y2="224" fill="none" stroke="#f1f5f9" vector-effect="non-scaling-stroke"/>
          <circle cx="128" cy="80" r="16" fill="none" stroke="#f1f5f9" vector-effect="non-scaling-stroke"/>
          <circle cx="128" cy="176" r="16" fill="none" stroke="#f1f5f9" vector-effect="non-scaling-stroke"/>
          <circle cx="176" cy="128" r="16" fill="none" stroke="#f1f5f9" vector-effect="non-scaling-stroke"/>
          <circle cx="80" cy="128" r="16" fill="none" stroke="#f1f5f9" vector-effect="non-scaling-stroke"/>
        </g>
      </g>
    </g>
    <g transform="translate(1155.0, 675.0)">
      <line x1="0" y1="0" x2="0" y2="-240" stroke="var(--accent-3)" stroke-width="2"/>
      <circle id="ITEM_3_NODE" cx="0" cy="-240" r="50" fill="var(--background)" stroke="var(--accent-3)" stroke-width="2" stroke-opacity="0.58" data-badge-layer="outline"/>
      <g transform="translate(0.0, 45.0)">
        <rect x="-150" y="-15" width="300" height="165" rx="12" fill="var(--panel)" id="ITEM_3_BG" stroke="var(--accent-3)" stroke-width="2"/>
        <text id="ITEM_3_HEAD" text-anchor="middle" font-weight="bold" font-size="27" fill="var(--accent-3)" x="0.0" y="0.0" data-bg-id="ITEM_3_BG" fill-opacity="1.0" style="font-size: 30px; font-family: 'Segoe UI Variable Display', 'Aptos Display', 'Inter', 'Segoe UI', Helvetica, Arial, sans-serif; font-weight: 700; font-kerning: normal; font-feature-settings: &quot;kern&quot; 1, &quot;liga&quot; 1; letter-spacing:-0.4px;" data-final-font-size="30">
          <tspan x="0.0" dy="33.75px">Cultural Shorthand</tspan>
        </text>
        <rect id="ITEM_3_HEAD_FRAME" x="-135" y="0" width="270" height="51" fill="none"/>
        <text id="ITEM_3_BODY" text-anchor="middle" font-size="19.5" fill="var(--primary-text)" x="-0.5" y="60.0" data-bg-id="ITEM_3_BG" style="font-size: 23px; font-family: 'Segoe UI Variable Text', 'Aptos', 'Inter', 'Segoe UI', Helvetica, Arial, sans-serif; font-weight: 400; font-kerning: normal; font-feature-settings: &quot;kern&quot; 1, &quot;liga&quot; 1;" data-final-font-size="23">
          <tspan x="-0.5" dy="31.82px">Phrase becomes a symbol</tspan>
          <tspan x="-0.5" dy="26.45px">for peaceful contact</tspan>
        </text>
        <rect id="ITEM_3_BODY_FRAME" x="-153" y="60" width="305" height="120" fill="none" data-side-overflow-fix="37.0|38.0"/>
      </g>
      <circle id="ITEM_3_PAD" cx="0" cy="-240" r="50" fill="var(--icon-pad-bg)" stroke="var(--accent-3)" opacity="1" fill-opacity="0.9" stroke-width="2" stroke-opacity="0.72" data-badge-layer="pad"/>
      <circle id="ITEM_3_PAD_INNER" cx="0" cy="-240" r="39.00" fill="var(--accent-3)" fill-opacity="0.12" stroke="none" data-badge-layer="tint"/>
      <circle cx="0" cy="-240" r="40" fill="none" stroke="var(--accent-3)" stroke-width="3" stroke-dasharray="6 4" display="none" data-suppressed-decoration="redundant-badge-ring"/>
      <g id="ITEM_3_ICON" transform="translate(-30.0, -270.0)" data-icon-size="60" stroke-linecap="round" stroke-linejoin="round" data-badge-treatment="clean">
        <g transform="translate(-16.22222222222222,-17.666666666666664) scale(2.888888888888889)">
          <path d="M14.9921 19H24.7877C25.4579 19 26 19.5491 26 20.2279V23.772C26 24.4509 25.4579 25 24.7877 25L19.1253 26.3608L13.2206 25H12.5166C11.9449 25 11.4422 24.6106 11.2944 24.0416L9.84556 19.1885L6.0442 5.18764C5.86295 4.54243 6.25566 3.86745 6.92026 3.6987L9.39738 3.04357C10.0519 2.8649 10.7366 3.25202 10.9078 3.90715L11.0432 4.40561L12.696 6.97588L12.5394 9.91665L14.9558 18.8164C14.973 18.8775 14.985 18.9388 14.9921 19Z" fill="#00A6ED"/>
          <path d="M12.3999 28L12.6533 29.05C12.8104 29.61 12.8924 30 13.4999 30H24.9999C25.4999 30 25.9999 29.5 25.9999 29C25.9999 28.5 25.9999 28 25.9999 28H12.3999Z" fill="black"/>
          <path d="M13.9789 8.80147L12.9137 4.52375C12.8235 4.14373 12.4624 3.91962 12.1103 4.0268L11.8756 4.09501L11.0273 4.33594L12.5469 9.95703L13.2748 9.74665L13.5095 9.67844C13.8616 9.57125 14.0692 9.18149 13.9789 8.80147ZM21.5 17H11.5C10.67 17 10 16.33 10 15.5C10 14.67 10.67 14 11.5 14H21.5C22.33 14 23 14.67 23 15.5C23 16.33 22.33 17 21.5 17ZM26 28H12.4064L12.0443 26.62C11.8286 25.8 12.4268 25 13.2604 25H24.7937C25.4606 25 26 25.55 26 26.23V28Z" fill="#B4ACBC"/>
        </g>
      </g>
    </g>
    <g transform="translate(1560.0, 675.0)">
      <line x1="0" y1="0" x2="0" y2="-180" stroke="var(--accent-4)" stroke-width="2"/>
      <circle id="ITEM_4_NODE" cx="0" cy="-180" r="50" fill="var(--background)" stroke="var(--accent-1)" stroke-width="2" stroke-opacity="0.58" data-badge-layer="outline"/>
      <g transform="translate(0.0, 45.0)">
        <rect x="-150" y="-15" width="300" height="165" rx="12" fill="var(--panel)" id="ITEM_4_BG" stroke="var(--accent-4)" stroke-width="2"/>
        <text id="ITEM_4_HEAD" text-anchor="middle" font-weight="bold" font-size="27" fill="var(--accent-1)" x="0.0" y="0.0" data-bg-id="ITEM_4_BG" fill-opacity="1.0" style="font-size: 26px; font-family: 'Segoe UI Variable Display', 'Aptos Display', 'Inter', 'Segoe UI', Helvetica, Arial, sans-serif; font-weight: 700; font-kerning: normal; font-feature-settings: &quot;kern&quot; 1, &quot;liga&quot; 1; letter-spacing:-0.4px;" data-final-font-size="26">
          <tspan x="0.0" dy="31.35px">National Preservation</tspan>
        </text>
        <rect id="ITEM_4_HEAD_FRAME" x="-135" y="0" width="270" height="51" fill="none"/>
        <text id="ITEM_4_BODY" text-anchor="middle" font-size="19.5" fill="var(--primary-text)" x="0.0" y="60.0" data-bg-id="ITEM_4_BG" style="font-size: 23px; font-family: 'Segoe UI Variable Text', 'Aptos', 'Inter', 'Segoe UI', Helvetica, Arial, sans-serif; font-weight: 400; font-kerning: normal; font-feature-settings: &quot;kern&quot; 1, &quot;liga&quot; 1;" data-final-font-size="23">
          <tspan x="0.0" dy="31.82px">Film enters the National</tspan>
          <tspan x="0.0" dy="26.45px">Film Registry archives</tspan>
        </text>
        <rect id="ITEM_4_BODY_FRAME" x="-152" y="60" width="304" height="120" fill="none" data-side-overflow-fix="38.0|38.0"/>
      </g>
      <circle id="ITEM_4_PAD" cx="0" cy="-180" r="50" fill="var(--icon-pad-bg)" stroke="var(--accent-1)" opacity="1" fill-opacity="0.9" stroke-width="2" stroke-opacity="0.72" data-badge-layer="pad"/>
      <circle id="ITEM_4_PAD_INNER" cx="0" cy="-180" r="39.00" fill="var(--accent-1)" fill-opacity="0.12" stroke="none" data-badge-layer="tint"/>
      <circle cx="0" cy="-180" r="40" fill="none" stroke="var(--accent-4)" stroke-width="3" stroke-dasharray="6 4" display="none" data-suppressed-decoration="redundant-badge-ring"/>
      <g id="ITEM_4_ICON" transform="translate(-30.0, -210.0)" data-icon-size="60" stroke-linecap="round" stroke-linejoin="round" data-badge-treatment="clean">
        <g transform="translate(-9.0,-9.0) scale(5.571428571428571)" vector-effect="non-scaling-stroke" stroke-width="2.43" stroke-linecap="round" stroke-linejoin="round" stroke-opacity="1.0">
          <path id="Vector" fill="none" d="M1.5 5h11v7c0 0.2652 -0.1054 0.5196 -0.2929 0.7071S11.7652 13 11.5 13h-9c-0.26522 0 -0.51957 -0.1054 -0.70711 -0.2929C1.60536 12.5196 1.5 12.2652 1.5 12V5Z" vector-effect="non-scaling-stroke" stroke="#f1f5f9"/>
          <path id="Vector_2" fill="none" d="M13.5 4V2c0 -0.55228 -0.4477 -1 -1 -1l-11 0c-0.552285 0 -1 0.44772 -1 1v2c0 0.55228 0.447715 1 1 1l11 0c0.5523 0 1 -0.44772 1 -1Z" vector-effect="non-scaling-stroke" stroke="#f1f5f9"/>
          <path id="Vector_3" stroke="#f1f5f9" d="M1.5 5h11v7c0 0.2652 -0.1054 0.5196 -0.2929 0.7071S11.7652 13 11.5 13h-9c-0.26522 0 -0.51957 -0.1054 -0.70711 -0.2929C1.60536 12.5196 1.5 12.2652 1.5 12V5v0Z" vector-effect="non-scaling-stroke" fill="none"/>
          <path id="Vector_4" stroke="#f1f5f9" d="M13.5 4V2c0 -0.55228 -0.4477 -1 -1 -1l-11 0c-0.552285 0 -1 0.44772 -1 1v2c0 0.55228 0.447715 1 1 1l11 0c0.5523 0 1 -0.44772 1 -1Z" vector-effect="non-scaling-stroke" fill="none"/>
          <path id="Vector_5" stroke="#f1f5f9" d="M5.5 8h3" vector-effect="non-scaling-stroke" fill="none" display="none"/>
        </g>
      </g>
    </g>
    <line id="PHX_SEQUENCE_MIDROUTE_ARROW_1" x1="932.0" y1="675.0" x2="988.0" y2="675.0" stroke="var(--muted-text)" opacity="0.92" stroke-width="5" stroke-linecap="round" marker-end="url(#svgfc4be322-PHX_SEQUENCE_DIRECTION_ARROW)" data-direction-cue="forward"/>
  </g>
  <text id="SOURCE_NOTE" x="134.0" y="1058.0" fill="var(--muted-text)" opacity="1" style="font-family: var(--font-family); font-size: 20px;">Source: close encounters of the third kind</text>
</svg>
